<svg version="1.2" xmlns="http://www.w3.org/2000/svg" viewBox="0 0 3094 3094" width="3094" height="3094">
	<title>10300_8-10-ai (1)</title>
	<style>
		tspan { white-space:pre } 
		.s0 { fill: #b3b0b7 } 
		.s1 { fill: #98939e } 
		.s2 { fill: #323a49 } 
		.s3 { fill: #6d6a73 } 
		.s4 { fill: #ffffff } 
		.s5 { fill: #575460 } 
		.s6 { fill: #fff3e9 } 
		.s7 { fill: #b17e4f } 
		.s8 { fill: #f9d6b6 } 
		.s9 { fill: #313849 } 
		.s10 { fill: #313a49 } 
		.s11 { fill: #ffdf4f } 
		.s12 { fill: #ffa89f } 
	</style>
	<g id="Layer 1">
		<g id="&lt;Group&gt;">
			<g id="&lt;Group&gt;">
				<g id="&lt;Group&gt;">
					<g id="&lt;Group&gt;">
						<g id="&lt;Group&gt;">
							<g id="&lt;Group&gt;">
								<path id="&lt;Path&gt;" class="s0" d="m2176.7 2118.1c0.1 0.1 21.5 106.5-39.4 179.7-18.3 22.7-34.5 52.5-24.3 80.5 7.2 19.5 28.5 24.4 50.9 26.3-18.3 49.5-1 84 20.7 96.7 26.2 15.3 69 10.4 91.6-16.2 35.6-0.9 63.2-9.3 80.4-28.2 34.5-38 37.7-116.9 23.1-198.5-45.4-210.9-169.7-182.2-203-140.3z"/>
							</g>
						</g>
						<g id="&lt;Group&gt;">
							<g id="&lt;Group&gt;">
								<path id="&lt;Path&gt;" class="s0" d="m2382 2403.1c-5 21.9-13.3 40.4-25.4 53.8-17.2 18.9-44.8 27.3-80.4 28.2-22.6 26.6-65.4 31.5-91.6 16.2-21.7-12.7-39-47.2-20.7-96.7-22.4-1.9-43.7-6.8-50.9-26.3-10.2-28 6-57.8 24.3-80.5 15.5-18.6 25.6-39.3 32.2-59.9 19.2-60.4 7.3-119.7 7.2-119.8 33.3-41.9 157.6-70.6 203 140.3 9.4 52.8 11.4 104.5 2.3 144.7z"/>
							</g>
						</g>
						<g id="&lt;Group&gt;">
							<g id="&lt;Group&gt;">
								<path id="&lt;Path&gt;" class="s1" d="m2382 2403.1c-5 21.9-13.3 40.4-25.4 53.8-17.2 18.9-44.8 27.3-80.4 28.2-22.6 26.6-65.4 31.5-91.6 16.2-21.7-12.7-39-47.2-20.7-96.7-22.4-1.9-43.7-6.8-50.9-26.3-10.2-28 6-57.8 24.3-80.5 15.5-18.6 25.6-39.3 32.2-59.9 3.7 15.8 6.2 32.5 7.2 50.4-34.3 11.5-62.6 48.8-47.6 72.2 11.9 18.5 33.8 3.4 57.1 8.6 23.4 5.2 21.1 45.6 19.2 69.5-0.5 4.9-12.5-4.5-12 0 1.2 12.9 6.7 22.2 19.9 24.4 35.6 6 57.4-19.6 57.4-19.6 0 0 50.2 23.8 111.3-40.3z"/>
							</g>
						</g>
						<g id="&lt;Group&gt;">
							<g id="&lt;Group&gt;">
								<path id="&lt;Compound Path&gt;" fill-rule="evenodd" class="s2" d="m2219.2 2522.1c-15 0-29.4-3.5-40.8-10.2-25-14.6-42.8-49.5-30.7-96.8-16.7-2.9-38.1-10.3-46.2-32.6-10.1-27.3-1.2-58.4 26.3-92.5 50.5-60.7 40.4-147.1 37.5-165.6l-5.5-4.9 7.2-9.1c17.8-22.3 56.9-41.7 100.6-31.5 41.4 9.7 96.5 48.3 124.1 176.9 10.2 56.7 20.2 158.5-26 209.4-17.9 19.7-45.4 30.2-83.9 32-16.9 17.1-40.4 24.9-62.6 24.9zm-29.5-400.2c3.4 18.3 3.1 49.6 2.5 59.4-3.1 49.4-18.8 92.4-45.4 124.3-21.5 26.7-29 49.8-22.2 68.4 4 11 15.7 16.3 40.3 18.3l16.2 1.4-5.6 15.2c-15.4 41.3-3.3 70.9 15.4 81.8 20.3 11.9 56.5 9.2 75.9-13.6l3.6-4.2 5.5-0.1c34.2-0.9 57.6-8.8 71.6-24.2 28.1-31 35.6-101.2 20.1-188-19.4-90.1-57-146.3-105.6-157.7-29.4-6.9-57.5 3.9-72.3 19z"/>
							</g>
						</g>
						<g id="&lt;Group&gt;">
							<path id="&lt;Path&gt;" class="s2" d="m2205.4 2438.6c-5.5-12.5-11.5-28-23.3-35.3-1.8-0.7-2.7-0.3-2.9 0.2-0.6 0.8-3.5 4.2-5.5 8.6l-19.5-15.1c9.2-9.9 26.4-17.8 37.6-5.7 11.4 13.3 12.3 31 13.6 47.3z"/>
						</g>
					</g>
					<g id="&lt;Group&gt;">
						<path id="&lt;Path&gt;" class="s2" d="m2176.7 2287.8c-19 9.2-36.3 22.7-46.2 41.2 0 0-19-15.7-19-15.7 18.1-15.6 41.9-23.7 65.2-25.5z"/>
					</g>
				</g>
				<g id="&lt;Group&gt;">
					<path id="&lt;Path&gt;" class="s3" d="m1809.7 1587.8c179.7 40.3 567.2 271.2 572.3 656.3-4.3 80.5-121.5 90.8-235 40.8-54.3-68.5-86.6-293.3-298.7-419.8l-267.3-243.5z"/>
				</g>
				<g id="&lt;Group&gt;">
					<path id="&lt;Path&gt;" class="s3" d="m2382 2244.1c-4.3 80.6-121.5 90.8-235 40.8-54.3-68.5-86.6-293.3-298.7-419.8l-196-178.6-71.3-64.8 228.7-33.9c59.4 13.3 141.4 47.4 224.8 101 169.2 108.6 344.1 297.3 347.5 555.3z"/>
				</g>
				<g id="&lt;Group&gt;">
					<path id="&lt;Path&gt;" class="s3" d="m2382 2244.1c-4.3 80.6-121.5 90.8-235 40.8-54.3-68.5-86.6-293.3-298.7-419.8l-196-178.6-71.3-64.8 228.7-33.9c59.4 13.3 141.4 47.4 224.8 101q5.1 3.3 10.2 6.6c164.4 108.6 330.9 292.6 337.1 541.8q0.2 3.5 0.2 6.9z"/>
				</g>
				<g id="&lt;Group&gt;">
					<path id="&lt;Path&gt;" class="s4" d="m2034.9 1688.4l-0.4 0.4q-0.1-0.4 0.4-0.4z"/>
				</g>
				<g id="&lt;Group&gt;" style="opacity: .3">
					<path id="&lt;Path&gt;" class="s4" d="m2381.8 2237.2c-50.5-290-285.2-497.6-337.1-541.8 164.4 108.6 330.9 292.6 337.1 541.8z"/>
				</g>
				<g id="&lt;Group&gt;">
					<path id="&lt;Path&gt;" class="s5" d="m2034.5 1688.8c-147.9 20.3-274.7 17-382.2-2.3l-71.3-64.8 228.7-33.9c59.4 13.3 141.4 47.4 224.8 101z"/>
				</g>
				<g id="&lt;Group&gt;">
					<path id="&lt;Path&gt;" class="s5" d="m1570.8 1668.1c-184.2-51.2-301.4-151.5-364.2-248.1 128.6 81.7 269 146.1 413.2 161.3 28.6 3-1.2 42.3-49 86.8z"/>
				</g>
				<g id="&lt;Group&gt;">
					<path id="&lt;Path&gt;" class="s5" d="m1939.1 1698.9c-233.1 17.2-407.6-27.7-532.4-97.4 47.9-41.7 127.4-80.8 253.7-71.3 151.1 11.4 225.4 81.4 260.9 136.4 7.6 11.7 13.4 22.7 17.8 32.3z"/>
				</g>
				<g id="&lt;Group&gt;">
					<path id="&lt;Path&gt;" class="s5" d="m2382 2244.1c-4.3 80.5-121.5 90.8-235 40.8-50.3-63.4-81.7-260.7-254.2-390l39.8-90.6c139.8 157.9 194.5 410.3 276.9 450.9 54.9 27.1 141.8 29 172-28.2q0.4 8.5 0.5 17.1z"/>
				</g>
				<g id="&lt;Group&gt;">
					<path id="&lt;Path&gt;" class="s2" d="m2277.8 2327.7c-40.9 0-88.5-10.7-135.8-31.6-1.8-0.8-3.4-2-4.6-3.6-16.6-20.8-30.2-53-47.5-93.7-42.1-99.1-99.8-234.8-247.9-323.1l12.6-21.2c155 92.5 217 238.2 257.9 334.7 15.3 35.9 28.5 67.1 42.4 85.6 73.8 32 149.2 37.3 188.3 13.3 16.4-10.1 25.3-25 26.5-44.3-2.9-207.5-119.5-358.2-216.7-448.1-116.8-107.9-257.9-176.1-346-195.8l5.4-24.1c84.6 19 229 83.2 357.3 201.8 100.9 93.2 221.7 249.8 224.6 466.3q0 0.4 0 0.8c-1.5 27.7-14.7 49.9-38.2 64.4-20.2 12.4-47.4 18.6-78.3 18.6z"/>
				</g>
				<g id="&lt;Group&gt;">
					<path id="&lt;Path&gt;" class="s3" d="m668 990.9c164.7 109.6 543.2 547.2 951.8 590.4 67.8 7.2-192.6 218.2-243.7 218.5-141.3 0.8-679.1-155-905.2-350.9"/>
				</g>
				<g id="&lt;Group&gt;">
					<path id="&lt;Path&gt;" class="s5" d="m1570.8 1668.1c-184.2-51.2-301.4-151.5-364.2-248.1 128.6 81.7 269 146.1 413.2 161.3 28.6 3-1.2 42.3-49 86.8z"/>
				</g>
				<g id="&lt;Group&gt;">
					<path id="&lt;Path&gt;" class="s5" d="m1362.3 1799.5c-159.5-8.3-672.1-160.6-891.4-350.6l196.4-456.5c124.9 96.4 62.3 176.1 52 408.4-10.3 234.7 547.5 340.1 616.3 299 0 0 14.8 71.1 26.7 99.7z"/>
				</g>
				<g id="&lt;Group&gt;">
					<path id="&lt;Compound Path&gt;" fill-rule="evenodd" class="s2" d="m1374.7 1812.2c-4 0-8.4-0.2-13.1-0.4-150.4-7.8-672-157.1-898.8-353.6-4-3.5-5.3-9.2-3.2-14.2l197.1-458.1c1.5-3.3 4.3-5.8 7.8-6.8 3.5-1 7.3-0.5 10.3 1.5 41.9 27.9 97.5 76.8 162 133.4 191.8 168.5 481.7 423 784.3 455.1 17.1 1.8 22.7 13.2 22.2 23.3-1.7 33.9-81.7 101.7-116 129.3-18.7 15.1-113.9 90.2-151.1 90.4q-0.8 0.1-1.5 0.1zm-888.9-366.8c226.4 190.3 730.6 334.2 877.1 341.8 4.8 0.2 9.1 0.4 13.1 0.3q0 0 0 0c25.4-0.1 142.3-81.3 209.7-151.2 24.4-25.4 30.8-38 32.4-42.8-310.2-33-603.5-290.6-797.6-461-57.6-50.6-108.1-94.9-147.2-122.9z"/>
				</g>
				<g id="&lt;Group&gt;" style="opacity: .2">
					<path id="&lt;Path&gt;" class="s2" d="m2337.8 2881.1c0 64.2-325.4 116.3-726.8 116.3-401.5 0-726.9-52.1-726.9-116.3 0-64.3 325.4-116.3 726.9-116.3 401.4 0 726.8 52 726.8 116.3z"/>
				</g>
				<g id="&lt;Group&gt;">
					<path id="&lt;Path&gt;" class="s6" d=""/>
				</g>
				<g id="&lt;Group&gt;">
					<g id="&lt;Group&gt;">
						<g id="&lt;Group&gt;">
							<path id="&lt;Path&gt;" class="s7" d="m1588.5 2411.2c-118.4 75-95.8 381.8-149 448.3-21.3 26.6-218.6-47.3-244.9-96.1-35.5-226.9 22.2-547.7 52.4-633.3"/>
						</g>
						<g id="&lt;Group&gt;">
							<path id="&lt;Path&gt;" class="s3" d="m1588.4 2411.2c-118.3 75-95.7 381.8-148.9 448.3-20.3 25.3-199.5-40.3-239.8-88.7-2.1-2.5-3.9-5-5.1-7.4-24-153.4-5.4-349.9 18.6-487.5 11.4-65.8 24-118.1 33.8-145.8z"/>
						</g>
						<g id="&lt;Group&gt;">
							<path id="&lt;Path&gt;" class="s5" d="m1588.4 2411.2c-118.3 75-95.7 381.8-148.9 448.3-20.3 25.3-199.5-40.3-239.8-88.7 18.1-8 41.2-15.2 71.1-20 0 0 131.6-8.3 155.8-87.2 28.4-93.1-53-141.6-101.8-192.9-57.7-60.8-107.9-123.1-111.6-194.8 11.4-65.8 24-118.1 33.8-145.8z"/>
						</g>
						<g id="&lt;Group&gt;">
							<path id="&lt;Path&gt;" class="s2" d="m1420.1 2877.5q-4.7 0-10.1-0.5c-63.3-5.7-201.7-62.2-226.3-107.7-0.6-1.3-1.1-2.6-1.3-4-36.7-234.9 23.8-556.6 53-639.3l23.2 8.2c-31 87.7-85.8 405.3-52.2 625 17.9 28.3 109.2 71.2 174 87.4 33.2 8.3 46.9 6.4 49.7 4.9 18.5-23.6 27.8-86.3 37.7-152.6 17.3-116.9 37-249.3 114.1-298.1l13.2 20.8c-67.6 42.8-87.2 174.8-103 280.9-10.8 73.1-20.2 136.3-43 164.7-5.6 6.9-14.9 10.3-29 10.3z"/>
						</g>
					</g>
					<g id="&lt;Group&gt;">
						<g id="&lt;Group&gt;">
							<g id="&lt;Group&gt;">
								<path id="&lt;Path&gt;" class="s8" d="m1429.2 2795c30.6 42.2 10.7 72.5-30.1 91.9-19.7 8-48.7 25.4-71.3 11-4.8-3.1-11.9-10.5-13.6-20.3-5.7 2.6-24.6 13.7-34.4 19.3-16.8 9.7-51 23.4-81 0.1 0 0-40.8 15.2-62.2-10.1 0 0-32.6 0.1-31.3-35.7 1.3-37.8 62-95.9 161.5-100.1 57.2-2.4 108.9 9.5 141.1 27.7 5.9 3.2 15.2 9.3 21.3 16.2z"/>
							</g>
							<g id="&lt;Group&gt;">
								<path id="&lt;Path&gt;" class="s0" d="m1136.6 2886.9c21.4 25.3 62.2 10.1 62.2 10.1 30.1 23.3 64.1 9.6 81-0.1 9.8-5.6 28.7-16.7 34.4-19.3 1.7 9.8 8.8 17.2 13.6 20.3 22.6 14.4 51.6-3 71.3-11 40.8-19.4 60.7-49.6 30.1-91.9-6.1-6.9-15.4-13-21.3-16.2-12.5-7.1-28.1-13.3-45.8-18-27.6-7.3-60.4-11.1-95.3-9.7-84.9 3.6-141.5 46.4-157.2 82.4-2.7 6.2-4.1 12.2-4.3 17.7-1.2 35.8 31.3 35.7 31.3 35.7z"/>
							</g>
							<g id="&lt;Group&gt;">
								<path id="&lt;Path&gt;" class="s1" d="m1136.6 2886.9c21.4 25.3 62.2 10.1 62.2 10.1 30.1 23.3 64.1 9.6 81-0.1 9.8-5.6 28.7-16.7 34.4-19.3 1.7 9.8 8.8 17.2 13.6 20.3 22.6 14.4 51.6-3 71.3-11 40.8-19.4 60.7-49.6 30.1-91.9-6.1-6.9-15.4-13-21.3-16.2-12.5-7.1-28.1-13.3-45.8-18 96 32.3 59.4 85.8 39.7 93.8-19.8 8-48.8 25.4-71.4 11-4.7-3-8.2-12.6-1.1-20.8-5.7 2.7-37.1 14.2-46.8 19.9-16.9 9.7-51 23.3-81.1 0 0 0-40.8 15.2-62.2-10.1-0.2 0-23.1 0-29.5-21.1h-0.1c-2.7 6.2-4.1 12.2-4.3 17.7-1.2 35.8 31.3 35.7 31.3 35.7z"/>
							</g>
							<g id="&lt;Group&gt;">
								<path id="&lt;Path&gt;" class="s2" d="m1429.2 2795c31.1 17.4 35.6 59.2 8.1 82.6-11.9 10.4-24.6 16.9-38.6 22.9-13.4 5.7-25.8 12-41.1 14.4-24.1 5-51.3-9.7-55.5-35.2 0 0 17.3 9.1 17.3 9.1-3.1 1.5-9.6 5.1-12.9 7-14.1 7.9-28.8 17.8-44.5 22.3-23 7.7-51.5 4.4-70.8-11.3 0 0 11.9 1.8 11.9 1.8-25.3 8.6-57.4 8.3-75.9-13.7l9.4 4.3c-33.4 0.2-51.4-30.1-43.5-60.8 9-32.6 37-56.4 65.1-71.9 71.6-39.7 182.6-34.1 249.7 12.3-31.5-12.3-64.5-16.9-97.2-17.9-47.7-1.4-97.3 5.6-138.9 29.8-22.8 13.5-51.4 37-52.7 63.4-0.5 12.2 6.9 19 17.5 20.5 0 0 9.4 4.3 9.4 4.3 10.1 11.9 27.7 11.6 42 8.4 6.4-1.7 12.7-4.6 18.3 0 6.8 5.2 14.5 8.6 22.8 9.7 23.4 3.7 45.7-11.3 65.2-22.6 4.6-2.6 9.7-5.6 14.8-8 6-2.9 13.3-0.3 16.2 5.7 1.8 6.4 3.8 12.5 10.2 16 16.3 8.5 37.2-3.6 53.3-10.2 17.3-6.9 33.8-19.7 41.4-36.1 6.3-13.8 2.2-31.7-1-46.8z"/>
							</g>
							<g id="&lt;Group&gt;">
								<path id="&lt;Path&gt;" class="s2" d="m1264 2801.7c-28 19.8-67.5 54.2-53.4 91.9 0 0-23.7 6.8-23.7 6.8-9.3-48.6 38-82.3 77.1-98.7z"/>
							</g>
							<g id="&lt;Group&gt;">
								<path id="&lt;Path&gt;" class="s2" d="m1367.3 2818.2c-2.9 5.6-10.9 10.4-15.6 14.4-9.9 8-20.4 17.4-24.1 29.3-1.7 5.4-1.8 10.7-1.1 15.9 1 6.8-3.8 13.1-10.6 14.1-6.8 1-13.1-3.8-14.1-10.6-0.1-10 4.2-20.2 9.5-28.2 9.3-13.2 23.3-20.2 37.4-25.8 5.4-2.4 14.4-4.7 18.6-9.1z"/>
							</g>
							<g id="&lt;Group&gt;">
								<path id="&lt;Path&gt;" class="s2" d="m1206.9 2793c-30 20.4-66.1 52.8-58.1 92.5 1.5 6.6-2.7 13.3-9.3 14.8-6.7 1.5-13.3-2.7-14.9-9.4-0.9-7 0.1-14.3 1.5-21 9.8-38.8 46.2-62.6 80.8-76.9z"/>
							</g>
						</g>
					</g>
				</g>
				<g id="&lt;Group&gt;">
					<g id="&lt;Group&gt;">
						<g id="&lt;Group&gt;">
							<path id="&lt;Path&gt;" class="s7" d="m1614.2 2411.2c118.3 75 95.7 381.8 149 448.3 21.3 26.6 218.5-47.3 244.9-96.1 35.4-226.9-22.2-547.7-52.4-633.3"/>
						</g>
						<g id="&lt;Group&gt;">
							<path id="&lt;Path&gt;" class="s3" d="m1614.2 2411.2c118.3 75 95.7 381.8 149 448.3 20.3 25.3 199.4-40.3 239.7-88.7 2.1-2.5 3.9-5 5.2-7.4 24-153.4 5.3-349.9-18.6-487.5-11.4-65.8-24.1-118.1-33.8-145.8z"/>
						</g>
						<g id="&lt;Group&gt;">
							<path id="&lt;Path&gt;" class="s5" d="m1614.2 2411.2c118.3 75 95.7 381.8 149 448.3 20.3 25.3 199.4-40.3 239.7-88.7-18-8-41.1-15.2-71-20 0 0-134.2-7.6-155.8-87.2-29.2-107.5 37.7-151.5 91.3-188.9 64.3-44.9 145.9-96.6 122.1-198.8-11.4-65.8-24.1-118.1-33.8-145.8z"/>
						</g>
						<g id="&lt;Group&gt;">
							<path id="&lt;Path&gt;" class="s2" d="m1782.5 2877.5c-14.1 0-23.4-3.4-28.9-10.3-22.8-28.4-32.2-91.6-43.1-164.7-15.7-106.1-35.4-238.1-102.9-280.9l13.2-20.8c77.1 48.8 96.7 181.2 114.1 298.1 9.8 66.3 19.2 129 37.6 152.6 2.9 1.5 16.6 3.4 49.8-4.9 64.7-16.2 156.1-59.1 174-87.4 33.5-219.7-21.3-537.3-52.2-625l23.2-8.2c29.2 82.7 89.6 404.4 53 639.3-0.3 1.4-0.7 2.7-1.4 4-24.6 45.5-162.9 102-226.2 107.7q-5.5 0.5-10.2 0.5z"/>
						</g>
					</g>
					<g id="&lt;Group&gt;">
						<g id="&lt;Group&gt;">
							<g id="&lt;Group&gt;">
								<path id="&lt;Path&gt;" class="s8" d="m1773.4 2795c-30.6 42.2-10.7 72.5 30.1 91.9 19.8 8 48.8 25.4 71.3 11 4.8-3.1 12-10.5 13.6-20.3 5.7 2.6 24.7 13.7 34.4 19.3 16.9 9.7 51 23.4 81.1 0.1 0 0 40.8 15.2 62.2-10.1 0 0 32.5 0.1 31.3-35.7-1.4-37.8-62-95.9-161.6-100.1-57.2-2.4-108.9 9.5-141.1 27.7-5.9 3.2-15.2 9.3-21.3 16.2z"/>
							</g>
							<g id="&lt;Group&gt;">
								<path id="&lt;Path&gt;" class="s0" d="m2066.1 2886.9c-21.4 25.3-62.2 10.1-62.2 10.1-30.1 23.3-64.2 9.6-81-0.1-9.8-5.6-28.8-16.7-34.5-19.3-1.7 9.8-8.8 17.2-13.6 20.3-22.5 14.4-51.5-3-71.3-11-40.8-19.4-60.7-49.6-30-91.9 6-6.9 15.3-13 21.2-16.2 12.6-7.1 28.1-13.3 45.9-18 27.6-7.3 60.4-11.1 95.2-9.7 85 3.6 141.6 46.4 157.2 82.4 2.7 6.2 4.2 12.2 4.4 17.7 1.2 35.8-31.3 35.7-31.3 35.7z"/>
							</g>
							<g id="&lt;Group&gt;">
								<path id="&lt;Path&gt;" class="s1" d="m2066.1 2886.9c-21.4 25.3-62.2 10.1-62.2 10.1-30.1 23.3-64.2 9.6-81-0.1-9.8-5.6-28.8-16.7-34.5-19.3-1.7 9.8-8.8 17.2-13.6 20.3-22.5 14.4-51.5-3-71.3-11-40.8-19.4-60.7-49.6-30-91.9 6-6.9 15.3-13 21.2-16.2 12.6-7.1 28.1-13.3 45.9-18-96.1 32.3-59.5 85.8-39.7 93.8 19.7 8 48.8 25.4 71.3 11 4.8-3 8.3-12.6 1.2-20.8 5.6 2.7 37.1 14.2 46.8 19.9 16.9 9.7 51 23.3 81.1 0 0 0 40.8 15.2 62.2-10.1 0.1 0 23 0 29.5-21.1 2.7 6.2 4.2 12.2 4.4 17.7 1.2 35.8-31.3 35.7-31.3 35.7z"/>
							</g>
							<g id="&lt;Group&gt;">
								<path id="&lt;Path&gt;" class="s2" d="m1773.4 2795c-3.1 15.1-7.3 33-1 46.8 7.7 16.5 24.2 29.2 41.4 36.1 16.2 6.6 37.1 18.8 53.3 10.2 4.6-2.5 8.4-7.9 9.2-12.8 1.2-6.7 7.5-11.1 14.2-9.9 6.3 1.7 12.2 6.1 17.8 9 19.5 11.3 41.9 26.3 65.3 22.6 8.3-1.1 15.9-4.5 22.7-9.7 5.9-4.8 11.9-1.6 18.4 0 14.2 3.2 31.9 3.5 42-8.4l9.4-4.3c10.5-1.5 17.9-8.2 17.4-20.5-1.3-26.4-29.9-49.9-52.6-63.4-41.7-24.2-91.2-31.2-138.9-29.8-32.8 1-65.8 5.6-97.3 17.9 67.2-46.4 178.2-52 249.8-12.3 28.1 15.5 56.1 39.3 65 71.9 7.9 30.7-9.9 61-43.4 60.8-0.1 0 9.4-4.4 9.4-4.3-18.6 22-50.7 22.3-75.9 13.7l11.8-1.8c-19.2 15.7-47.8 19-70.8 11.3-15.6-4.5-30.4-14.4-44.4-22.3-3.3-2-9.8-5.5-12.9-7 0 0 17.3-9.1 17.3-9.1-4.2 25.5-31.5 40.2-55.5 35.2-15.3-2.4-27.8-8.7-41.1-14.4-14-6-26.7-12.5-38.6-22.9-27.4-23.3-23.1-65.1 8-82.6z"/>
							</g>
							<g id="&lt;Group&gt;">
								<path id="&lt;Path&gt;" class="s2" d="m1938.7 2801.7c39 16.4 86.4 50.1 77 98.7 0 0-23.7-6.8-23.7-6.8 14.2-37.4-25.5-72.2-53.3-91.9z"/>
							</g>
							<g id="&lt;Group&gt;">
								<path id="&lt;Path&gt;" class="s2" d="m1835.3 2818.2c4.3 4.4 13.2 6.7 18.7 9.1 14 5.6 28 12.6 37.3 25.8 6.8 10.3 17.9 34.6-0.9 38.8-6.8 1-13.2-3.6-14.2-10.4-0.2-6.6 1.3-12.9-1.1-19.6-3.8-11.9-14.2-21.3-24.2-29.3-4.6-4-12.7-8.8-15.6-14.4z"/>
							</g>
							<g id="&lt;Group&gt;">
								<path id="&lt;Path&gt;" class="s2" d="m1995.8 2793c34.6 14.3 71 38.1 80.8 76.9 2.1 11 5.5 30.3-11 30.7-6.8-0.2-12.2-5.9-12.1-12.7 0.7-5 1.9-9.8 1.7-15-2.2-34.8-32-61.3-59.4-79.9z"/>
							</g>
						</g>
					</g>
				</g>
				<g id="&lt;Group&gt;">
					<g id="&lt;Group&gt;">
						<g id="&lt;Group&gt;">
							<path id="&lt;Path&gt;" class="s3" d="m1951.6 1734.2c0 0 30 86.3 19.9 212 51.9 108.2 90.2 315.9-21.1 449l-157.8 98.1c-41.9 19.4-112.7 36.6-207 29.5-94.3-7.2-161.8-34.7-200.3-60.2l-141.3-120.7c-90.1-148.3-21-347.8 46.5-447 8.9-125.9 51.5-206.6 51.5-206.6 0 0 64.7-177.3 318.4-158.1 253.7 19.1 291.2 204 291.2 204z"/>
						</g>
						<g id="&lt;Group&gt;">
							<path id="&lt;Path&gt;" class="s3" d="m1951.6 1734.2c0 0 30 86.3 19.9 212 51.9 108.2 90.2 315.9-21.1 449l-157.8 98.1c-41.9 19.4-112.7 36.6-207 29.5-94.3-7.2-161.8-34.7-200.3-60.2l-141.3-120.7c-90.1-148.3-21-347.8 46.5-447 8.9-125.9 51.5-206.6 51.5-206.6 0 0 64.7-177.3 318.4-158.1 253.7 19.1 291.2 204 291.2 204z"/>
						</g>
						<g id="&lt;Group&gt;">
							<path id="&lt;Path&gt;" class="s3" d="m1950.4 2395.2l-157.8 98.1c-41.9 19.4-112.7 36.6-207 29.4-94.3-7.1-161.7-34.6-200.3-60.1l-141.3-120.7c-90.1-148.3-21-347.8 46.5-447 8.9-125.9 51.5-206.6 51.5-206.6 0 0 10.6-29.1 40.1-62.4 43.3-48.9 127.3-107.1 278.3-95.7 151 11.4 225.4 81.5 260.9 136.4 24.1 37.3 30.3 67.6 30.3 67.6 0 0 29.9 86.3 19.9 212 51.9 108.2 90.2 315.8-21.1 449z"/>
						</g>
						<g id="&lt;Group&gt;">
							<path id="&lt;Path&gt;" class="s3" d="m1988.1 2336.7c-10 20.6-22.4 40.2-37.7 58.5l-157.8 98.1c-41.9 19.4-112.7 36.6-207 29.4-94.3-7.1-161.7-34.6-200.3-60.1l-141.3-120.7c-12.3-20.3-21.7-41.6-28.4-63.4-42.8-137.6 16.6-298 74.9-383.6 8.9-125.9 51.5-206.6 51.5-206.6 0 0 10.6-29.1 40.1-62.4 43.3-48.9 127.3-107.1 278.3-95.7 151 11.4 225.4 81.5 260.9 136.4 24.1 37.3 30.3 67.6 30.3 67.6 0 0 29.9 86.3 19.9 212 44.8 93.4 79.5 260.8 16.6 390.5z"/>
						</g>
						<g id="&lt;Group&gt;">
							<path id="&lt;Path&gt;" class="s5" d="m1939.1 1698.9c-233.1 17.2-407.6-27.7-532.4-97.4 47.9-41.7 127.4-80.8 253.7-71.3 151.1 11.4 225.4 81.4 260.9 136.4 7.6 11.7 13.4 22.7 17.8 32.3z"/>
						</g>
					</g>
					<g id="&lt;Group&gt;">
						<path id="&lt;Path&gt;" class="s5" d="m1988.1 2336.7c-10 20.6-22.4 40.2-37.7 58.5l-157.8 98.1c-41.9 19.4-112.7 36.6-207 29.4-94.3-7.1-161.7-34.6-200.3-60.1l-141.3-120.7c-12.3-20.3-21.7-41.6-28.4-63.4 69.7 61.5 188.3 130.2 377.5 144.5 189.3 14.2 316.8-35.9 395-86.3z"/>
					</g>
					<g id="&lt;Group&gt;">
						<g id="&lt;Group&gt;">
							<g id="&lt;Group&gt;">
								<path id="&lt;Path&gt;" class="s2" d="m1244 2341.9c-28.1-29.4-44.4-68.9-51.3-108.8-19.5-120.9 19.2-245.6 87.1-345.5 0 0-2.2 6.4-2.2 6.4 1.1-9.1 1.9-18.1 3.3-27.1 9.4-62.3 27.3-125 61.1-178.6-17.3 50.3-28 102.5-34.3 155.1-2.1 17.5-3.2 34.9-4.2 52.4-0.2 2.2-0.9 4.2-2 6-20.9 32.1-37.8 67.1-51.4 103.1-43.7 115.7-47.8 220.1-6.1 337z"/>
							</g>
						</g>
						<g id="&lt;Group&gt;">
							<g id="&lt;Group&gt;">
								<path id="&lt;Path&gt;" class="s2" d="m1950.4 2395.2c18.1-35.1 33-69.7 43.4-107.2 29.3-110.6 10.8-232.2-34-336.2-1.1-2-1.6-4.4-1.3-6.6 1.2-9.2 2.3-18.5 3.3-27.7 3.1-28.3 5.3-55.9 8.7-84.6 11.9 36.9 15.1 75.8 13.9 114.4l-1.3-6.7c52.2 109 71.8 238 34.4 354.7-12.8 38.3-34.9 75-67.1 99.9z"/>
							</g>
						</g>
						<g id="&lt;Group&gt;">
							<path id="&lt;Path&gt;" class="s2" d="m1385.3 2462.6c117.3 52.9 283.4 65.4 407.3 30.7-110.3 68.6-308.4 53.7-407.3-30.7z"/>
						</g>
					</g>
					<g id="&lt;Group&gt;">
						<path id="&lt;Path&gt;" class="s0" d="m1591.3 2446.7c-254-19.1-352.5-161.7-314.9-357.8 20.5-106.8 86-191.1 86-191.1-30.7-221.7 179.8-259 283.2-171.5 115.4-71 317.9-2.6 254.3 212 0 0 52.1 93.2 56.4 201.8 7.9 199.5-111 325.8-365 306.6z"/>
					</g>
					<g id="&lt;Group&gt;">
						<path id="&lt;Path&gt;" class="s1" d="m1832.9 2403.9c-59 34.7-139.4 50.6-241.6 42.9v-0.1c-102.2-7.7-179.2-35.4-232.4-78.5 62.1 26.8 139.3 47.6 234.2 54.8 94.9 7.1 174.4-1.9 239.8-19.1z"/>
					</g>
					<g id="&lt;Group&gt;">
						<path id="&lt;Path&gt;" class="s2" d="m1503.3 1849c-0.9 12.1-11.4 21.2-23.5 20.3-12.1-0.9-21.2-11.5-20.3-23.5 1-12.1 11.5-21.2 23.6-20.3 12.1 0.9 21.1 11.5 20.2 23.5z"/>
					</g>
					<g id="&lt;Group&gt;">
						<path id="&lt;Path&gt;" class="s2" d="m1812.3 1872.3c-0.9 12.1-11.4 21.2-23.5 20.3-12.1-0.9-21.2-11.5-20.2-23.6 0.9-12 11.4-21.1 23.5-20.2 12.1 0.9 21.1 11.5 20.2 23.5z"/>
					</g>
					<g id="&lt;Group&gt;">
						<g id="&lt;Group&gt;">
							<path id="&lt;Path&gt;" class="s0" d="m1578.4 2235.4c5.6-35.5 35.1-60.2 65.8-55.4 30.7 4.9 51.1 37.6 45.5 73-5.6 35.4-35.1 60.2-65.8 55.3"/>
						</g>
						<g id="&lt;Group&gt;">
							<path id="&lt;Path&gt;" class="s1" d="m1689.7 2253c-5.6 35.4-35.1 60.2-65.8 55.3 0 0-18.2-2.8-32.3-25.5-14.2-22.6-13.2-47.5-13.2-47.5 1.9-11.4 6.2-21.8 12.3-30.4-9.4 32.9 2.4 65.5 27.8 74.6 26.8 9.6 58.7-10.7 71.1-45.4q0.3-0.7 0.5-1.4c0.8 6.5 0.7 13.3-0.4 20.3z"/>
						</g>
						<g id="&lt;Group&gt;">
							<path id="&lt;Path&gt;" class="s2" d="m1578.4 2235.4c-2.2-65.2 79.8-93.1 113.9-34.6 25.2 42 0.7 106.5-49.9 110.4-6.5 0.3-12.8-0.7-18.5-2.9 12.2-0.9 22.9-5.1 31.2-12.1 24.3-19.2 30.8-57.6 15.9-83.1-26.7-43.8-78.2-18.9-92.6 22.3z"/>
						</g>
						<g id="&lt;Group&gt;">
							<g id="&lt;Group&gt;">
								<path id="&lt;Path&gt;" class="s2" d="m1653.8 2261.5c-1.9 0.6-5.6-4-16.5-13.1-13.3 5.2-20.7 8-22.4 6.9-1.7-1.2 2.3-8.5 15.1-13.4-10.1-11.3-10.8-24.2-8.9-24.4 1.9-0.1 7 11.6 18 20.8 13.3-5.2 19.2-15.4 20.9-14.6 1.6 0.9-1.4 13.2-13.7 20.9 9.6 8.6 9.3 16.4 7.5 16.9z"/>
							</g>
						</g>
					</g>
				</g>
				<g id="&lt;Group&gt;">
					<g id="&lt;Group&gt;">
						<g id="&lt;Group&gt;">
							<g id="&lt;Group&gt;">
								<path id="&lt;Path&gt;" class="s0" d="m1321.4 1015.2c7-26.2 6.1-39.5-4-138.1-12.5-121.7-155.4-133.9-210.1-51.1-59.7 90.5-32.5 291.1 141.5 302.1 0 0 50.3-30.6 72.6-112.9z"/>
							</g>
							<g id="&lt;Group&gt;">
								<path id="&lt;Path&gt;" class="s0" d="m1321.4 1015.2c-4.4 16-9.8 30.1-15.7 42.4-24.3 50.7-56.9 70.5-56.9 70.5-94.8-6-146-68.2-163.3-138.2-14.6-58.6-5.4-122.7 21.8-163.9 54.7-82.8 197.6-70.6 210.1 51.1 10.2 98.6 11 112 4 138.1z"/>
							</g>
							<g id="&lt;Group&gt;" style="opacity: .3">
								<path id="&lt;Path&gt;" class="s4" d="m1324.9 998.2c-0.8-18.9-3.5-46.3-8.3-92.3-12.5-121.7-155.4-133.9-210-51.1-15.4 23.3-25 53.8-27.8 86.5-1.5-43.3 8.7-85.3 28.5-115.3 54.7-82.8 197.6-70.6 210.1 51.1 7.8 76.1 10.1 101.4 7.5 121.1z"/>
							</g>
							<g id="&lt;Group&gt;">
								<path id="&lt;Path&gt;" class="s1" d="m1305.7 1057.6c-24.3 50.7-56.9 70.5-56.9 70.5-94.8-6-146-68.2-163.3-138.2 18.6 29.3 38.7 45.9 59.9 37.7 20.6-8-20.2-33.9-21.3-86.4-0.7-33.6-5.7-67.8 40.7-92.1 30.8-16.1 90.9 23.6 106.8 99.6 5.4 25.8 21.6 73.6 34.1 108.9z"/>
							</g>
							<g id="&lt;Group&gt;">
								<path id="&lt;Compound Path&gt;" fill-rule="evenodd" class="s2" d="m1248.8 1140.5q-0.4 0-0.8-0.1c-71.3-4.5-127.4-40.8-157.9-102.1-34.3-68.9-31.4-161 6.9-219.1 30.4-46 87.1-68 141.2-54.8 51.4 12.6 85.6 54.3 91.5 111.4 9.9 96.9 11.4 113.8 3.6 142.6-23.4 86-75.8 118.9-78.1 120.3-1.9 1.1-4.1 1.8-6.4 1.8zm-41.4-355.1c-35.5 0-70.1 17.6-89.8 47.4-33.3 50.4-35.6 134-5.4 194.6 18.3 36.9 56.3 81.7 133.2 88.1 10.5-7.9 46.5-38.8 64.1-103.6 6.3-23.3 6-33.3-4.3-133.5-4.9-47.1-31.4-79.9-72.9-90.1-8.2-2-16.6-2.9-24.9-2.9z"/>
							</g>
							<g id="&lt;Group&gt;">
								<path id="&lt;Path&gt;" class="s2" d="m1127.3 890.1c4.7-25.8 29.4-47.9 56.5-48.8 29.5-1.4 52.1 23.6 63.5 48.3 7.9 16.5 12.9 33.9 16.5 51.4l-24.4 3.5c-1.3-16.4-4.1-32.6-9.2-47.8-9.3-31-36.2-57-69.9-42.2-14.9 6.3-27.9 19.2-33 35.6z"/>
							</g>
							<g id="&lt;Group&gt;">
								<path id="&lt;Path&gt;" class="s2" d="m1124.1 941.2c6.1 55.9 56.1 101 99.9 45.9 4.7-5.4 8.7-11.5 12.7-17.6l19.9 14.5c-10.9 12.8-22.8 24.8-37.7 33.3-55 32.1-97-24.4-94.8-76.1z"/>
							</g>
							<g id="&lt;Group&gt;">
								<path id="&lt;Path&gt;" class="s0" d="m1210.5 1017.3c0 0-48.8-30.9-40.1-67.5 9-37.9 61.7-24.8 61.7-24.8"/>
								<path id="&lt;Path&gt;" class="s2" d="m1207.2 1022.5c-2.2-1.3-52.4-33.7-42.8-74.1 2.5-10.7 8.3-18.9 17.3-24.3 20.6-12.6 50.6-5.4 51.9-5l-3 11.9c-0.2-0.1-26.4-6.3-42.6 3.6-6 3.7-9.9 9.2-11.6 16.7-7.6 31.8 36.9 60.6 37.4 60.8z"/>
							</g>
						</g>
						<g id="&lt;Group&gt;">
							<g id="&lt;Group&gt;">
								<path id="&lt;Path&gt;" class="s0" d="m2279.1 1152.9c0.6-27 5.2-39.6 42.7-131.3 46.3-113.3 186.9-84.7 216 10.1 31.8 103.7-50.8 288.5-220.9 250 0 0-39.6-43.5-37.8-128.8z"/>
							</g>
							<g id="&lt;Group&gt;">
								<path id="&lt;Path&gt;" class="s0" d="m2279.1 1152.9c-0.3 16.7 0.9 31.7 3.1 45.1 9.1 55.5 34.7 83.7 34.7 83.7 92.6 21 159.3-24.3 195.7-86.6 30.5-52.1 39.7-116.1 25.2-163.4-29.1-94.8-169.6-123.4-215.9-10.1-37.6 91.7-42.2 104.3-42.8 131.3z"/>
							</g>
							<g id="&lt;Group&gt;" style="opacity: .3">
								<path id="&lt;Path&gt;" class="s4" d="m2280.5 1135.6c6.1-17.8 16.5-43.4 34-86.2 46.2-113.2 186.8-84.6 215.9 10.2 8.2 26.6 8.8 58.6 2.3 90.8 13.6-41.1 15.6-84.3 5.1-118.7-29.1-94.8-169.6-123.4-215.9-10.1-29 70.8-38.4 94.4-41.4 114z"/>
							</g>
							<g id="&lt;Group&gt;">
								<path id="&lt;Path&gt;" class="s1" d="m2282.2 1198c9.1 55.5 34.7 83.7 34.7 83.7 92.6 21 159.3-24.3 195.7-86.6-26.2 22.9-50.1 33.2-68.1 19.3-17.5-13.4 28.9-26.8 44.8-76.8 10.1-32.1 24.6-63.5-13.2-99.9-25-24.1-93.8-2.9-130.4 65.4-12.5 23.3-41.5 64.6-63.5 94.9z"/>
							</g>
							<g id="&lt;Group&gt;">
								<path id="&lt;Compound Path&gt;" fill-rule="evenodd" class="s2" d="m2361.1 1299.2c-15.2 0-30.9-1.8-46.9-5.4-2.5-0.6-4.7-1.9-6.4-3.8-1.8-1.9-42.9-48.2-41-137.4q0 0 0 0c0.6-29.8 6.8-45.6 43.6-135.7 21.8-53.2 66.2-83.5 119.2-81.1 55.6 2.5 103.8 39.6 120 92.3 20.4 66.5-2.8 155.8-55.1 212.2-35.9 38.7-82.1 58.9-133.4 58.9zm-37.3-28.6c75.5 15.5 124.6-16.8 152.6-47 46-49.6 67.3-130.6 49.6-188.2-12.9-42.2-53-73-97.5-75-42.5-1.9-77.4 22-95.3 65.8-38.1 93.3-41.2 102.8-41.8 127-1.4 67 24.4 106.8 32.4 117.4z"/>
							</g>
							<g id="&lt;Group&gt;">
								<path id="&lt;Path&gt;" class="s2" d="m2500.5 1087.6c0.2-32.5-33.8-64-65.3-52.3-14.4 5.1-26.1 16.5-35.2 29.6-9.2 13.2-16.4 27.9-22.3 43.3l-22.4-10.3c8.3-15.7 18.1-31 30.3-44.6 17.8-20.5 46.6-38.1 74.5-28.4 25.7 8.4 43.3 36.6 40.4 62.7z"/>
							</g>
							<g id="&lt;Group&gt;">
								<path id="&lt;Path&gt;" class="s2" d="m2489.2 1137.5c-12.4 50.2-68.7 92.6-112.4 46.3-11.9-12.3-19.9-27.2-26.8-42.5l23.2-8.4c2.1 7 4.3 14 7.3 20.5 26.5 65.2 87.2 36 108.7-15.9z"/>
							</g>
							<g id="&lt;Group&gt;">
								<path id="&lt;Path&gt;" class="s0" d="m2384.9 1186.2c0 0 55.5-15.9 57.5-53.4 2.1-38.9-52.2-41.2-52.2-41.2"/>
								<path id="&lt;Path&gt;" class="s2" d="m2386.6 1192.2l-3.4-11.9c0.5-0.1 51.3-15.2 53.1-47.8 0.4-7.8-1.7-14.1-6.5-19.3-12.8-14.1-39.6-15.5-39.9-15.5l0.5-12.3c1.3 0.1 32.2 1.6 48.5 19.5 7 7.7 10.2 17.2 9.7 28.2-2.2 41.5-59.6 58.4-62 59.1z"/>
							</g>
						</g>
						<g id="&lt;Group&gt;">
							<path id="&lt;Path&gt;" class="s3" d="m1918.6 261.1c355.9 51.2 482 296.8 503.1 458.2 24.4 186.6-52.2 324.4-40.6 435.5 117.1 551.1-476.7 504.3-659.8 477.9-183-26.3-765.9-148.7-498.3-644.5 42.4-103.3 7.8-257.1 83.8-429.2 65.7-148.9 256-349.1 611.8-297.9z"/>
						</g>
						<g id="&lt;Group&gt;" style="opacity: .3">
							<path id="&lt;Path&gt;" class="s4" d="m2416.4 910.5c6-48.5 8-101 0.5-158-21-161.4-147.2-407.1-503.1-458.3-355.8-51.2-546.1 149-611.8 297.9-23.2 52.7-36.1 103.5-44 151.8 7.3-57.9 20.2-120.1 48.8-184.9 65.7-148.9 256-349.1 611.8-297.9 355.9 51.1 482 296.8 503.1 458.3 9.2 70.2 4.1 133.5-5.3 191.1z"/>
						</g>
						<g id="&lt;Group&gt;">
							<path id="&lt;Path&gt;" class="s5" d="m1721.3 1632.8c-166.1-23.9-661.4-126.9-551.7-516.2 2.3 300.2 322.2 403 563 437.6 240.9 34.6 576.7 26.1 663.6-261.2-4.5 404.4-508.8 363.7-674.9 339.8z"/>
						</g>
						<g id="&lt;Group&gt;">
							<path id="&lt;Path&gt;" class="s1" d="m2122.3 1545.2c-142.9 102.5-395.7 51.1-395.7 51.1 0 0-257-22-365.3-160.6 109.5 68.9 250.3 103.7 371 121 120.6 17.4 265.5 23.7 390-11.5z"/>
						</g>
						<g id="&lt;Group&gt;">
							<path id="&lt;Compound Path&gt;" fill-rule="evenodd" class="s9" d="m1909.5 1658.9c-76.3 0-144.5-7.4-189.9-14-130.6-18.7-445.2-84.1-546-284.4-53-105.1-40.1-232.1 38.3-377.5 17.1-42.1 21-93.4 25.6-152.6 6.4-82.3 13.5-175.6 58-276.4 23.6-53.5 81.3-154.6 201.9-229.5 118.4-73.5 260.7-98.9 423-75.6 162.2 23.3 291.6 87.8 384.5 191.8 94.6 105.8 121.5 219 129 277.1 14.3 109.2-5.1 200.7-22.2 281.4-12.3 58.2-23 108.5-18.4 153.7 34.2 161.6 10.8 287.1-69.6 373-100 106.9-271.1 133-414.2 133zm-103.3-1393.9c-337.7 0-464.5 245.3-488.2 299-42.7 96.9-49.7 187.9-55.9 268.3-4.8 61.6-8.9 114.8-27.7 160.6q-0.2 0.6-0.5 1.2c-74.6 138.1-87.5 257.7-38.3 355.3 95.6 190 400.8 252.9 527.5 271.2 126.8 18.2 437.2 43.8 582.6-111.5 74.7-79.8 96-198.2 63.3-351.8q-0.1-0.6-0.2-1.3c-5.1-49.2 6-101.4 18.8-161.9 16.7-78.8 35.6-168.1 21.9-273.2-8.4-64.1-71.5-387.1-492.6-447.6-39.2-5.7-76.1-8.3-110.7-8.3z"/>
						</g>
						<g id="&lt;Group&gt;">
							<path id="&lt;Path&gt;" class="s0" d="m1850.9 732.2c63.9 9.2 133.4-87.1 278.1-43.2 126.1 38.2 178.3 182.4 162.5 287-24.5 161.8-137.9 226.7-137.9 226.7 0 0 159.9 115.7 23.3 293.6-125.8 164-450 98.1-450 98.1 0 0-329.7-28.2-404.2-220.9-80.9-209.2 105.1-275.2 105.1-275.2 0 0-90.5-94.2-68.4-256.4 14.3-104.7 105-228.4 236.8-229.6 151.2-1.3 190.7 110.7 254.7 119.9z"/>
						</g>
						<g id="&lt;Group&gt;">
							<path id="&lt;Path&gt;" class="s0" d="m1850.9 732.2c63.9 9.2 133.4-87.1 278.1-43.2 126.1 38.2 178.3 182.4 162.5 287-24.5 161.8-137.9 226.7-137.9 226.7 0 0 159.9 115.7 23.3 293.6-125.8 164-450 98.1-450 98.1 0 0-329.7-28.2-404.2-220.9-80.9-209.2 105.1-275.2 105.1-275.2 0 0-90.5-94.2-68.4-256.4 14.3-104.7 105-228.4 236.8-229.6 151.2-1.3 190.7 110.7 254.7 119.9z"/>
						</g>
						<g id="&lt;Group&gt;">
							<path id="&lt;Path&gt;" class="s1" d="m2122.6 1543.3c-142.9 102.4-395.7 51.1-395.7 51.1 0 0-257.1-22-365.3-160.6 109.5 68.9 250.3 103.7 370.9 121 120.7 17.4 265.6 23.7 390.1-11.5z"/>
						</g>
						<g id="&lt;Group&gt;">
							<path id="&lt;Compound Path&gt;" fill-rule="evenodd" class="s10" d="m1874.5 1620.2c-78.2 0-140.3-11.8-149.4-13.6-21.6-1.9-338.5-33.6-413.9-228.7-26.9-69.5-28.3-131.5-4-184.3 26.2-57.1 75.4-87.5 100.7-100-24.4-32-78.9-120.3-60.7-253.3 15.6-114.7 115.2-239.1 248.9-240.3q1.4 0 2.7 0c98 0 152.3 46.9 192 81.2 22.3 19.3 41.6 35.9 61.8 38.8 20.2 2.9 43.4-7.6 70.3-19.8 48.2-22 114.2-52 209.7-23 127.9 38.8 188.4 186.2 171.1 300.6-20.1 132.8-97.2 202.2-129.6 226 20.7 19.1 59.3 62.1 68.4 124.4 8.4 57.4-10.4 116.5-55.8 175.6-73 95.1-207.1 116.4-312.2 116.4zm-275.7-995.6q-1.2 0-2.5 0.1c-120.5 1-210.5 114.4-224.7 218.9-21 153.9 64.2 245.3 65.1 246.2 2.9 3 4 7.3 3.1 11.4-1 4-4 7.3-7.9 8.7-0.7 0.3-71.4 26.3-102.5 94.3-21.2 46.4-19.6 101.8 4.8 164.9 70.9 183.4 390.5 212.8 393.7 213q0.7 0.1 1.4 0.2c3.2 0.7 318.2 62.4 437.8-93.5 41.2-53.7 58.4-106.5 51-157.1-10.8-74.2-71.1-118.6-71.7-119-3.4-2.5-5.3-6.5-5.1-10.7 0.2-4.1 2.6-7.9 6.2-10 1.1-0.6 108.6-64.3 131.8-217.9 15.8-104.2-38.6-238.4-153.9-273.4-86.5-26.2-145.2 0.5-192.3 21.9-30.4 13.8-56.6 25.7-84 21.8-27.3-3.9-49.1-22.8-74.4-44.6-38.8-33.5-87.1-75.2-175.9-75.2z"/>
						</g>
						<g id="&lt;Group&gt;">
							<path id="&lt;Path&gt;" class="s3" d="m2120.7 365.9c28.9-30.7 100.2-16 87.5-45.8-25.4-59.7-161.2-48-158-56.4 25.5-67 7-122.8-25.4-120.5-9.6 0.7-107.3 76.8-238.3 104.4-37.2 5.2-146.1 13.5-251 69.3z"/>
						</g>
						<g id="&lt;Group&gt;">
							<path id="&lt;Path&gt;" class="s3" d="m2120.7 365.9l-526.6-44.1-58.6-4.9c104.9-55.9 213.8-64.1 251-69.3 131-27.6 228.7-103.7 238.3-104.4 14.3-1 25.9 9.3 32.2 26.9 8 22.2 7.5 56.1-6.8 93.6-3.2 8.4 132.6-3.3 158 56.5 12.7 29.7-58.7 15-87.5 45.7z"/>
						</g>
						<g id="&lt;Group&gt;" style="opacity: .3">
							<path id="&lt;Path&gt;" class="s4" d="m2057 170.1c-42.4-17.4-103.6 86.2-259.8 105.5-140.1 17.3-201.3 45.3-203.1 46.2l-58.6-4.9c104.9-55.9 213.8-64.1 251-69.3 131-27.6 228.7-103.7 238.3-104.4 14.3-1 25.9 9.3 32.2 26.9z"/>
						</g>
						<g id="&lt;Group&gt;">
							<path id="&lt;Path&gt;" class="s2" d="m2120.7 365.9c10.6-18.1 33.3-25.9 52.1-31.7 5.7-2 20.1-5.6 24.3-9 1-0.7 1-1.2 0.3-0.4-0.7 0.9-0.8 2.2-0.8 1.8l-0.5-1.1c-8.2-17.1-25.5-27.2-46.3-33.4-29.5-9-61.8-10.3-93-13.3-4.1-0.7-6.9-0.8-11.2-2.8-1-0.5-2.5-1.1-4.8-3.8-1.9-1.9-3.7-7.4-2.7-10.7 0.6-2.5 0.7-2.3 1.2-3.9 7.5-20.2 11.9-42.7 10.1-63.6-1.3-14.8-6.9-38.5-23.6-38.5-0.3 0.1 1.9-0.3 1.6-0.3 0.3-0.1 0.4-0.1 0.3 0-13.2 7-26.5 16-39.7 23.5-60.4 35.7-125.7 64.9-194.6 80-9.5 2.1-20.9 3-30.3 4.3-77 9.3-153.2 28.5-221.8 64.8 0 0-11.6-21.8-11.6-21.8 76.2-40.5 160.8-60 245-69.3 14.4-1.5 27.6-5.3 41.6-9.1 56-15.7 108.9-40.5 159.2-70.1 15.3-8.4 28.7-19 45.2-25.9 12.3-2.9 26.6 3.1 34.6 12 28 32.8 20.8 81.6 8.5 118.9-0.6 1.1-1.6 4.3-2 5.5 0.2-0.4 1-4 0.6-5.5-0.3-4.3-4.4-8.3-6.4-8.8 3.4 0.7 7 1 10.8 1.3 47.1 4.4 115.1 7.2 147 48 11 14.4 13.9 34.8-4.7 43.8-29.4 11.9-60.9 1.9-88.4 19.1z"/>
						</g>
						<g id="&lt;Group&gt;">
							<path id="&lt;Path&gt;" class="s0" d="m1859.9 1123.2c0 0-6.5-2.3-14.1 2.9-7.3 5-28.6 29.3-55.3 25.5-26.6-3.9-40.2-33.2-45.8-40-5.8-7.2-12.8-6.8-12.8-6.8z"/>
						</g>
						<g id="&lt;Group&gt;">
							<g id="&lt;Group&gt;">
								<path id="&lt;Path&gt;" class="s0" d="m1856.4 1159.9c0 0 38.9 2.9 45-26.1 7.4-35.3-24.4-61.9-42.5-64.4-29-4-48.5 26.2-60.1 24.5-11.5-1.6-21.7-36.1-50.7-40.4-18.1-2.7-56 13.8-58.9 49.8-2.3 29.5 35.8 37.7 35.8 37.7 0 0 24.9 21.9 63.1 27.4 38.3 5.5 68.3-8.5 68.3-8.5z"/>
							</g>
							<g id="&lt;Group&gt;" style="opacity: .3">
								<path id="&lt;Path&gt;" class="s4" d="m1901.4 1133.8q-0.6 2.8-1.5 5.1c-1.3-28.8-27.7-49.5-43.5-51.7-29.1-4-28.9 27.8-60 23.4-31-4.5-21.8-35-50.9-39.3-15.8-2.4-46.9 10-56.3 37.3q-0.2-2.5 0-5.3c2.9-36 40.8-52.5 58.9-49.8 29 4.3 39.2 38.8 50.7 40.4 11.6 1.7 31.1-28.5 60.1-24.5 18.1 2.5 49.9 29.1 42.5 64.4z"/>
							</g>
							<g id="&lt;Group&gt;">
								<path id="&lt;Path&gt;" class="s2" d="m1856.4 1159.9c27.7-1.8 47.3-16.6 38.9-46-5.4-18.1-23.8-37.6-43.8-36.1-14.1 1.1-26.9 13.1-38.8 20.9-8.3 5.7-18 6.4-25.6-1.1-12.2-12.3-21.2-31.8-39.1-35.5-25.6-3.3-53.6 19.3-54.2 45.6-0.3 16.6 16.7 27.8 31.2 33.3-49.7-6.2-52-55.5-16.3-82.9 15.8-12.1 38.9-18.2 57.3-7.5 15.1 7.9 24.3 24 34.2 34.2 12.2-6.9 25.8-20 42.4-23.1 20.6-5.1 41 7.2 52.8 23.2 26.4 36.4 10.5 83-39 75z"/>
							</g>
							<g id="&lt;Group&gt;">
								<path id="&lt;Path&gt;" class="s2" d="m1859.9 1123.2c-14-0.3-19.4 15-30.2 21.8-24.5 20.7-57.2 16-74.9-10.8-6.3-7.7-8.7-17.5-14.8-24.8-2.1-2.2-4.8-3.9-8-4.6 3.2-0.7 6.9 0.1 10 1.8 8.5 5.3 13.2 15 20.2 21.5 17.3 19.7 40 23 62.2 9 10.8-5.2 22.1-20 35.5-13.9z"/>
							</g>
						</g>
						<g id="&lt;Group&gt;">
							<g id="&lt;Group&gt;">
								<g id="&lt;Group&gt;">
									<path id="&lt;Path&gt;" class="s2" d="m1695 979.4c-11.1 77.4-74.5 132.4-141.6 122.8-67.1-9.6-112.5-80.2-101.4-157.6 11.1-77.5 74.5-132.5 141.6-122.9 67.1 9.6 112.5 80.2 101.4 157.7z"/>
								</g>
							</g>
							<g id="&lt;Group&gt;">
								<g id="&lt;Group&gt;">
									<path id="&lt;Path&gt;" class="s11" d="m1652 931.8c-4 27.7-25 47.6-46.8 44.5-21.9-3.2-36.4-28.2-32.5-55.8 4-27.7 25-47.6 46.8-44.5 21.9 3.1 36.4 28.1 32.5 55.8z"/>
								</g>
							</g>
							<g id="&lt;Group&gt;" style="opacity: .2">
								<g id="&lt;Group&gt;">
									<path id="&lt;Path&gt;" class="s4" d="m1543.4 1005.8c-2.7 18.8-14.7 32.6-26.8 30.8-12.1-1.7-19.8-18.3-17.1-37 2.7-18.8 14.7-32.6 26.8-30.8 12.1 1.7 19.8 18.3 17.1 37z"/>
								</g>
							</g>
						</g>
						<g id="&lt;Group&gt;">
							<g id="&lt;Group&gt;">
								<g id="&lt;Group&gt;">
									<path id="&lt;Path&gt;" class="s2" d="m1930.8 1013.4c-11.2 77.3 34 147.9 101 157.5 66.9 9.7 130.3-45.1 141.4-122.5 11.2-77.3-34-147.8-101-157.5-66.9-9.6-130.3 45.2-141.4 122.5z"/>
								</g>
							</g>
							<g id="&lt;Group&gt;">
								<g id="&lt;Group&gt;">
									<path id="&lt;Path&gt;" class="s11" d="m1985.4 980c-4 27.6 10.4 52.6 32.3 55.7 21.8 3.2 42.7-16.7 46.7-44.3 4-27.6-10.5-52.6-32.3-55.7-21.8-3.2-42.7 16.7-46.7 44.3z"/>
								</g>
							</g>
							<g id="&lt;Group&gt;" style="opacity: .2">
								<g id="&lt;Group&gt;">
									<path id="&lt;Path&gt;" class="s4" d="m2068.5 1081.5c-2.7 18.7 5 35.2 17 37 12.1 1.7 24.1-12 26.8-30.7 2.7-18.7-4.9-35.3-17-37.1-12.1-1.7-24.1 12-26.8 30.8z"/>
								</g>
							</g>
						</g>
					</g>
					<g id="&lt;Group&gt;">
						<g id="&lt;Group&gt;">
							<path id="&lt;Path&gt;" class="s2" d="m1748.2 1446.2c186.9 27 235.5-170.7 235.5-170.7 0 0-72.5 55.1-215.8 34.4-143.3-20.7-197.3-94.1-197.3-94.1 0 0-9.3 203.4 177.6 230.4z"/>
						</g>
						<g id="&lt;Group&gt;">
							<path id="&lt;Path&gt;" class="s12" d="m1884 1419.6c-34 22-78.3 34.9-135.8 26.6-57.5-8.3-96.4-33.3-122.7-63.9 20.5-20 49.8-30.6 80.5-26.2 20.1 2.9 37.8 11.9 51.6 24.9 16.9-8.6 36.5-12.1 56.6-9.2 30.6 4.4 55.7 22.8 69.8 47.8z"/>
						</g>
						<g id="&lt;Group&gt;">
							<path id="&lt;Compound Path&gt;" fill-rule="evenodd" class="s2" d="m1783.3 1461.1c-11.7 0-23.9-0.9-36.9-2.7-195.6-28.3-188.2-241-188.1-243.2 0.2-5.2 3.7-9.7 8.7-11.2 5-1.5 10.4 0.3 13.5 4.5 0.5 0.7 53.4 69.6 189.1 89.2 135.7 19.6 206-31.6 206.7-32.1 4.2-3.1 9.9-3.3 14.2-0.4 4.4 2.9 6.4 8.1 5.2 13.2-2 8-47 182.7-212.4 182.7zm-33.3-27.1c132.8 19.2 191.1-80.9 212-132.5-34.7 15.5-100 34.5-195.9 20.6-95.8-13.8-153.1-50.5-182-75.1 5.6 55.4 33.3 167.8 165.9 187z"/>
						</g>
						<g id="&lt;Group&gt;">
							<path id="&lt;Path&gt;" class="s2" d="m1807.5 1371.1c-9.1-0.4-42.3 2.6-52.9 30.6-2.2-29.8-33.2-42.1-42-44.3l13.9-27.6 36.2 16.1 39.3-5.2z"/>
						</g>
						<g id="&lt;Group&gt;">
							<path id="&lt;Path&gt;" class="s2" d="m1960.4 1250.1c29.6-11.6 62.5 24.2 41.7 51.1-4.7-10.3-8.4-20.5-16.1-28.5-7.6-8.4-16.2-14.4-25.6-22.6z"/>
						</g>
						<g id="&lt;Group&gt;">
							<path id="&lt;Path&gt;" class="s2" d="m1600.2 1197.1c-11.3 5.3-21.3 8.6-30.9 14.5-9.6 5.5-16 14.2-23.5 22.7-12.3-31.6 29.3-56.7 54.4-37.2z"/>
						</g>
					</g>
				</g>
				<g id="&lt;Group&gt;">
					<g id="&lt;Group&gt;">
						<g id="&lt;Group&gt;">
							<path id="&lt;Path&gt;" class="s0" d="m495.4 965.1c-29.9-80.2-50.3-263 82.7-283.3 48.3-5 71.1 17.4 67.8 56-4.3 49.7-33.5 125.1 6.9 180.7 76.8 106 98.2 164.4 57.1 308 0 0 9.5 94.6-17 158.2-28.4 68.1-122.1 135.7-314.5 95.1-60.1-15.2-93.1-62.1-75.2-126.1-29.4-20.3-76-92.1-17.5-177.7-32.9-24.4-58.5-111.4 9.1-167.8 56.9-47.3 200.6-43.1 200.6-43.1z"/>
						</g>
						<g id="&lt;Group&gt;">
							<path id="&lt;Path&gt;" class="s1" d="m535.3 1190.3c-64.5 9.9-224.5-1.5-249.3-62.9-13.3-32.8 121.5 39.9 281-0.4 26-6.6 13.8 47.2-31.7 63.3z"/>
						</g>
						<g id="&lt;Group&gt;">
							<path id="&lt;Path&gt;" class="s1" d="m535.5 1334.2c-117.1 26.9-239.5-9.1-243.5-52.7-2.4-25.2 133.4 36.1 277.4-12.7 14.6-5-0.2 47-33.9 65.4z"/>
						</g>
						<g id="&lt;Group&gt;">
							<path id="&lt;Path&gt;" class="s1" d="m548.2 1445.3c-75.5 41.8-214 1.2-217.6-37.8-2.1-22.5 119.3 32.3 247.9-11.4 13.1-4.4-2 33.6-30.3 49.2z"/>
						</g>
						<g id="&lt;Group&gt;">
							<path id="&lt;Path&gt;" class="s1" d="m722.5 1176.2c-0.1 0-0.1 0.1-0.1 0.1-3.2 15.6-7.4 32.2-12.5 50.2 0 0 9.5 94.6-17 158.2-22.2 53-83.9 105.8-201 107.3 152.5-25.2 137.6-137.9 82.7-166.9 54.9-35.7 46.5-106.2 9.3-145.1 40.9-36.4 47.2-122.7-50.2-155.4 92.6 22.7 209.4-27.5 188.8 151.6z"/>
						</g>
						<g id="&lt;Group&gt;">
							<path id="&lt;Path&gt;" class="s2" d="m380.4 1467.5c61.8 13.9 163.7 19.3 208.3-33.2 27.1-32.9 18.8-82.1-18.6-103.2 0 0-17.1-10.3-17.1-10.3l16.9-10.7c18.4-12 31.4-35.7 32-58 1.4-29-17.3-54.1-36.6-74.5 0 0 12.2-8.2 12.2-8.2 23.3-21.4 29.4-61.9 15.5-90.5-17.1-34.2-54.4-49.5-89.7-60.7 67.4-2.5 134.3 38.8 123 114.3-4.4 23.1-14.2 45.2-36 58 0 0 2.7-18.8 2.7-18.8 19.8 21.9 34.8 50.7 33.5 81.3-1.4 31.3-17.1 60.3-43.6 78 0 0-0.2-21-0.2-21 31.1 17.6 51.3 54.9 46 90.9-18.1 111.1-169.2 110.1-254.5 90.5-15.9-4.4-10-27.8 6.2-23.9z"/>
						</g>
						<g id="&lt;Group&gt;">
							<path id="&lt;Path&gt;" class="s2" d="m396.2 1183.9c44.6 4.1 169.7 12.6 194.5-29.6 7.1-14.7 28.9-4.7 22.4 10.3-32.5 55.1-163.9 30-216.9 19.3z"/>
						</g>
						<g id="&lt;Group&gt;">
							<path id="&lt;Path&gt;" class="s2" d="m396.2 1338.8c58.2 4.5 145.6 3.7 187.9-41.4 11-11.9 28.9 4 18.4 16.4-52.3 46.5-142.7 37.5-206.3 25z"/>
						</g>
						<g id="&lt;Group&gt;">
							<path id="&lt;Compound Path&gt;" fill-rule="evenodd" class="s2" d="m485.7 1504.2c-32.8 0-69.3-3.8-109.9-12.3l-0.4-0.1c-34.7-8.8-61-27.2-76-53-13.2-23-16.7-50.6-10.1-80.4-32.1-27.5-70.2-97.6-19.6-180.3-17.3-18.1-28.8-47.9-29.7-78.1-1-39.2 15.6-75.1 47-101.2 48-40 150.1-45.6 191.2-46.1-18.6-61-29.7-159.5 7.8-223.3 19.7-33.5 50-53.6 90.2-59.7l0.6-0.1c28.7-3 50.6 2.6 65 16.7 12.6 12.4 18.2 30.6 16.3 52.6-1 12.2-3.4 25.6-6 39.8-8 44.2-17.1 94.3 10.7 132.6 80.3 111 100.4 172.6 59.6 316.4 1.3 15.7 7.2 101-18.2 161.7-25.1 60.3-94.8 114.8-218.5 114.8zm-104.5-36.4c178.7 37.6 272.3-20.7 300.3-87.8 25-60 16.2-151.3 16.1-152.3l-0.2-2.3 0.7-2.3c39.1-136.6 21.5-191.4-55.3-297.3-33.9-46.9-23.4-104.9-15-151.5 2.5-13.6 4.8-26.4 5.8-37.5 1.2-14.7-1.8-25.7-9.1-32.9-8.7-8.5-24.2-12-44.9-9.8-32.3 5-56.7 21.1-72.4 47.8-36.5 62.1-19.5 167.2-0.2 218.9l6.4 17.1-18.3-0.5c-1.4-0.1-139.8-3.5-192.4 40.3-32.5 27.1-38.6 59.4-38 81.7 0.8 30.6 14.9 56.7 28.4 66.7l9.5 7.1-6.7 9.8c-58.2 85-3.5 148.2 14.3 160.5l7.3 5-2.4 8.5c-7.4 26.3-5.4 50.3 5.6 69.4 11.6 20 32.5 34.3 60.5 41.4z"/>
						</g>
					</g>
				</g>
			</g>
		</g>
	</g>
</svg>