<svg version="1.2" xmlns="http://www.w3.org/2000/svg" viewBox="0 0 4000 4000" width="4000" height="4000">
	<title>8600_4_01-ai</title>
	<style>
		tspan { white-space:pre } 
		.s0 { fill: #ffffff } 
		.s1 { fill: #eaeaea } 
		.s2 { fill: #6f6c75 } 
		.s3 { fill: #56545b } 
		.s4 { fill: #323949 } 
		.s5 { fill: #d7d8d8 } 
		.s6 { fill: #585560 } 
		.s7 { fill: #bcb8c4 } 
		.s8 { fill: #4dbaeb } 
		.s9 { fill: #4a7abc } 
		.s10 { fill: #fcd904 } 
		.s11 { fill: #f8af0f } 
		.s12 { fill: #b2b0b7 } 
		.s13 { fill: #97929e } 
	</style>
	<g id="Layer 1">
		<g id="&lt;Group&gt;">
			<g id="&lt;Group&gt;">
				<g id="&lt;Group&gt;">
					<g id="&lt;Group&gt;">
						<path id="&lt;Path&gt;" class="s0" d="m2154.9 2114.9c565.9-101.1 546.3-463.7 791.9-649.5 77.9-58.8 270.7-43.4 273.4 82.7 8.1 375.8-424.7 879.2-929 880"/>
					</g>
					<g id="&lt;Group&gt;">
						<path id="&lt;Path&gt;" class="s1" d="m2285.8 2322.9l5.4 105.1c268.9-0.3 517.4-143.7 689.6-334.4-60.6-11.4-111.3-34.1-142.6-50.8-93.3 133.1-245.2 272.6-552.4 280.1z"/>
					</g>
					<g id="&lt;Group&gt;">
						<path id="&lt;Path&gt;" class="s2" d="m2762.7 1983.4c47.9 56.4 115.8 95.3 188.5 108.3 6.8 1.2 14.1 2.1 20.4-0.7 5.3-2.4 9-7.1 12.6-11.6 36.1-45.9 70.8-93 103.9-141 52.8-76.6 102.9-158.8 116.1-250.9 2-13.9 3.2-28.2 9.2-40.9 6-12.9 16.5-23.2 24.6-34.9 31.9-45.6 25.7-108.3 50.4-158.2 10.7-21.5 27-40.3 34.5-63.1 7.4-22.8 2.3-52.9-19.7-62.6-18.7-8.2-41.3 1.7-60.7-4.6 19.5-22.1 2.2-60.5-25.4-70.7-27.7-10.2-58.7-0.2-84.7 13.5-17.4-12.7-20.5-44-41.9-46.5-8.2-0.9-15.9 3.3-22.9 7.7-39.1 24.8-70.4 61.9-88.3 104.7-1.4 3.3-3.2 7.1-6.7 8-4.5 1.2-8.4-3.2-11.5-6.7-13.8-15.9-36.6-23.3-57.1-18.6-20.5 4.8-37.8 21.4-43.3 41.7-9.5 34.9 14.1 69.6 19 105.4 8.5 62.8-39.8 117.5-84.7 162.3-29.6 29.7-62.3 58.1-89.7 89.8-20.4 23.5-20.2 45.7-18.6 76.8 1.7 35.2 9.3 70 22.2 102.7 6.6 16.7 14.6 33 23.9 48.4 5.3 8.7 29.9 33.1 29.9 41.7z"/>
					</g>
					<g id="&lt;Group&gt;">
						<path id="&lt;Path&gt;" class="s3" d="m3028.6 1799c-65.9-3.9-101.7 117.1-190.4 243.8 31.3 16.7 82 39.4 142.6 50.8 28.9-32 55.7-65.3 80-99.5 33.9-100.7 32.1-191.3-32.2-195.1z"/>
					</g>
					<g id="&lt;Group&gt;">
						<path id="&lt;Path&gt;" class="s4" d="m2291.2 2448.4c-11.2 0-20.3-9.1-20.3-20.3 0-11.2 9.1-20.3 20.3-20.3 226.4-0.4 461.5-108.4 645.2-296.4 166.3-170.3 267.3-386 263.5-562.8-0.8-35.1-19-61.5-54.2-78.6-55.6-26.9-142.8-21.5-186.6 11.6-79.3 60-130.4 139.7-184.5 224.2-108.1 168.9-230.8 360.3-616.1 429.1-11 2-21.6-5.4-23.5-16.4-2-11 5.3-21.6 16.4-23.6 367.8-65.7 480.3-241.3 589.1-411 56.1-87.6 109.1-170.3 194.1-234.7 56.3-42.5 158.9-49.6 228.8-15.7 48.6 23.5 76 64.1 77.1 114.2 4.1 190.2-98.8 411.6-275.1 592.1-191.2 195.8-436.9 308.2-674.1 308.6q-0.1 0-0.1 0z"/>
					</g>
					<g id="&lt;Group&gt;">
						<path id="&lt;Path&gt;" class="s4" d="m2984.7 2104.7q-0.1 0-0.1 0c-93.6-0.4-188.8-47.9-254.8-126.9-48.4-57.9-70.8-121.8-61.4-175.1 1.5-8.3 9.3-13.8 17.6-12.4 8.3 1.5 13.8 9.4 12.4 17.7-7.7 43.8 12.8 100 54.8 150.3 59.3 71.1 148.1 115.6 231.5 115.9 8.4 0.1 15.2 6.9 15.2 15.3-0.1 8.4-6.9 15.2-15.2 15.2z"/>
					</g>
					<g id="&lt;Group&gt;">
						<path id="&lt;Path&gt;" class="s2" d="m2964 1621.9c-60.9-43.5-21.6-193-1.4-188.6-3.5-66.2 43.2-248.6 130.4-219.1 58.7 19.8 4.7 108.1 6.4 132 8.3-34.4 63.2-145.3 124.3-103 53.8 37.1-11.6 107.4-17.1 145.2 25.1-50.1 64-88.8 102.4-61.6 46.7 33.1 8.8 105.4-31.8 138.4-8.6 7 4.2 190.8-120.4 199.9"/>
					</g>
					<g id="&lt;Group&gt;">
						<path id="&lt;Path&gt;" class="s3" d="m3102.6 1518.1c70.9-24 116.9 10.9 122.4 7 11.4-8.2-6.4-50.6-30.5-66-31-19.9-60.4-4.5-88.5-21-28.2-16.6-82.3-64.5-125.6-20.2-53.4 54.7 51.3 124.2 122.2 100.2z"/>
					</g>
					<g id="&lt;Group&gt;">
						<path id="&lt;Path&gt;" class="s4" d="m2964 1621.9c-9.3-16.4-11.8-31.2-13.6-46.5q-1.2-11.5-1.5-23.2-0.1-11.8 0.9-23.7c0.6-7.9 1.7-15.8 3.1-23.7 1.1-7.9 2.8-15.7 4.6-23.4 1.7-7.7 4-15.2 6.3-22.1 1.2-3.4 2.5-6.7 3.7-9.1 0.5-1.1 1.1-2 0.9-2.1-0.2-0.1-0.5 0.2-1.8 0.7-1.2 0.5-4.2 1.2-7.4 0.4v-0.1l19.7-16.7c-0.7-15.8 1.2-33.3 4.1-50.3 2.9-17.1 7-34.1 12-50.6 5.1-16.6 11.2-32.8 18.8-47.9 7.5-15.1 16.5-29.4 27.4-40.2 5.4-5.3 11.3-9.7 17.3-12.5 6-2.8 12.1-3.9 18.4-3.5 6.1 0.3 13.5 2.6 17.8 5.4 4.4 3 6.8 6.4 8.3 12 1.5 5.7 1.5 13 0.4 20.7-1 7.8-3 15.9-5.4 24.1-2.4 8.2-5.2 16.6-8.1 25.3-1.4 4.4-2.8 8.9-4.2 13.8-0.6 2.4-1.3 5-1.8 7.9-0.5 2.9-1 6.1-0.7 10.8 0.4 8.9 8.1 15.7 17 15.3 7.3-0.4 13.2-5.6 14.9-12.3v-0.4c1.4-5.5 3.8-11.9 6.3-18 2.5-6.2 5.4-12.4 8.5-18.4 6.3-12 13.4-23.5 21.6-33.8 8-10.3 17.3-19.4 27-24.8 4.8-2.7 9.6-4.4 14.2-4.9 4.6-0.5 9 0.2 13.5 1.9 4.4 1.8 9.4 5 13.1 8.4 3.7 3.4 6.1 7.1 7.6 11.2 3 8.2 1.6 19.9-2.5 32-4 12.1-10.2 24.6-16.6 37.5-3.1 6.5-6.4 13.1-9.5 20.3-3.1 7.2-6.2 14.7-7.8 24.7-1.7 8.7 3.9 17.1 12.6 18.9 7 1.4 13.8-2 17.1-7.8l0.9-1.5c5.4-9.5 11.2-18.6 17.6-26.9 6.4-8.3 13.3-15.9 20.6-21.8 7.3-5.8 15-9.4 21.1-9.9 3.2-0.3 6.1 0 9.1 1.1 3 1 6.3 2.9 9.3 5.3 6.2 4.8 9.7 10.2 11.3 17.3 1.7 7.1 1 15.9-1.4 24.9-5.1 18.2-16 36.8-29.6 52.1-3.5 3.8-7.1 7.4-10.8 10.8l-1.4 1.2-0.7 0.6-2.2 2c-1 1-1.4 1.6-1.9 2.2-0.5 0.7-0.9 1.3-1.1 1.7l-0.8 1.4-0.5 1c-0.6 1.4-0.8 2.3-1.1 3.1-0.5 1.6-0.7 2.8-0.9 3.9-0.8 4.1-1 7.1-1.4 10.2-1 12.1-1.8 23.1-3 34.3-2.2 22.3-6 44.1-12.2 64.8-6.2 20.6-14.9 40.2-28.6 56.2-6.8 8-14.9 15-24.3 20.7-9.4 5.7-20.1 10-31.4 13.2 11.7 1.6 23.9 0.9 35.9-2.2 12-3.1 23.6-9 33.7-16.8 10.2-7.7 18.8-17.4 26-27.8 7.1-10.4 12.9-21.6 17.5-33.1 9.3-23 14.3-46.9 18-70.5 1.8-11.7 3.1-23.7 4.6-34.7 0.3-2.6 0.7-5.4 1.1-6.9 0.1-0.3 0.2-0.6 0.1-0.4 0 0.2-0.1 0.4-0.4 1.1l-0.2 0.5c-0.1 0.3-0.3 0.6-0.5 0.9-0.1 0.2-0.5 0.8-0.8 1.3-0.4 0.4-0.7 0.9-1.5 1.7q-0.6 0.6-1.1 1.1c-0.6 0.5-0.2 0.1-0.2 0.1l0.2-0.2 0.5-0.4 0.9-0.7 1.9-1.6c5-4.3 9.7-8.8 14.1-13.5 8.8-9.4 16.6-19.6 23.3-30.7 6.8-11 12.5-23 16.2-36.3 3.6-13.2 5.4-28.1 2-43.7-1.6-7.7-4.8-15.5-9.3-22.3-4.4-7-10.2-12.8-16.3-17.4-6.1-4.6-13.1-8.5-21.1-11.1-7.9-2.6-16.8-3.4-25.2-2.4-8.4 1-16.1 3.7-22.8 7.2-6.8 3.5-12.6 7.8-17.8 12.3-10.5 9-18.6 19.3-25.7 29.8-7 10.5-12.8 21.5-17.8 32.7l30.6 9.6c0.6-4.3 2.8-10.4 5.4-16.4 2.6-6.1 5.7-12.4 8.9-18.8 6.3-13 13.1-26.5 18.2-41.7 2.5-7.7 4.7-15.8 5.5-24.7 0.8-8.9 0.2-18.7-3.1-28.2-3.3-9.5-9.3-18-16.2-24.4-3.5-3.2-7.1-5.9-10.9-8.3-3.8-2.4-7.9-4.6-12.4-6.4-8.8-3.5-19.1-5.1-28.9-4-9.8 1.1-18.8 4.5-26.5 8.8-15.6 8.9-26.9 20.8-36.7 33-9.8 12.4-17.9 25.5-24.9 39.1-3.5 6.8-6.8 13.7-9.7 20.8-3 7.3-5.7 14.4-7.8 22.9l32 2.7c0 0.1 0-1.2 0.3-2.7 0.3-1.6 0.7-3.4 1.2-5.3 1-3.8 2.4-8 3.7-12.2 2.8-8.4 5.7-17.2 8.4-26.2 2.6-9.2 5-18.6 6.4-28.8 1.3-10.1 1.9-21.2-1.1-33.1-1.5-6-4.1-12.1-7.9-17.6-3.8-5.5-8.8-10.2-14.2-13.6-5.3-3.5-11-5.8-16.4-7.5-5.4-1.6-11.1-2.8-16.9-3.2-11.8-0.8-23.9 1.7-34.3 6.5-10.4 4.9-19.1 11.6-26.5 18.9-14.8 14.8-25 31.7-33.6 48.8-8.6 17.2-15.2 34.9-20.7 52.8-5.5 18-9.9 36.2-13.1 54.7-1.5 9.3-2.8 18.7-3.7 28.2-0.8 9.5-1.3 19.1-0.8 29.3l19.7-16.7h-0.1c-5.3-1.3-10.5-0.1-13.6 1.3-3.3 1.4-5.4 3-7.1 4.4-3.4 2.9-5.4 5.4-7.2 7.9-3.6 4.8-6 9.3-8.2 13.9-4.4 9-7.2 18-9.8 27.1-2.4 9-4 18.2-5.3 27.4q-1.5 13.8-1.6 27.8c0.1 9.3 0.7 18.7 2.2 28.1 1.4 9.3 3.8 18.7 7.6 27.7 3.7 8.9 9 17.6 16 24.7 6.9 7 15.6 12.5 25 14.2z"/>
					</g>
					<g id="&lt;Group&gt;">
						<path id="&lt;Path&gt;" class="s4" d="m3037.8 1364.1c20.2-1.2 39.2 0.3 57.8 3.4 18.6 3.1 36.7 7.9 53.9 14.5 17.3 6.6 33.7 14.8 48.6 25.7 15 10.8 28.2 24.2 39.6 41-1.8-20.4-12.3-40.1-26.8-55.4-14.7-15.3-33.2-26.7-52.7-34.1-19.7-7.4-40.5-11.1-61.3-10.7-20.6 0.4-41.8 4.7-59.1 15.6z"/>
					</g>
					<g id="&lt;Group&gt;">
						<path id="&lt;Path&gt;" class="s2" d="m3028.6 1654.3c-162.5-29.3-152.1-232.5-159.9-293.5-7.9-61.5 52.3-56.1 71.1-45.3 49.1 28.4 41.7 110.8 47.7 115.8 7.4 6 104 16.5 115.1 88.6"/>
					</g>
					<g id="&lt;Group&gt;">
						<path id="&lt;Path&gt;" class="s4" d="m3028.6 1654.3c-15.3-4.5-29.8-10.5-43.1-18.3-13.3-7.8-25.2-17.4-35.4-28.5-20.4-22.1-33.6-49.6-42.4-78.3-4.3-14.5-7.7-29.3-10.2-44.3-2.6-15-4.2-30.3-5.6-45.6-1.4-15.3-2.1-30.8-2.8-46.5-0.4-7.9-0.6-15.8-1.2-24l-0.5-6.3-0.6-5.8c-0.2-1.6-0.3-3.1-0.3-4.6-0.1-1.5 0-2.9 0.1-4.3 0.1-2.8 0.6-5.3 1.2-7.4 0.6-2.2 1.5-3.8 2.5-5.2 2-2.7 4.8-4.7 9.3-6.1 4.5-1.4 10.2-1.8 16-1.2 2.9 0.3 5.8 0.8 8.5 1.6 2.7 0.7 5.1 1.7 6.4 2.5 4.8 2.9 9.1 6.4 12.8 11 3.8 4.5 7.1 9.9 9.9 15.8 5.6 11.9 9.3 25.8 11.7 40.4 1.4 7.4 2.3 14.8 3.5 23 0.3 2.1 0.7 4.2 1.2 6.8 0.2 1.3 0.5 2.7 1.1 4.7 0.2 0.5 0.4 1 0.7 1.7l0.4 1.1 0.6 1.3c0.2 0.4 0.6 1.1 1.1 1.8 0.4 0.7 0.7 1.1 1.7 2.3q0.6 0.7 1.3 1.3c0.6 0.5 0.9 0.8 1.1 0.9q0.9 0.6 1.7 1.2c0.8 0.4 1.6 0.8 2.1 1.1l1.5 0.7q1.3 0.4 2.3 0.8c1.3 0.4 2.5 0.7 3.6 1l6.1 1.4c7.7 1.8 15.1 3.3 22.3 5.3 7.3 1.8 14.4 3.9 21.3 6.5 13.8 5 27 11.5 38.3 20.8 11.3 9.3 20.3 21.8 25.8 37 0.9-16.1-4.6-33.2-14.8-47.1-5.1-6.9-11.1-13.3-17.7-18.7-6.6-5.5-13.6-10.4-21.1-14.5-7.4-4.1-15-7.8-22.6-11-7.7-3.1-15.6-6-23.1-8.4l-5.2-1.8c-0.8-0.3-1.6-0.6-2.1-0.8q-0.4-0.2-0.5-0.3c0 0 0.1 0 0.2 0 0.1 0.1 0.4 0.2 0.8 0.5q0.5 0.3 1.1 0.7l0.8 0.6q0.6 0.6 1.1 1.1c0.8 1 0.9 1.2 1.3 1.7 0.3 0.5 0.6 1 0.6 1.1q0.2 0.4 0.4 0.7l0.1 0.4c0.1 0.2 0.2 0.3 0.2 0.3 0 0.1-0.1-0.4-0.1-1-0.2-1.4-0.3-3.2-0.5-5-0.5-7.5-1-15.8-1.9-24-1.9-16.6-5.1-33.9-12.4-50.9-3.7-8.5-8.4-16.9-14.7-24.5-6.2-7.7-14-14.6-22.9-19.7-5.5-3.1-10.6-4.9-15.5-6.2-4.9-1.4-9.8-2.2-14.8-2.7-9.9-0.9-20.2-0.5-30.8 2.8-5.3 1.6-10.7 4.1-15.7 7.6-5 3.4-9.6 7.9-13.1 13-3.5 5.1-6 10.6-7.5 16.1-1.6 5.4-2.4 10.8-2.6 15.9-0.1 2.5-0.2 5.1 0 7.5 0 2.5 0.3 4.8 0.5 7.2l1.4 11.5 2.2 23.2c1.5 15.8 3.1 31.8 5.3 47.8 2.1 16.1 5.2 32.1 9 48 3.8 15.9 8.6 31.7 14.9 47 12.2 30.5 30.5 59.9 56.3 81.1 25.6 21.5 57.8 33.1 89.4 35.2z"/>
					</g>
					<g id="&lt;Group&gt;">
						<path id="&lt;Path&gt;" class="s5" d="m1537.9 2002.5c38.8 86.5 125.8 163.5 243.4 219.1 22.9-57.4 34.5-107.2 21.7-111.1-88.2-27.3-170.5-61.2-244.9-97.9-6.8-3.3-13.5-6.7-20.2-10.1z"/>
					</g>
					<g id="&lt;Group&gt;">
						<path id="&lt;Path&gt;" class="s0" d="m2037 2026.1l-32.3 89.7-289.2 803.9c0 0-302.9-32-372.4-162.9-24.7-46.4-23.2-165.2-5.7-295.4 22.9-171 73.4-361.6 127.8-433.4 84.5-111.5 470.4-33 571.8-1.9z"/>
					</g>
					<g id="&lt;Group&gt;">
						<path id="&lt;Path&gt;" class="s1" d="m2004.7 2115.8l-289.2 803.9c0 0-302.9-32-372.4-162.9-24.7-46.4-23.2-165.2-5.7-295.4 44.4 18.5 124.8 33.9 144.3-45.4 29.1-119 83.1-279.2 143.4-353.8 60.3-74.6 215.2-46.4 215.2-46.4z"/>
					</g>
					<g id="&lt;Group&gt;">
						<path id="&lt;Path&gt;" class="s4" d="m1715.5 2940.1q-1.1 0-2.2-0.1c-12.8-1.4-314.5-34.8-388.2-173.6-42.7-80.5-9.5-303.8 1.7-370.3 22.8-136 66.9-307.4 122.2-380.4 40.9-53.9 140.9-74.9 297.4-62.4 121.6 9.7 244 37.2 296.5 53.3 10.7 3.3 16.8 14.7 13.5 25.4-3.3 10.7-14.6 16.7-25.4 13.5-127.8-39.2-479.1-98.3-549.6-5.3-41.9 55.3-86.9 197.7-114.6 362.7-27.1 161.4-29.5 299.9-5.8 344.4 63.6 119.8 353.7 152 356.6 152.3 11.2 1.1 19.2 11.1 18.1 22.3-1.2 10.4-10 18.2-20.2 18.2z"/>
					</g>
					<g id="&lt;Group&gt;">
						<path id="&lt;Path&gt;" class="s0" d="m1533.7 2436.5c-0.6 23.8-5.6 60.4-13.2 98.4-14.1 70.6-36.8 146.3-55.8 156.4-49.4 26.3-125.4 18-162.1-29.1-16.8-21.4-18.3-75.6-11.4-131.7 8.4-68.8 29.2-140.6 49.4-159.3 26.4-24.4 157.9 20.3 157.9 20.3 18.5 11.1 35.7 26.3 35.2 45z"/>
					</g>
					<g id="&lt;Group&gt;">
						<path id="&lt;Path&gt;" class="s1" d="m1520.5 2534.9c-14.1 70.6-36.8 146.3-55.8 156.4-49.4 26.3-125.4 18-162.1-29.1-16.8-21.4-18.3-75.6-11.4-131.7 3.7 31.4 15.7 79 54.8 86.8 82.9 16.7 104.1-115.4 104.1-115.4 0 0 25.3 122.9 70.4 33z"/>
					</g>
					<g id="&lt;Group&gt;">
						<path id="&lt;Compound Path&gt;" fill-rule="evenodd" class="s4" d="m1402 2726.1c-43 0-87.8-16-115.4-51.4-45.7-58.3-2.7-278.8 40.2-318.4 30.7-28.4 124.9-2.2 178.3 16l2 0.7 1.9 1.1c30.4 18.3 45.6 39.5 45 62.8-0.8 35.2-10.8 96.1-24.8 151.7-26.5 105.5-47.2 116.5-54.9 120.6-20.7 11-46.2 16.9-72.3 16.9zm-47.9-339.8c-11.9 11.4-30.1 62.3-40.2 128.3-11.4 74.2-5.6 122.1 4.6 135.1 31.3 40 96.7 44.6 136.2 23.9 19.8-17.3 57-167.6 58.7-237.6 0.2-7-8.6-16.6-23.5-26-59.3-19.9-123.5-31.1-135.8-23.7z"/>
					</g>
					<g id="&lt;Group&gt;">
						<path id="&lt;Path&gt;" class="s4" d="m1458.4 2447.8c-3.3 13-5.8 26.3-8.3 39.5-2.6 13.2-5.1 26.3-7.9 39.4-5.5 26.2-11.9 52.2-20.8 76.9-4.5 12.4-9.6 24.4-15.9 35.3-6.3 10.9-13.8 20.8-22.7 27.3-8.8 6.6-18.4 9.4-28.5 7.9-10.1-1.2-20.6-6-30.7-12.3l-0.2-0.1c-7.6-4.7-17.6-2.4-22.4 5.2-4.8 7.6-2.5 17.7 5.2 22.4q0.7 0.5 1.4 0.8c13.5 6.6 28.5 12.1 45.3 12.4 1 0.1 2 0.2 3.1 0.1l3.2-0.3 6.3-0.7c2.1-0.2 4.1-1 6.2-1.5 2-0.7 4.1-1 6.1-2 3.7-1.8 7.8-3.3 11.1-5.8l5.1-3.4c1.5-1.3 3-2.7 4.5-4 11.7-10.9 19.3-23.9 25.1-36.8 5.8-13.1 9.9-26.4 13.3-39.7 6.7-26.7 10.4-53.6 13.3-80.4 1.5-13.4 2.7-26.8 3.9-40.2 1.2-13.4 2.3-26.7 4.3-40z"/>
					</g>
					<g id="&lt;Group&gt;">
						<path id="&lt;Path&gt;" class="s4" d="m1518.5 2029.5c20.3 4.4 40.1 10.2 59.7 16.7 19.6 6.5 38.9 13.8 57.7 21.8 9.5 3.9 18.7 8.4 28 12.6 9.2 4.6 18.4 8.9 27.3 13.8 18.1 9.4 35.4 20.1 52.4 30.9l0.3 0.3c7.6 4.8 17.7 2.6 22.6-5 4.8-7.6 2.6-17.6-5-22.5-0.6-0.4-1.2-0.7-1.8-1-19.3-9.1-38.6-17.7-58.5-24.9-9.8-3.9-19.9-7.1-29.8-10.5-10-3-20-6.3-30.1-9-20.2-5.7-40.6-10.4-61-14.3-20.5-3.9-41.1-7.1-61.8-8.9z"/>
					</g>
					<g id="&lt;Group&gt;">
						<path id="&lt;Path&gt;" class="s0" d="m1520.9 3013c-21.4-58.7-99.9-113.6-186-76.8-93.7 40-93.4 204.3-93.4 204.3 0 0-30.4-17.4-46.8 13.5-21.7 40.9 26.2 101.7 86.3 80.6 0 0 31.5 40.3 95.8 7.4 0 0 56.4 50 99.5-9.5z"/>
					</g>
					<g id="&lt;Group&gt;">
						<path id="&lt;Path&gt;" class="s0" d="m1281 3234.6c0 0 31.5 40.3 95.8 7.3 0 0 56.4 50.1 99.5-9.4l37-182.4 7.6-37.1c-21.4-58.7-99.9-113.6-186-76.8-24.8 10.6-42.9 29.8-56.3 52.5-37 62.4-37.1 150.3-37.1 151.8 0 0-30.4-17.5-46.8 13.5-21.7 40.9 26.2 101.7 86.3 80.6z"/>
					</g>
					<g id="&lt;Group&gt;">
						<path id="&lt;Path&gt;" class="s2" d="m1189.5 3179.4c2.6 36.1 43.1 72.2 91.5 55.2 0 0 31.5 40.3 95.8 7.3 0 0 56.4 50.1 99.5-9.4l31.8-156.9 5.2-25.5 7.6-37.1c-21.4-58.7-99.9-113.6-185.9-76.8-24.9 10.6-43 29.8-56.4 52.5-37 62.4-37.1 150.3-37.1 151.8 0 0-30.4-17.5-46.8 13.5-4.2 8-5.8 16.7-5.2 25.4z"/>
					</g>
					<g id="&lt;Group&gt;">
						<path id="&lt;Path&gt;" class="s6" d="m1189.5 3179.4c2.6 36.1 43.1 72.2 91.5 55.2 0 0 31.5 40.3 95.8 7.3 0 0 56.4 50.1 99.5-9.4l31.8-156.9c-56.7-11.5-126-22.3-138-9.6-20.9 22.1 3.1 143.5-38.2 148.9-31.3 4.2-43.6-19.6-43.6-19.6 0 0-54.6 31-84.7-15.5-3.6-5.6-8.6 5.1-14.1-0.4z"/>
					</g>
					<g id="&lt;Group&gt;">
						<path id="&lt;Path&gt;" class="s7" d="m1278.6 2988.7c101.7-58.6 206.3 33.2 234.7 61.4l7.6-37.1c-21.4-58.7-99.9-113.6-186-76.8-24.8 10.6-42.9 29.8-56.3 52.5z"/>
					</g>
					<g id="&lt;Group&gt;">
						<path id="&lt;Path&gt;" class="s4" d="m1426 3282c-21.8 0-40.4-9.3-51.6-16.6-45.8 19.1-80.5 6.5-99.1-8.1-32.2 6.7-64.2-3.9-85.8-29-21.5-25-26.5-57.9-12.7-83.8 9.3-17.6 22.3-24.6 31.6-27.3 4.8-1.4 9.6-1.9 14-1.9 4.2-50.8 22.6-162.8 104.6-197.8 53.1-22.7 98-12.8 126.4-0.5 40.2 17.4 72.6 50.7 86.6 89 3.8 10.6-1.6 22.2-12.1 26.1-10.6 3.8-22.2-1.6-26.1-12.1-10-27.7-34.8-52.8-64.6-65.7-21-9.2-54.4-16.4-94.3 0.6-80.2 34.2-81.1 184-81.1 185.5 0 7.3-3.8 14-10.1 17.6-6.2 3.6-14 3.7-20.2 0.1-2-1-7.8-3.1-11.9-1.8-2.5 0.8-4.8 3.2-7 7.2-5.8 11-2.8 26.1 7.7 38.3 5 5.9 23.8 24.2 54 13.7 8.2-2.9 17.3-0.2 22.6 6.6 2.1 2.5 23.8 25.8 70.7 1.8 7.4-3.8 16.4-2.7 22.7 2.9 0.1 0.1 19.5 16.7 39.8 14.3 10.9-1.2 20.7-8 29.7-20.5 6.6-9.1 19.3-11.1 28.4-4.6 9.1 6.6 11.1 19.3 4.5 28.4-16 22.1-35.6 34.6-58.4 37.1q-4.2 0.5-8.3 0.5z"/>
					</g>
					<g id="&lt;Group&gt;">
						<path id="&lt;Path&gt;" class="s0" d="m2105.6 3202.3c0 0-101.3-94.6-187.2-40.1-85.9 54.7-70.7 186-70.7 186 0 0-35.2-4.1-42.1 33.8-8.5 47 46.5 85.5 86.6 60.4 0 0 33.4 52.3 108 10.7 0 0 23.8 31.9 67.9 9.6 47.5-23.9 61.2-113.4 61.2-113.4z"/>
					</g>
					<g id="&lt;Group&gt;">
						<path id="&lt;Path&gt;" class="s2" d="m1892.1 3442.4c0 0 33.5 52.3 108 10.7 0 0 23.9 31.9 68 9.6 25.1-12.6 40.7-43.5 49.9-69.9 8.3-23.6 11.3-43.5 11.3-43.5l-23.8-147c0 0-101.2-94.6-187.1-40.1-10.9 7-20.3 15.3-28.2 24.3-54.1 61.8-42.5 161.7-42.5 161.7 0 0-35.3-4.2-42.1 33.8-8.5 47 46.5 85.5 86.5 60.4z"/>
					</g>
					<g id="&lt;Group&gt;">
						<path id="&lt;Path&gt;" class="s6" d="m1964.5 3388c55.1 29.1 116.2 17.4 153.5 4.8 8.3-23.6 11.3-43.5 11.3-43.5l-23.8-147c0 0-101.2-94.6-187.1-40.1-10.9 7-20.3 15.3-28.2 24.3-7.7 57.1-7.9 158 74.3 201.5z"/>
					</g>
					<g id="&lt;Group&gt;">
						<path id="&lt;Path&gt;" class="s4" d="m2038.1 3490.9c-17.2 0-31.3-6.1-41.4-13.4-51.8 23.5-89.6 8.1-109.8-10.4-21.8 7.1-46.2 3.5-66.9-10.5-26.7-18.1-39.8-48.1-34.4-78.2 5.1-28.3 23-42.6 40.8-48-0.9-41.9 6.1-137.6 81.1-185.3 98-62.3 207.3 38 211.9 42.3 8.2 7.7 8.6 20.5 1 28.7-7.6 8.2-20.5 8.7-28.7 1-0.9-0.9-91-83.1-162.4-37.7-74 47-61.6 165.3-61.4 166.5 0.7 6.1-1.5 12.3-5.9 16.7-4.4 4.3-10.5 6.5-16.7 5.8-7.3-0.6-17 1.9-19.7 17.3-3.1 16.8 6.8 30.2 17.2 37.2 4.7 3.3 21.5 12.9 38.6 2.3 9.4-5.9 21.9-3.1 27.9 6.2 2.3 3.5 25.8 34.7 81 3.9 8.9-4.9 20-2.5 26.1 5.6 2.3 2.8 15.8 17.2 42.6 3.7 31.1-15.7 46.8-76.3 50.3-98.4 1.7-11.1 12.1-18.7 23.1-16.9 11.1 1.7 18.7 12 17 23.1-1.6 10.2-16.9 100.6-72.2 128.5-14.3 7.2-27.4 10-39.1 10z"/>
					</g>
					<g id="&lt;Group&gt;">
						<path id="&lt;Path&gt;" class="s0" d="m2433.6 2883.6c-14.5 77.2-54.2 481.9-297.3 511.9-53.6 6.6-115.4-11-146.2-37.4-85.6-73.2-42.5-279.5-27-336.3"/>
					</g>
					<g id="&lt;Group&gt;">
						<path id="&lt;Path&gt;" class="s0" d="m1990.1 3358.1c30.8 26.4 92.6 44 146.2 37.4 55.2-6.8 99.9-32.9 136.2-70.2 123.6-126.7 149.9-382 161.1-441.7l-301 88.4-169.5 49.8c-15.5 56.8-58.6 263.1 27 336.3z"/>
					</g>
					<g id="&lt;Group&gt;">
						<path id="&lt;Path&gt;" class="s1" d="m1990.1 3358.1c30.8 26.4 92.6 44 146.2 37.4 55.2-6.8 99.9-32.9 136.2-70.2h-0.1c0 0-200.9 82.1-254.2-15-89.2-162.7 215.4-199.2 245.2-266 12.9-28.9-52.4-53.5-130.8-72.3l-169.5 49.8c-15.5 56.8-58.6 263.1 27 336.3z"/>
					</g>
					<g id="&lt;Group&gt;">
						<path id="&lt;Path&gt;" class="s4" d="m2113 3417.2c-50.7 0-104.8-16.8-136.1-43.6-103.3-88.4-40.8-329.9-33.4-357.2 3-10.8 14.2-17.1 25-14.2 10.8 3 17.2 14.2 14.2 25-22.9 83.5-48 256.8 20.6 315.5 24.4 20.9 80 38.8 130.5 32.6 206-25.4 258-357.4 275.1-466.5 1.9-12.1 3.4-21.7 4.7-28.9 2.1-11 12.7-18.3 23.7-16.2 11 2 18.3 12.6 16.2 23.7-1.2 6.6-2.7 15.9-4.5 27.7-9.7 61.5-27.6 175.9-71.7 280.8-56.1 133.2-136.3 207.1-238.5 219.7-8.4 1.1-17.1 1.6-25.8 1.6z"/>
					</g>
					<g id="&lt;Group&gt;">
						<path id="&lt;Path&gt;" class="s0" d="m1452 3006.3c60.5-104.4 47.2-295.3 104-410.2 0 0 357.5 378.5 332.7 459.3-24.9 80.8-142 282.2-339.9 251.8-109.5-16.8-183.1-97.3-178.7-241.2"/>
					</g>
					<g id="&lt;Group&gt;">
						<path id="&lt;Path&gt;" class="s0" d="m1370.4 3096.9c6.4 124.5 77 194.8 178.4 210.3 197.9 30.4 315-170.9 339.9-251.8 5.7-18.8-9.3-53.9-35.7-96.5-86.9-140.3-296.9-362.8-296.9-362.8-56.9 114.9-43.6 305.8-104 410.2l-82 59.7q-0.5 16 0.3 30.9z"/>
					</g>
					<g id="&lt;Group&gt;">
						<path id="&lt;Path&gt;" class="s0" d="m1370.4 3096.9c6.4 124.5 77 194.8 178.4 210.3 197.9 30.4 315-170.9 339.9-251.8 5.7-18.8-9.3-53.9-35.7-96.5-86.9-140.3-296.9-362.8-296.9-362.8-26 52.5-37.3 120.8-47.7 189.5-12.4 81.7-23.5 164-56.3 220.7l-78.1 56.9-3.9 2.8q-0.5 16 0.3 30.9z"/>
					</g>
					<g id="&lt;Group&gt;">
						<path id="&lt;Path&gt;" class="s1" d="m1853 2958.9c-86.9-140.3-296.9-362.8-296.9-362.8-26 52.5-37.3 120.8-47.7 189.5 15.1 67.7 49.6 136 127.5 230 98.3 118.5 51.3 219.4-59 225.9-67.9 4-115.2-27.7-147.9-68.8 5.1 30 14.4 68.8 30.7 101.2 25.6 17.1 55.7 28.2 89.1 33.3 197.9 30.4 315-170.9 339.9-251.8 5.7-18.8-9.3-53.9-35.7-96.5z"/>
					</g>
					<g id="&lt;Group&gt;">
						<path id="&lt;Path&gt;" class="s2" d="m1452.4 3004.7c0 0-12.2 34.2-14.4 37.9-2.2 3.6-3.6 14.6-3.6 14.6 0 0-26.3 125.8 11.7 183.6l-19 6.6c0 0-80.4-109.8-54.9-197.5z"/>
					</g>
					<g id="&lt;Group&gt;">
						<path id="&lt;Path&gt;" class="s6" d="m1374 3063.2l-3.9 2.8q-0.5 16 0.3 30.9c4.3 83.4 37.4 142.4 89.3 177-16.3-32.4-25.6-71.2-30.7-101.2-27.8-35.1-44.9-77-55-109.5z"/>
					</g>
					<g id="&lt;Group&gt;">
						<path id="&lt;Path&gt;" class="s4" d="m1452 3006.3c12.2-13.5 21.8-29.3 29.7-45.7 8-16.5 14.2-33.7 19.4-51 5.3-17.4 9.4-34.9 12.9-52.5 3.7-17.5 6.8-35.1 9.9-52.5l9-52.2c2.9-17.3 6-34.4 9.6-51.4 6.9-33.8 15.3-67 28.1-97.7l-26.4 3.9c38.7 41.3 76.7 83.6 113.8 126.4 37.2 42.9 73.5 86.4 108.2 131 17.3 22.3 34.2 44.9 50.1 68 15.9 23.1 31.1 46.7 43.2 70.8 5.9 12 11.3 24.6 13.4 35.7 0.5 2.7 0.8 5.3 0.7 7.5 0 1-0.1 2-0.2 2.8-0.1 0.9-0.2 0.9-0.8 2.9-2 6.3-4.4 12.6-6.9 18.8-10.4 25.1-23.7 49.4-38.8 72.3-15.2 22.9-32.4 44.4-51.6 63.7-19.2 19.3-40.5 36.3-63.4 50-23 13.8-47.8 23.9-73.5 29.8-25.7 5.7-52.4 7.1-78.8 4.1-13.3-1.6-26.4-3.8-39.1-7.4-12.7-3.4-25-8.2-36.8-13.9-11.8-5.7-22.9-12.7-33.1-21-10.1-8.3-19.6-17.5-27.9-27.9-8.2-10.4-15.5-21.7-21.7-33.8-6.1-12.1-11.2-24.8-15.5-38-8.3-26.4-12.8-54.5-15.4-83-4.1 28.3-4.7 57.6 0.1 86.6l2 10.9c0.8 3.6 1.7 7.2 2.5 10.8 1 3.6 2.1 7.1 3.1 10.7 1.2 3.5 2.5 7 3.7 10.5 5.1 14.1 11.9 27.7 20.4 40.4 16.6 25.5 40 47 66.8 62 26.9 15 56.7 24 86.7 27.9 30 3.9 61 2.9 90.8-3.8 29.9-6.6 58.3-18.7 84.1-34.4 25.7-15.8 48.9-35.1 69.5-56.5 20.6-21.4 38.8-44.7 54.9-69.4 16.1-24.7 30.1-50.7 41.2-78.3 2.8-6.9 5.4-14 7.7-21.3 0.4-1.3 1.5-4.7 1.9-7.4 0.4-2.7 0.6-5.3 0.6-7.8 0.1-4.9-0.5-9.5-1.3-13.7-3.3-16.9-9.6-30.7-16.2-44.2-13.4-26.7-29.2-51-45.6-74.9-16.4-23.7-33.6-46.8-51.1-69.4-35.2-45.3-71.9-89.2-109.3-132.4-37.5-43.1-75.6-85.5-114.8-127.4-5.5-6.6-15.2-7.4-21.8-1.9-1.5 1.2-2.7 2.6-3.6 4.2l-0.9 1.7c-9.3 16.4-16.5 33.7-22.3 51.2-6 17.5-10.4 35.3-14.4 53-3.8 17.7-6.8 35.5-9.7 53.1-2.7 17.7-5 35.4-7.3 52.9l-6.6 52.5c-2.3 17.4-4.7 34.7-7.2 51.9-5.2 34.5-11 68.4-22 102.8z"/>
					</g>
					<g id="&lt;Group&gt;">
						<path id="&lt;Path&gt;" class="s0" d="m1576.3 2866.8c-51.2-81-64.7-183.5-38.4-290.7 53.7-218.2 233.9-455.1 188.6-744.3l677.7 184.6 65.4 167.7c50.8 309 51.6 523.6-12.9 686.8-52.5 132.9-174.9 182.7-305.7 206.8l-120.7 14.8c-129.5 11.5-236.4-14.1-325.2-76.9z"/>
					</g>
					<g id="&lt;Group&gt;">
						<path id="&lt;Path&gt;" class="s0" d="m1524.9 2675.9c-1 70.1 16.4 135.5 51.3 190.9l128.9 148.8c88.8 62.8 195.7 88.5 325.2 76.9l120.7-14.8c114.2-21.1 222.1-61.7 282.5-160.2q0.1-0.1 0.1-0.1c8.7-14.2 16.4-29.7 23.1-46.5 64.5-163.2 63.7-377.8 12.9-686.8l-65.4-167.8-677.7-184.5c45.3 289.2-134.9 526.1-188.5 744.4-8.4 33.8-12.7 67.3-13.1 99.7z"/>
					</g>
					<g id="&lt;Group&gt;">
						<path id="&lt;Path&gt;" class="s1" d="m1524.9 2675.9c-1 70.1 16.4 135.5 51.3 190.9l128.9 148.8c88.8 62.8 195.7 88.5 325.2 76.9l120.7-14.8c114.2-21.1 222.1-61.7 282.5-160.2-5.6 4-241.3 173.9-580.1 64.6-255.9-82.5-315.1-243.5-328.5-306.2z"/>
					</g>
					<g id="&lt;Group&gt;">
						<path id="&lt;Path&gt;" class="s4" d="m2151 3077.7c22.7-1.2 45.3-4 67.8-8.1 11.2-2.2 22.5-4.6 33.6-7.5 11.1-2.9 22.1-6.4 33.1-10 43.6-15.4 85.9-38.7 120.1-72.2 4.4-4.1 8.4-8.5 12.6-12.8 3.9-4.5 8-8.9 11.7-13.7 7.6-9.2 14.4-19.1 20.8-29.2 6.5-10.2 12-20.8 17.1-31.7 2.5-5.4 4.8-10.9 7.1-16.3 2.1-5.5 4.2-10.9 6.2-16.4 15.9-43.7 26.4-89.1 32.7-134.7 12.4-91.4 10.5-183.2 1.6-273.5-9.1-90.4-24.9-179.6-45.8-267.5 4 45 8.1 89.9 11.7 134.8 3.6 44.8 6.4 89.7 8.2 134.4 0.8 22.4 1.2 44.8 1.5 67.1 0.2 22.4-0.3 44.7-1.1 66.9-1.4 44.5-5.5 88.7-12.5 132.3-7.1 43.5-17.4 86.3-32 127.4l-5.7 15.4c-1.9 5-3.9 9.9-6 14.7-4.3 9.7-9.1 19.1-14.3 28.3-5.2 9.1-10.9 18.1-17.2 26.5-3.1 4.3-6.5 8.3-9.8 12.5-3.5 3.9-6.9 8-10.6 11.8-29.3 30.7-65.7 55-105.3 74-39.6 19.3-82.3 33.5-125.5 47.5z"/>
					</g>
					<g id="&lt;Group&gt;">
						<path id="&lt;Path&gt;" class="s4" d="m1705.1 3015.6c19.4 22 43.3 39.5 69.1 53.5 25.9 14 54 24.1 82.8 30.4 28.8 6.3 58.3 8.8 87.4 7.7 29.2-1.2 58.2-5.5 85.9-14.7-28.9-4.4-57-7-84.7-10.8-27.7-3.6-54.9-8.1-81.7-13.9-26.8-5.9-53.2-13.1-79.5-22-26.3-8.7-52.1-19.4-79.3-30.2z"/>
					</g>
					<g id="&lt;Group&gt;">
						<path id="&lt;Path&gt;" class="s4" d="m2408.4 2000.7l-168.9-48-169.1-47.2-169.3-46.8-169.3-46.4c-10.8-2.9-21.9 3.4-24.8 14.1-0.8 2.8-0.9 5.7-0.5 8.4v0.1c3.3 21.5 5.5 43.1 6.5 64.8 0.9 21.8 0.7 43.5-0.7 65.3-1.4 21.7-3.9 43.4-7.4 65-3.4 21.6-7.9 43.1-13 64.5-10.5 42.7-24.1 84.9-39.5 126.5-15.4 41.8-32.6 83-49.7 124.6-17.1 41.5-34.5 83.3-50 126-7.8 21.4-15.1 43.1-21.5 65.1-6.4 22-12 44.5-15.9 67.5-7.8 45.9-8.2 93.5 1.7 139.1 9.7 45.5 29.5 89 59.3 123.5-18.3-41.6-29.9-84.3-34.3-127.5-4.3-43.3-2.2-86.8 5.6-129.4 3.9-21.3 9.5-42.4 16-63.5 6.5-21 13.9-41.8 21.8-62.6 15.8-41.5 33.6-82.5 51.4-123.8 35.6-82.5 70.8-166.8 93.5-256 11.3-44.5 19.2-90.2 22.1-136.4 1.6-23.2 1.8-46.4 0.9-69.6-1.1-23.2-3.4-46.4-6.9-69.3l-25.2 22.6 169.5 45.9 169.5 45.5 169.8 45 169.9 44.3c8.7 2.3 17.5-2.9 19.8-11.6 2.2-8.6-2.8-17.3-11.3-19.7z"/>
					</g>
					<g id="&lt;Group&gt;" style="opacity: .4">
						<g id="&lt;Group&gt;">
							<g id="&lt;Group&gt;">
								<path id="&lt;Path&gt;" class="s8" d="m2363.1 2064.6c0 0 431.5-72.5 516.3-548.4 67.6-379.2-159.9-880.3-657.9-975.4-560.3-107.1-959.8 281.5-986.9 739.7-26 438.9 353.1 684 408.4 704.4 30.6 11.3 353.4 118.4 406.2 122.7 59.7 4.8 313.9-43 313.9-43z"/>
							</g>
						</g>
					</g>
					<g id="&lt;Group&gt;" style="opacity: .7">
						<g id="&lt;Group&gt;">
							<g id="&lt;Group&gt;">
								<path id="&lt;Path&gt;" class="s8" d="m2069.2 2062.6c79.9-3.7 283.5-41.9 285.5-42.3l0.9-0.1c0.9-0.2 102.7-18.4 212.2-91 144.6-96 234.6-237.6 267.3-420.9 32.5-182.4-9.1-392.9-111.2-563.2-114.6-191.1-296-319-510.8-360.1-73.3-13.9-145.8-19.4-215.5-16.1-198.4 9.2-373.4 86.8-506.1 224.5-125.7 130.4-201 304.4-211.9 489.8-12.9 216.5 81.7 379.3 163.4 477.7 92.8 111.9 195 174.1 215.6 181.7 41.1 15.2 350.5 116.5 394.3 120.1 2 0.1 6.8 0.3 16.3-0.1z"/>
							</g>
						</g>
					</g>
					<g id="&lt;Group&gt;" style="opacity: .7">
						<g id="&lt;Group&gt;">
							<g id="&lt;Group&gt;">
								<path id="&lt;Path&gt;" class="s9" d="m1443 1760.9c92.8 111.9 195 174.1 215.6 181.7 41.1 15.2 350.6 116.5 394.3 120.1 2 0.1 6.8 0.4 16.4-0.1 79.8-3.7 283.4-41.9 285.5-42.3l0.8-0.1c0.9-0.2 102.7-18.4 212.2-91 144.6-96 234.6-237.6 267.3-420.9 5-28.1 8.2-56.8 9.8-85.9 0 0-140.8 380.1-791.4 302.4-640.9-76.6-746.5-445.9-760.9-545.3-6.6 34-10.9 68.6-13 103.7-12.9 216.5 81.7 379.3 163.4 477.7z"/>
							</g>
						</g>
					</g>
					<g id="&lt;Group&gt;">
						<path id="&lt;Compound Path&gt;" fill-rule="evenodd" class="s4" d="m2058.5 2128.2q-6.2 0-10.9-0.4c-57.4-4.6-386.1-114.4-411.7-123.9-59.6-22-448.4-271.6-421.6-724.6 14.3-241.3 128.8-462.5 314.2-606.9 189.3-147.4 436.7-201.3 696.9-151.6 233.2 44.6 430.2 183.3 554.6 390.7 110 183.4 154.6 410.8 119.4 608.3-45.1 252.9-187.4 393-298.9 466.1-119.1 78-226.8 97.5-233.8 98.7-12.1 2.3-233.1 43.6-308.2 43.6zm-19.6-1584.8c-181.3 0-349.4 55.1-485.5 161-176.1 137.3-285 347.7-298.6 577.3-13.3 224.6 84.6 393.1 169.1 495 95.2 114.8 200.5 179.7 226.1 189.1 32.7 12.1 352.4 117.6 400.9 121.6 46.7 3.7 238.5-29.6 308.4-42.7q0.2-0.1 0.4-0.1c2-0.3 106.8-19.1 220-93.6 151.6-99.9 245.7-247.4 279.7-438.4 69.1-387.3-172.3-862.2-641.7-951.9-60.5-11.5-120.4-17.3-178.8-17.3z"/>
					</g>
					<g id="&lt;Group&gt;">
						<path id="&lt;Path&gt;" class="s0" d="m2285.8 2782.9c0 0 182.5 61.2 237.4-19.7 52-76.8-20.1-123.9-20.1-123.9 0 0-73.9 33.6-192.3 4.1"/>
					</g>
					<g id="&lt;Group&gt;">
						<path id="&lt;Path&gt;" class="s1" d="m2285.8 2782.9c0 0 182.5 61.1 237.4-19.7 14.3-21.1 19.2-40 18.8-56.3-56 78.9-236.5 18.5-236.5 18.5l14.4-79.9c-3-0.7-6-1.4-9.1-2.2z"/>
					</g>
					<g id="&lt;Group&gt;">
						<path id="&lt;Path&gt;" class="s4" d="m2415.6 2825.2c-66.4 0-131.6-21.5-136.3-23-10.6-3.6-16.3-15.1-12.8-25.7 3.6-10.6 15.1-16.4 25.7-12.8 46.8 15.6 176.3 43.8 214.2-11.9 12.8-18.9 17.6-36.9 14.3-53.5-3.3-16.6-14-29.1-21.4-36-26.8 8.8-96.1 25.1-193.4 0.8-10.9-2.8-17.5-13.8-14.8-24.7 2.8-10.8 13.8-17.5 24.6-14.7 109.2 27.2 178.4-2.6 179.1-2.9 6.3-2.9 13.6-2.3 19.4 1.5 1.5 1 37.7 25.1 46.3 68 5.6 27.7-1.4 56-20.5 84.3-26.6 39.1-75.8 50.6-124.4 50.6z"/>
					</g>
					<g id="&lt;Group&gt;">
						<path id="&lt;Path&gt;" class="s0" d="m2287.6 2551.7c-85.4-15-250-21.3-394.6-39.9-41.3-5.3-78.9 24.4-83.5 65.8l-18.7 173.7c-2.7 33.6 23.2 79.4 57.7 114.4 119.8 32.7 253.2-7.5 394.3-17.4 34.5-2.4 62.9-28 68.6-62.1l76.9-145.7c-26.8-39.5-51.9-80.2-100.7-88.8z"/>
					</g>
					<g id="&lt;Group&gt;">
						<path id="&lt;Path&gt;" class="s0" d="m1848.5 2865.7c16.2 4.4 32.7 7.6 49.5 9.5 106.6 12.8 222.9-18.3 344.8-26.9 34.5-2.4 62.9-28 68.6-62.1l76.9-145.7c-26.8-39.5-51.9-80.2-100.7-88.8-85.4-15-250-21.4-394.7-39.9-41.2-5.3-78.8 24.4-83.4 65.8l-11.3 104.9-7.4 68.8c-2.6 33.7 23.3 79.4 57.7 114.4z"/>
					</g>
					<g id="&lt;Group&gt;">
						<path id="&lt;Path&gt;" class="s5" d="m1848.5 2865.7c16.2 4.4 32.7 7.6 49.5 9.5l18.1-133.7-117.9-59-7.4 68.8c-2.6 33.7 23.3 79.4 57.7 114.4z"/>
					</g>
					<g id="&lt;Group&gt;">
						<path id="&lt;Compound Path&gt;" fill-rule="evenodd" class="s4" d="m1952.1 2898.6c-37.1 0-73.4-3.6-108.9-13.3-3.5-1-6.6-2.8-9.1-5.4-33.1-33.5-67.1-85.2-63.6-130.1q0-0.3 0.1-0.6l18.7-173.8c2.8-25.6 15.5-48.4 35.7-64.2 20.1-15.9 45.2-22.8 70.5-19.5 68.5 8.7 143.1 14.9 208.9 20.3 75.7 6.3 141.1 11.7 186.7 19.7 54.6 9.6 83.9 52.8 109.7 91l4.3 6.4c4.2 6.2 4.7 14.3 1.2 20.9l-75.5 143c-8.5 41.7-43.7 72.6-86.6 75.6-42.5 3-84.8 8.8-125.8 14.5-57.2 7.9-112.6 15.5-166.3 15.5zm-92.9-51.1c77.7 19.6 163.2 7.8 253.6-4.7 41.7-5.7 84.7-11.7 128.6-14.8 25.3-1.7 45.8-20.3 50-45.1 0.4-2.2 1.1-4.2 2.1-6.1l71.2-135c-23.3-34.4-44.2-63.7-80.6-70.1-43.8-7.7-108.3-13-183.1-19.2-66.2-5.4-141.2-11.6-210.6-20.5-14.5-1.9-28.8 2.1-40.4 11.1-11.5 9.1-18.7 22.1-20.4 36.7l-18.6 173.4c-1.7 24 17.9 62.2 48.2 94.3z"/>
					</g>
					<g id="&lt;Group&gt;">
						<path id="&lt;Path&gt;" class="s0" d="m2347.7 2611.5c-85.1-5.3-261.2-17.9-433-41.1-26.2-3.5-50.1 15.3-53 41.5l-24.3 218c-2.7 24.7 14.2 47.3 38.8 51.6 84.7 14.6 277.3 42.7 439 27.1 21.1-2.1 38.3-18.1 41.8-39.1l34.2-203.2c4.7-27.6-15.6-53.1-43.5-54.8z"/>
					</g>
					<g id="&lt;Group&gt;">
						<path id="&lt;Path&gt;" class="s0" d="m1876.2 2881.5c84.6 14.6 277.3 42.6 439 27.1 21.1-2 38.3-18.1 41.8-39.1l2.1-12.3 32.1-190.9c4.7-27.6-15.6-53.1-43.5-54.8-85.1-5.3-261.2-17.9-433.1-41.1-26.1-3.5-50 15.3-52.9 41.5l-12.8 114.6v0.1l-11.5 103.3c-2.7 24.7 14.3 47.3 38.8 51.6z"/>
					</g>
					<g id="&lt;Group&gt;">
						<path id="&lt;Path&gt;" class="s1" d="m1876.2 2881.5c84.6 14.6 277.3 42.6 439 27.1 21.1-2 38.3-18.1 41.8-39.1l2.1-12.3c-17.3 11-37.6 20.1-55.8 18.2-59.1-6.3-37.3-88.7-37.3-88.7l-119.5-45.2c0 0-22.1 120.6-144.4 107-146.8-16.3-153-118.1-153.2-121.9l-11.5 103.3c-2.7 24.7 14.3 47.3 38.8 51.6z"/>
					</g>
					<g id="&lt;Group&gt;">
						<path id="&lt;Compound Path&gt;" fill-rule="evenodd" class="s4" d="m2213.2 2933.4c-138.3 0-278.1-21.1-340.5-31.9-35-6.1-59.4-38.5-55.4-73.9l24.2-217.9c2-18.2 11.1-34.5 25.5-45.8 14.4-11.2 32.3-16.1 50.4-13.6 169.6 22.9 343.2 35.4 431.5 40.9 19.1 1.2 36.8 10.4 48.7 25.4 11.8 14.9 16.8 34.3 13.6 53.1l-34.2 203.2c-5 30-29.7 53-59.9 55.9-33.7 3.2-68.7 4.6-103.9 4.6zm-304.9-343.1c-5.9 0-11.6 2-16.3 5.7-5.7 4.4-9.4 10.9-10.2 18.2l-24.2 217.9c-1.5 14.1 8.1 27 22 29.4 76.7 13.2 272.4 42.4 433.6 26.9 12-1.2 21.8-10.3 23.8-22.3l34.2-203.2c1.3-7.6-0.6-15.1-5.4-21.1-4.8-6-11.7-9.6-19.4-10.1-88.9-5.5-263.5-18.1-434.5-41.2q-1.8-0.2-3.6-0.2z"/>
					</g>
					<g id="&lt;Group&gt;">
						<path id="&lt;Path&gt;" class="s0" d="m1791.8 2741.6c0 0 25.5-8.3 41.8-42.1 23.8-49.4-27-95.8-27-95.8 0 0-186.8-29.1-250.5-85 0 0-104.6 32.6-30.6 138.2 75.9 70.1 266.3 84.7 266.3 84.7z"/>
					</g>
					<g id="&lt;Group&gt;">
						<path id="&lt;Path&gt;" class="s1" d="m1525.5 2656.9c75.9 70.1 266.3 84.6 266.3 84.6 0 0 25.5-8.2 41.8-42 4.1-8.6 6-17.2 6.3-25.4-15.3 21.3-32.9 27-32.9 27 0 0-190.4-14.6-266.3-84.6-19.7-28.2-26.7-51.3-26.4-69.8-17.7 21.3-26.7 56.2 11.2 110.2z"/>
					</g>
					<g id="&lt;Group&gt;">
						<path id="&lt;Compound Path&gt;" fill-rule="evenodd" class="s4" d="m1791.8 2761.9q-0.8 0-1.5-0.1c-8.1-0.6-198.4-15.9-278.5-89.9q-1.6-1.5-2.9-3.3c-27.8-39.7-36.5-75.9-25.7-107.6 15.4-45.2 64.8-61 66.9-61.7 6.8-2.1 14.1-0.5 19.4 4.1 48.6 42.7 189.9 72.4 240.3 80.2 3.9 0.6 7.6 2.4 10.6 5.1 2.5 2.3 61.5 57.4 31.4 119.7-19.5 40.4-50.3 51.4-53.7 52.5-2.1 0.6-4.2 1-6.3 1zm-250.9-118.4c64.2 57.2 217.8 74.5 247.5 77.4 5.7-3.1 17.8-11.5 26.9-30.2 13.6-28.2-9-57.6-18.5-68.1-33.4-5.6-177.1-32.2-243.8-80.5-10.2 5.1-25.8 15.4-31.4 32.2-6.1 18.3 0.4 41.5 19.3 69.2z"/>
					</g>
					<g id="&lt;Group&gt;">
						<path id="&lt;Path&gt;" class="s10" d="m2156.7 2752.5c-2 16.5 2 30.6 12.1 42.4 9.6 11.1 29.6 29.4 29.6 29.4l96.9-84.2c0 0-19.2-21-29.4-31-11.3-11.1-24.5-17-41.4-17-33.4 0-63.7 27.1-67.8 60.4z"/>
					</g>
					<g id="&lt;Group&gt;" style="opacity: .7">
						<g id="&lt;Group&gt;">
							<g id="&lt;Group&gt;">
								<path id="&lt;Path&gt;" class="s0" d="m2156.2 2760.9c9-27.6 35.9-48.4 65.1-48.4 17 0 30.2 5.8 41.5 16.9 5.6 5.6 14 14.4 20.3 21.3l12.2-10.6c0 0-19.2-21-29.4-31-11.2-11.1-24.5-16.9-41.4-16.9-33.3 0-63.7 27-67.8 60.3-0.4 2.9-0.6 5.7-0.5 8.4z"/>
							</g>
						</g>
					</g>
					<g id="&lt;Group&gt;">
						<path id="&lt;Compound Path&gt;" fill-rule="evenodd" class="s4" d="m2198.4 2839.5c-3.7 0-7.3-1.3-10.2-4-0.9-0.7-20.9-19-30.9-30.7-13-15.1-18.3-33.4-15.7-54.1 5-40.7 42.2-73.8 82.9-73.8 20.5 0 37.5 7 52.1 21.3 10.3 10.2 29.2 30.8 30 31.6 2.7 3.1 4.2 7.1 3.9 11.2-0.2 4.1-2.1 7.9-5.2 10.6l-96.9 84.2c-2.9 2.5-6.4 3.7-10 3.7zm26.1-132.1c-25.9 0-49.5 21.1-52.7 47-1.5 12.2 1.2 22 8.6 30.6 4.7 5.4 12.3 12.9 18.4 18.8l74.7-64.8c-6-6.5-13.3-14.2-18.3-19.1-8.8-8.7-18.3-12.5-30.7-12.5zm-67.8 45.1z"/>
					</g>
					<g id="&lt;Group&gt;">
						<path id="&lt;Path&gt;" class="s10" d="m2187.3 2783.1c-4.1 33.3 19.6 60.4 52.9 60.4 33.4 0 63.7-27.1 67.8-60.4 4.1-33.4-19.6-60.4-52.9-60.4-33.4 0-63.7 27-67.8 60.4z"/>
					</g>
					<g id="&lt;Group&gt;">
						<path id="&lt;Path&gt;" class="s11" d="m2240.2 2843.5c33.4 0 63.7-27 67.8-60.4 0.2-1.2 0.3-2.4 0.4-3.6-12.4 19.8-34.5 33.4-58.1 33.4-32.2 0-55.4-25.1-53.4-56.7-5 8.1-8.4 17.2-9.6 26.9-4.1 33.4 19.6 60.4 52.9 60.4z"/>
					</g>
					<g id="&lt;Group&gt;">
						<path id="&lt;Compound Path&gt;" fill-rule="evenodd" class="s4" d="m2240.2 2858.7c-20.4 0-38.8-8-51.8-22.7-13-14.7-18.8-34.2-16.2-54.8 4.9-40.6 42.1-73.7 82.9-73.7 20.4 0 38.8 8 51.8 22.7 13 14.7 18.8 34.2 16.2 54.8-5 40.6-42.1 73.7-82.9 73.7zm14.9-120.8c-25.9 0-49.5 21.1-52.7 47.1-1.5 11.8 1.7 22.7 8.8 30.8 7.1 8 17.4 12.4 29 12.4 25.9 0 49.5-21 52.7-47 1.5-11.8-1.7-22.8-8.9-30.9-7-8-17.3-12.4-28.9-12.4zm-67.8 45.2z"/>
					</g>
					<g id="&lt;Group&gt;">
						<path id="&lt;Path&gt;" class="s4" d="m1957.4 2909.3q-1.3 0-2.7-0.3c-8.3-1.5-13.8-9.4-12.3-17.6l12-67.1c6.3-35.4 25.4-67.1 53.7-89.3 22.6-17.6 37.8-42.9 42.7-71.1l13.3-76.9c1.5-8.2 9.3-13.8 17.6-12.4 8.3 1.5 13.9 9.4 12.4 17.7l-13.3 76.8c-6.2 35.7-25.4 67.6-53.9 89.9-22.4 17.6-37.5 42.6-42.5 70.6l-12 67.1c-1.3 7.4-7.8 12.6-15 12.6z"/>
					</g>
					<g id="&lt;Group&gt;">
						<path id="&lt;Path&gt;" class="s4" d="m1434.7 3049.8c-5.4 14.6-9.1 29.9-12 45.3-2.7 15.5-4.5 31.2-4.8 47.1-0.4 15.9 0.6 32 3.6 48 2.8 15.9 7.7 31.8 15.1 46.7 7.3 15 17.1 29.2 29.6 40.8 12.3 11.8 26.8 21 42.1 28.1 31 13.3 64.3 17.8 96.4 16.2 6.7-0.4 11.9-6.1 11.6-12.8-0.3-6.3-5.4-11.3-11.6-11.6h-0.1c-29.8-1.5-59.1-5.9-85.4-16.8-13-5.7-25-13-35.7-22l-7.7-7.2-7-7.9c-4.3-5.6-8.6-11.3-12.2-17.5-7.2-12.4-12.7-26-16.8-40.3-3.9-14.2-6.5-29.1-8-44.2-1.4-15.1-1.8-30.4-1.3-45.7 0.6-15.4 1.8-30.8 4.2-46.2z"/>
					</g>
				</g>
				<g id="&lt;Group&gt;">
					<g id="&lt;Group&gt;">
						<path id="&lt;Path&gt;" class="s0" d="m1768.4 2062.9c-283.6-47.8-624.8-403.1-680.3-565.4-30.6-89.3-299.6-69-328 49.8-88.8 372.8 344.3 812.5 893.4 897.6 0 0 186.4 37 236.4-95.6 64.1-170.1-121.5-286.4-121.5-286.4z"/>
					</g>
					<g id="&lt;Group&gt;">
						<path id="&lt;Path&gt;" class="s0" d="m852.9 1963.6c144.6 220.6 425.3 409.2 752.7 472.9q23.8 4.7 47.9 8.5c0 0 186.5 36.9 236.4-95.7 64.1-170.1-121.5-286.4-121.5-286.4-283.6-47.8-624.8-403.1-680.4-565.4-30.5-89.3-299.5-69-327.9 49.8-32.5 136.7 5.1 282.4 92.8 416.3z"/>
					</g>
					<g id="&lt;Group&gt;">
						<g id="&lt;Group&gt;">
							<path id="&lt;Path&gt;" class="s1" d="m1629.9 2381.4c-42.9-91.6-210.2-106.9-380.6-247.8-25.8 17.1-80 37.4-193.7 49.5 148.1 119.7 339.4 212.4 550 253.4 25.3-5.5 40.4-20.7 24.3-55.1z"/>
						</g>
					</g>
					<g id="&lt;Group&gt;">
						<path id="&lt;Path&gt;" class="s2" d="m644.1 1414.6c-5.3-25.9 3.7-55.8 26.2-69.8 22.4-14 57.4-5.7 66.8 19-4.1-32.6-5.4-72 21.2-91.1 17.8-12.8 42.7-11.2 62.3-1.7 19.7 9.4 35.3 25.5 50.4 41.2 7.1-34.6 19.1-75 52.6-86 21.9-7.1 46.7 1.8 63.3 17.7 16.7 15.9 26.4 37.7 33.5 59.6 11 33.8 16.6 69.3 16.7 104.8 0 8-0.1 16.8 4.7 23.3 11.8 16.1 36.7 3.8 53.4-7.1 26.1-17.2 67.9-25.3 83.5 1.9 9.5 16.4 3.2 37.6-6.9 53.7-10.1 16-23.9 29.9-30.9 47.6-9.6 24.2-4.8 52.2 6.9 75.5 11.7 23.2 29.7 42.7 47.4 61.8q52.3 56.5 104.7 113c23.3 25.2 47.6 52 55.2 85.4 3.4 15.1 3.2 30.7 2.2 46.1-5.3 75.6-33.7 151.4-88.4 203.8-54.8 52.3-137.7 77.3-209.5 53.2-57.8-19.6-101.7-66.8-139.2-115-49.5-63.5-92.6-131.9-128.7-203.9-12.9-25.8-24.9-52.3-31.5-80.4-6.7-28.9-7.3-58.8-12.2-88.1-4.6-28.1-13-55.4-21.3-82.6-10.5-34-16.4-81.4-34.7-111.9-15.2-25.4-40.9-37.3-47.7-70z"/>
					</g>
					<g id="&lt;Group&gt;">
						<path id="&lt;Path&gt;" class="s6" d="m1141.3 2024.7c-131.8-161.3-293.9-185.5-288.4-61.1 51.6 78.6 120.5 153.2 202.7 219.5 113.7-12.1 167.9-32.4 193.7-49.5-36.2-30-72.7-65.6-108-108.9z"/>
					</g>
					<g id="&lt;Group&gt;">
						<path id="&lt;Path&gt;" class="s4" d="m1771.1 2046.9c-53.3-9.2-105.3-28.4-154.7-52.6-49.5-24.3-96.8-53.6-141.9-85.8-45.2-32.3-88.3-67.6-129.3-105.1-41.1-37.5-79.9-77.5-116.1-119.6-36-42.1-69.9-86.4-97.3-133.7-6.7-11.8-13-23.8-18.5-35.9-2.6-6.1-5.2-12.2-7.3-18.4l-1.8-4.8c-0.9-2.2-1.6-4.4-2.7-6.5-2-4.3-4.5-8.2-7.1-11.9-11-14.8-25.7-24-40.2-30.7-14.6-6.6-29.5-10.6-44.5-13.3-29.8-5.2-59.7-5.2-89.2-1.9-29.4 3.5-58.5 10.6-86.3 22.5-13.9 6-27.5 13.2-40.2 22.3-12.6 9.2-24.6 20.1-34.2 33.7-4.7 6.7-8.9 14.1-12.1 21.9-3.3 7.7-5.5 16.6-6.9 23.2l-2.3 10.8-1.9 10.8c-1.4 7.2-2.3 14.5-3.2 21.8-7.2 58.2-2.1 117.5 11.6 173.9 14 56.5 36.5 110.4 64.7 160.7 28.2 50.3 62.1 97.1 99.6 140.4 37.5 43.4 79.1 83.1 123.2 119.4 44.1 36.3 90.8 69.4 139.6 99.1 48.8 29.4 99.5 55.8 151.8 78.4 52.2 22.7 105.8 42.4 160.6 57.7 27.5 7.5 55.4 13.4 83.6 17.1 28.3 3.8 56.8 5.8 85.4 4.5-26.9-10-53.6-18.5-80.3-27l-79.7-25.2c-26.4-8.3-52.9-16.8-78.8-26.6q-39-14.6-77-31.6c-50.7-22.7-99.7-48.9-146.9-78-47.1-29-92.2-61.4-134.7-96.8-42.5-35.4-82.3-74-118.5-115.5-36.1-41.6-68.5-86.4-95.4-134.2-26.8-47.7-48-98.5-61.1-151.2-13-52.7-17.5-107.3-11.3-160.8 0.9-6.7 1.6-13.4 2.9-20l1.6-9.9 2.1-9.9c1.5-7.1 2.7-11.9 4.9-17.2 2.1-5.2 4.9-10.2 8.2-14.9 13.4-19.1 35.3-33.6 58.9-44 23.9-10.3 50-16.8 76.3-20 26.4-3.2 53.4-3.2 78.9 1.2 12.7 2.2 25.1 5.6 36.2 10.6 11 4.9 20.7 11.5 26.5 19.5 1.5 1.9 2.8 4 3.7 6.1 0.6 1 0.9 2.1 1.4 3.2l1.9 5.1c2.6 7.1 5.6 13.9 8.6 20.6 6.2 13.5 13.1 26.3 20.4 38.8 29.4 50 64.5 95.2 101.7 138.2 37.4 43 77.4 83.5 119.3 122 41.9 38.3 85.9 74.4 132.3 107.5 46.3 33.1 95 63.3 146.5 88.6 51.5 25.1 106 45.5 163.6 55.4 8.9 1.5 17.3-4.4 18.8-13.3 1.5-8.8-4.4-17.2-13.3-18.7z"/>
					</g>
					<g id="&lt;Group&gt;">
						<path id="&lt;Path&gt;" class="s2" d="m972.4 1691c35.2-11.8 52.8-24.7 67.1-35.3 63.1-46.9 76.6-99.2 132.8-165.9 21.5-25.5 16.2-73-27.3-84.4-57.7-15.1-86.7 47.3-107.8 52.3 2.4-69.5-19.2-262.2-116.6-236.7-60.7 15.9-27.5 115.3-28.6 148-9.4-36-63.7-142.2-132.5-105.7-62.4 33.2 14.3 112.6 20.8 152.1-27.3-52-87.6-89-124.4-51.6-34.4 35 22 102.6 51.8 133.6 8 8.4-0.3 206.1 119.7 207.3 0 0 47.4 4.4 83.7 0.6 33-3.5 61.3-14.3 61.3-14.3z"/>
					</g>
					<g id="&lt;Group&gt;">
						<path id="&lt;Path&gt;" class="s6" d="m1004.5 1472c-32.4 16.1-62.1 0.9-91.2 72.6-12.6 30.9-21.5-27.3-144 7.6-4.4-7.5 7.3-48.9 32-59.6 31.2-13.5 63.6-5 84.1-14.6 18.2-8.5 65.5-57.4 119.1-6z"/>
					</g>
					<g id="&lt;Group&gt;">
						<path id="&lt;Path&gt;" class="s6" d="m1068.8 1553.7c0 0-66.1 109.9-177 118.2-120.7 9-125.1-80.9-125.1-80.9 0 0 64.6 98.7 302.1-37.3z"/>
					</g>
					<g id="&lt;Group&gt;">
						<path id="&lt;Path&gt;" class="s6" d="m2922.9 1518.1c0 0 66.1 109.8 177 118.1 120.8 9 125.1-80.8 125.1-80.8 0 0-64.6 98.6-302.1-37.3z"/>
					</g>
					<g id="&lt;Group&gt;">
						<path id="&lt;Path&gt;" class="s4" d="m972.4 1691c21.8-3 43.7-10 63.5-21.4 5-2.7 9.5-5.6 14.5-8.6l7.3-4.5c2.4-1.6 4.6-3.3 7-5 9.4-6.6 17.9-14.4 26.1-22.5 16.1-16.5 29.3-35.2 41.8-53 12.6-17.9 24.3-35.6 37.2-52.1 3.2-4.1 6.3-8.4 9.7-12.4l4.9-6.1 2.5-3c1.1-1.3 2.4-2.9 3.4-4.4 8.8-12.3 13.4-26.8 13.6-41.5 0.2-14.6-4-29.7-12.9-42.1-8.9-12.5-22.2-21.3-35.6-25.7-6.8-2.2-13.3-3.4-20.3-4.1-6.9-0.7-14.1-0.3-21 0.9-14 2.5-26.6 8.7-37 16-10.4 7.3-18.9 15.9-26.7 23.8-3.8 4-7.4 7.9-10.8 11.1-1.6 1.6-3.3 3.1-4.5 4-1.2 1-2.3 1.6-1.6 1.5l19.9 16.3c0.6-20.3-0.4-40-2.3-59.7-1.8-19.7-4.7-39.4-8.7-58.9-4-19.5-9.3-38.9-16.7-58-7.6-19-17.1-38.2-33-54.7-8-8.1-17.9-15.4-29.6-19.9-11.6-4.4-24.6-5.5-36.4-3.8-2.9 0.5-5.8 1-8.7 1.7-2.8 0.6-5.9 1.6-8.9 2.8-5.9 2.3-11.8 5.6-17 10-10.4 8.7-16.7 20.8-19.9 32-3.4 11.4-4.3 22.4-4.5 32.9-0.1 10.6 0.6 20.8 1.6 30.8 1.1 10 2.5 19.7 3.9 29.2 0.6 4.7 1.3 9.4 1.8 13.8 0.5 4.5 0.9 8.9 0.8 12.1l31.9-3.6c-2.3-8.7-5.2-16.2-8.4-23.7-3.3-7.5-6.8-14.7-10.7-21.8-7.8-14.1-16.7-27.7-27.6-40.3-11-12.5-23.9-24.3-40.8-32.2-8.4-3.9-17.8-6.6-27.6-7.2-9.8-0.7-19.8 0.9-28.8 4-8.9 3.3-16.9 7.4-24.8 13.9-7.8 6.4-14.6 15.9-17.6 26.4-3.1 10.5-2.8 20.8-1.3 29.8 1.5 9.1 4.2 17.3 7.2 25.1 6.2 15.4 13.7 29.2 20.8 42.5 3.6 6.7 7 13.2 10 19.5 2.9 6.2 5.5 12.6 6.2 17.1l30.4-10.2c-5.9-11.9-13-23.3-21.7-33.5-8.6-10.3-18.5-19.7-30.2-27.4-11.6-7.7-24.9-14.1-40.4-16.6-7.7-1.1-16-1.2-24.2 0.4-8.3 1.5-16.3 4.8-23.3 9.2-1.8 1.1-3.5 2.3-5.1 3.5-1.6 1.3-3.3 2.5-4.7 3.9-2.9 2.6-6.1 5.9-8.8 9.6-5.5 7.3-8.9 16.5-10.1 25.2-1.2 8.8-0.4 17 1.1 24.5 1.5 7.4 3.9 14.3 6.6 20.7 5.4 12.8 12.2 24.1 19.6 34.6 7.5 10.5 15.4 20.4 23.7 29.8q6.2 7 12.7 13.8l3.2 3.4 0.9 0.8 0.4 0.4q0.1 0.2-0.3-0.3l-0.7-0.7q-0.6-0.8-1.1-1.6l-0.6-1.1-0.3-0.6c-0.1-0.2-0.3-0.8-0.3-0.9-0.1-0.1-0.1-0.3-0.1-0.3 0.2 0.7 0.8 3.8 1.2 6.4 1.6 11.2 3 23.6 4.9 35.7 3.7 24.2 8.4 48.9 17.1 72.7 4.4 12 9.7 23.7 16.5 34.8 6.8 11 15 21.5 25.1 30.2 9.9 8.6 21.7 15.4 34.3 18.8 12.5 3.5 25.3 3.8 37.3 1.5-11.9-2.6-23.1-6.6-32.7-12.4-9.6-6-17.6-13.5-24.2-22.1-13.2-17.3-21.2-38.3-27-60.1-5.9-21.8-9.7-44.6-12-67.8-1.2-11.7-2-23.2-3.2-35.8-0.4-3.3-0.6-6.3-1.8-11.3-0.1-0.7-0.4-1.7-0.7-2.5-0.1-0.4-0.5-1.3-0.8-2l-0.5-1-0.2-0.5-0.7-1.1q-0.6-1.1-1.4-2.1l-0.8-0.9-0.5-0.5-0.3-0.4-0.8-0.8-2.9-3.2q-5.8-6.4-11.3-12.9c-14.6-17.5-27.9-36.4-35.9-55-3.9-9.2-5.9-18.5-4.9-24.8 0.5-3.2 1.5-5.5 3.1-7.8 1.3-2.1 4.9-5.3 7.8-7.2 6-4 13-5.5 21.3-4.5 8.3 1 17.4 4.6 25.9 9.9 17.1 10.5 32.3 26.8 43 45l0.7 1.1c4.5 7.7 14.4 10.2 22.1 5.7 6-3.6 8.9-10.5 7.7-17-1.9-10.5-5.5-18.1-8.9-25.6-3.5-7.4-7.1-14.3-10.7-21-7.2-13.4-14.2-26.3-19.2-39.1-5.1-12.6-7.7-25.5-5.1-33.7 1.3-4.2 3.5-7.6 7.4-10.8 3.7-3.2 9.4-6.2 14.6-8.1 10.7-3.7 21.4-3 32.1 2 10.7 4.9 20.9 13.7 29.9 24 8.9 10.3 16.8 22.2 23.6 34.6 3.4 6.2 6.5 12.6 9.3 19.1 2.8 6.4 5.3 13 6.9 19l0.1 0.2c2.3 8.7 11.2 13.8 19.8 11.5 7.1-1.9 11.9-8.2 12.1-15.3 0.1-6.4-0.5-11.6-1-16.7-0.6-5.1-1.3-10-2-14.8-1.3-9.6-2.7-18.9-3.6-28-1-9.2-1.6-18.2-1.5-26.9 0.1-8.6 1-17 3.1-24.2 2.1-7.2 5.4-12.7 9.8-16.4 4.4-3.8 10.4-5.9 18.1-7.1 7.3-1 14.1-0.4 20.4 2 6.4 2.4 12.4 6.7 17.9 12.3 11 11.2 19.4 27.1 25.9 43.7 6.6 16.8 11.4 34.6 15.2 52.8 3.8 18.2 6.4 36.7 8.2 55.3 1.7 18.6 2.7 37.5 2.2 55.6-0.7 8.7 5.9 16.3 14.6 16.9q2.4 0.2 4.7-0.4l0.6-0.1c6-1.4 9.7-3.7 13-5.8 3.2-2.1 5.8-4.1 8.2-6.1 4.7-4.1 8.7-7.9 12.7-11.5 7.7-7.3 15.1-13.8 22.7-18.6 7.5-4.9 15.1-8.1 22.7-9.1 3.8-0.6 7.6-0.6 11.5-0.2 3.8 0.5 8 1.3 11.6 2.5 7.1 2.5 12.7 6.6 16.4 11.9 3.8 5.3 5.8 12.2 5.6 19.3-0.1 7.1-2.4 14.2-6.3 19.6-0.5 0.7-0.9 1.2-1.6 2.1l-2.7 3.2-5.3 6.6c-3.6 4.4-6.9 9-10.3 13.4-13.3 18.2-25.2 37.1-36.4 55.6-5.6 9.3-11.2 18.4-16.9 27.1l-4.4 6.5-4.5 6.3c-2.9 4.4-6.1 8.3-9.1 12.5-12.6 16.3-26.4 31.4-42.5 45.8-7.8 7.1-16.1 13.4-25 19.4-8.9 6-18.3 11.5-27.9 17z"/>
					</g>
					<g id="&lt;Group&gt;">
						<path id="&lt;Path&gt;" class="s4" d="m1027.4 1444.7c-2.8 2.9-7.6 6.1-13 8.8-5.4 2.8-11.4 5.5-17.4 8.1-12.2 5.3-25 10.7-37.2 17.7-12.1 7-23.8 15.7-32.3 27.1-8.5 11.3-13.1 24.9-14.2 38.1 3.8-12.8 10.7-24.3 20.2-32.6 9.5-8.4 21-13.8 33-17.8 12.1-4 24.7-6.5 37.9-9.3 6.5-1.4 13.3-2.8 20.3-4.8 7-2 14.4-4.4 22.3-9.4l0.8-0.5c7.7-4.8 10.1-14.9 5.3-22.6-4.8-7.7-14.9-10.1-22.6-5.3-1.1 0.7-2.2 1.6-3.1 2.5z"/>
					</g>
					<g id="&lt;Group&gt;">
						<path id="&lt;Path&gt;" class="s4" d="m957 1386.6c-18.5-10.9-40.8-14.8-62.3-14.8-21.8 0.1-43.5 4.4-63.9 12.5-20.4 8.2-39.5 20.4-54.5 36.7-15.1 16.2-25.7 36.9-27.4 58.3 11.4-18 24.9-32.5 40.3-44.2 15.5-11.8 32.6-20.9 50.6-28.1 18.1-7.3 37-12.6 56.5-16.2 19.6-3.5 39.5-5.3 60.7-4.2z"/>
					</g>
					<g id="&lt;Group&gt;">
						<path id="&lt;Path&gt;" class="s4" d="m1125.4 2189.3c-36.8 0-75.9-8.7-116.2-26.2-7.7-3.4-11.2-12.4-7.9-20.1 3.4-7.7 12.4-11.2 20.1-7.9 120.7 52.5 197.8 8.9 241.2-37 74.2-78.3 94-208.2 62.2-272.1-3.8-7.5-0.7-16.7 6.8-20.5 7.5-3.7 16.6-0.7 20.4 6.9 41 82.2 9.6 225.6-67.3 306.7-44.1 46.5-98.7 70.2-159.3 70.2z"/>
					</g>
					<g id="&lt;Group&gt;">
						<path id="&lt;Path&gt;" class="s2" d="m1474.2 1555.8c18.9 597.2 521 524.5 758.2 496.6 262.3-37 543.6-142.5 530.3-428.8-3.3-71.9-40.9-138.8-97.9-186.2 0 0 17.2-232.8-59.1-361.6-72.1-121.6-394-389-725-404.6-249.4-11.8-363.4 100.1-241 118.8 0 0-113 75.2-88.9 107.2 11.1 14.7 47.9 19 47.9 19 0 0-149.5 372.9-124.5 639.6z"/>
					</g>
					<g id="&lt;Group&gt;">
						<path id="&lt;Path&gt;" class="s2" d="m2232.4 2052.4c244.6-34.5 505.6-128.5 529.1-373.1 1.6-17.8 2.1-36.3 1.2-55.7-3.3-71.9-40.9-138.8-97.9-186.2 0 0 17.2-232.9-59.1-361.6-72.1-121.6-394-389-725-404.6-249.4-11.8-363.4 100.1-241 118.8 0 0-113 75.2-88.8 107.3 11 14.6 47.8 18.9 47.8 18.9 0 0-149.5 372.9-124.5 639.6 0.4 11.5 0.9 22.8 1.7 33.8 36.5 560.6 523.9 490.2 756.5 462.8z"/>
					</g>
					<g id="&lt;Group&gt;" style="opacity: .3">
						<g id="&lt;Group&gt;">
							<g id="&lt;Group&gt;">
								<path id="&lt;Path&gt;" class="s0" d="m1883.7 696.7c331 15.6 652.9 283.1 725 404.7 29 49 44.5 113 52.6 173.6-6.9-67.6-22.5-143.2-55.6-199.2-72.1-121.6-394-389-725-404.6-204.7-9.7-318.2 64-284.6 101 18.2-37.5 123.6-83.2 287.6-75.5z"/>
							</g>
						</g>
					</g>
					<g id="&lt;Group&gt;">
						<path id="&lt;Path&gt;" class="s6" d="m2232.4 2052.4c244.6-34.5 505.6-128.5 529.1-373.1-50.4 109.2-203.9 266.9-603.9 291.6-498.3 30.9-486.6-344.3-518.5-392.2-14-21-86.4-9.1-163.2 10.9 36.5 560.6 523.9 490.2 756.5 462.8z"/>
					</g>
					<g id="&lt;Group&gt;">
						<path id="&lt;Compound Path&gt;" fill-rule="evenodd" class="s4" d="m1997.5 2091c-130.8 0-272.8-23.4-379.3-115.1-102.9-88.6-158.1-229.5-164.2-418.9-21.8-233.6 85.1-540.1 117.2-625.8-13.4-3.9-28.2-10.6-36.6-21.7-6.3-8.5-8.7-18.8-6.8-30 4.8-27.9 39.1-60 67.6-82.4-24.5-14-26.2-33.5-25.2-43.3 5.6-56.5 132.1-111.4 311.4-102.9 188.6 8.9 359.5 95 469.6 165.8 138.8 89 236.6 189.1 271.9 248.8 70.3 118.5 65 315.4 62.6 363.1 58.6 52.1 94 122.3 97.3 194.1 11.2 242.1-178.2 397.7-547.8 449.8l-15.8 1.9c-61.8 7.3-139.6 16.6-221.9 16.6zm-429.7-1205.2c4.6 3.8 20.3 8.7 33.3 10.2 6.2 0.8 11.8 4.4 15 9.8 3.3 5.5 3.8 12.1 1.4 18-1.4 3.7-147.4 371.5-123.1 630.1q0.1 0.6 0.1 1.2c5.6 177.9 56.2 309.1 150.2 390 159.9 137.7 416.5 107.2 569.9 88.9l15.4-1.8c152.7-21.5 273.9-61.1 359.8-117.7 106.9-70.4 158.3-168 152.6-289.9-2.9-63.6-35.9-126.1-90.6-171.6-5-4.1-7.7-10.5-7.2-17.1 0.1-2.2 15.7-228-56.4-349.7-32.9-55.6-125.7-149.9-258.9-235.4-106-68-270-150.9-449.6-159.3-134.5-6.4-229.9 24.3-261.7 55.5-6.1 6-7.5 10-7.4 10.9 0.6 1.4 8.1 8.3 32.2 12 8.3 1.3 14.9 7.5 16.7 15.7 1.9 8.2-1.5 16.6-8.5 21.3-42.5 28.3-81.2 65.2-83.2 78.9z"/>
					</g>
					<g id="&lt;Group&gt;">
						<path id="&lt;Path&gt;" class="s12" d="m1951.5 1622.1c0 0-125.5 75.2-67.1 233.2 74.9 202.5 372.4 189 603.1 95 226.1-92.2 255-271.3 222.1-372.2-26.2-80.6-93.6-107.9-93.6-107.9 0 0 34.7-232.3-46.2-336.2-87.2-111.9-224.5-90.2-269-58.3-47.6 34.2-70.3 134.6-70.3 134.6 0 0-96.1-105.3-233.7-90.9-106.9 11.2-234.3 142.2-205.8 307.4 26.2 151.6 160.5 195.3 160.5 195.3z"/>
					</g>
					<g id="&lt;Group&gt;">
						<path id="&lt;Path&gt;" class="s13" d="m1952.9 1951.3c121.6 98 349.6 74.4 534.6-1 119.6-48.8 184.1-121.9 213.3-194.9-106.2 162.1-569.4 256.6-747.9 195.9z"/>
					</g>
					<g id="&lt;Group&gt;">
						<path id="&lt;Compound Path&gt;" fill-rule="evenodd" class="s4" d="m2175.8 2036.4c-62.2 0-122.2-9.5-174.3-32.4-66.4-29.3-112.2-76.9-136.1-141.7-44.9-121.4 10.8-199.5 47.8-235.1-44.6-23.9-122.2-81.1-142.2-196.9-13.9-80.5 5.9-161 55.6-226.7 44.6-59 107.4-98.1 168.1-104.4 104.7-10.9 186 41.5 225.2 73.8 11.4-35.1 33.6-88.3 69.1-113.8 57.1-41 205.1-55.3 296.8 62.3 74.1 95.1 58.5 283.1 52.2 337.2 23.5 13.5 69.5 47.3 90.9 113.1 30.1 92.2 19.9 293.9-233.8 397.3-92 37.5-209 67.3-319.3 67.3zm-213.8-396.9c-4.5 2.8-110.2 69.1-58.6 208.7 20 54.1 58.5 94 114.4 118.6 111.3 49 288.3 35.5 462-35.3 226-92.1 236.5-267.3 210.5-347.1-22.8-70-79.6-94.4-82-95.4-8.5-3.6-13.7-12.6-12.3-21.8 0.3-2.2 32.4-225-42.2-320.7-79.9-102.5-204.9-80.4-241.1-54.3-33.9 24.3-56.5 96.7-62.4 122.6-1.6 7.4-7.3 13.2-14.6 15.2-7.3 1.9-15.1-0.4-20.1-6-0.9-0.9-91.3-97.5-216.7-84.4-48.9 5.1-102.6 39-140 88.5-42.8 56.7-59.8 126-47.9 195.3 23.7 137.1 141.8 177.8 146.8 179.4 7.6 2.5 13 9.2 13.9 17.1 0.8 7.8-2.9 15.5-9.7 19.6z"/>
					</g>
					<g id="&lt;Group&gt;">
						<path id="&lt;Path&gt;" class="s4" d="m2467.9 1658.3c-6.3 18.2-13 36-22.1 52.2-8.9 16.1-19.6 30.8-32.4 42.8-12.9 11.9-27.6 21.2-43.7 27.6-8 3.3-16.3 5.9-24.8 7.9-8.7 2.1-17.4 3.6-26.1 4.7-34.9 4.2-69.9-1.3-100.6-17.5-30.9-16-56.9-41.8-78-72.2-2.6-3.7-7.7-4.6-11.4-2.1-3.2 2.2-4.3 6.3-2.9 9.8 14.6 36.7 41.2 70.2 76.9 91.8 17.8 10.7 37.8 18.2 58.4 21.9 20.6 3.8 41.7 3.6 62 0.6 10.1-1.6 20.1-3.9 29.8-6.7 9.9-3 19.6-6.7 28.9-11.4 18.7-9.3 35.7-22.4 48.7-38.5 13.2-15.9 22.4-34.4 28.3-53.2 5.8-19 8.8-38.4 9-57.7z"/>
					</g>
					<g id="&lt;Group&gt;">
						<path id="&lt;Path&gt;" class="s4" d="m2255.5 1568.3c-11.8-8.2-19.8-20.2-20.3-32.3-1-11.9 5-23.7 13.2-28.6 8.5-5.1 19.4-4.7 31.5-2.6 6 1 12.4 2.6 18.9 4.5l10.4 3c1.8 0.5 3.8 1.1 6 1.6 1.2 0.2 2.4 0.5 3.9 0.6 0.6 0.1 1.6 0.2 2.5 0.2 0.8 0 2.2-0.1 3.3-0.2q1.2-0.1 2.3-0.6h0.1c3.8-1.5 5.4-2.9 7.1-4.1 1.6-1.2 2.9-2.4 4.2-3.5l7.2-6.2q6.8-5.9 13.1-10.9c4.1-3.3 8.2-6.2 12-8.3 4-1.9 7.4-2.8 11.4-2.4 8 0.6 15.9 7.8 19.7 18 3.9 10 4.8 22.6-1.7 33.3 5.1-3.6 8.9-9.5 11-15.7 2.2-6.4 2.8-13.2 2.1-20.1-0.7-6.9-2.9-13.9-7.1-20.3-4.2-6.3-10.8-11.9-18.7-14.6-3.8-1.3-8.2-2.1-12.5-2.1-4.2 0-8.3 0.7-12.2 1.8-7.6 2.1-14.1 5.8-19.6 9.9-5.6 4.1-10.3 8.8-14.6 13.2-2.2 2.2-4.3 4.4-6.3 6.3-1 0.9-2 1.8-2.8 2.4-0.7 0.7-1.6 1.1-0.7 0.7l2.4-0.6c1.6-0.2 0.3-0.1-0.8-0.4-1.2-0.3-2.7-0.7-4.2-1.2l-9.8-3.5c-6.8-2.5-14.1-4.9-22-6.4-7.8-1.4-16.4-1.9-25.1-0.3-8.8 1.7-17.2 5.6-24.3 11.8-14.1 13-17.4 32.3-12.4 47.9 2.5 7.8 7.1 14.8 13.1 19.7 5.8 5.1 12.7 8.2 19.7 10z"/>
					</g>
					<g id="&lt;Group&gt;">
						<path id="&lt;Path&gt;" class="s4" d="m2112.2 1745c5.8-6.8 10.3-12 14.8-16.5 4.5-4.5 8.7-8 12.9-10.7 4.2-2.6 8.6-4.8 14.4-6.8 5.9-2.1 12.9-3.1 21.6-5.7-5.4-7-12.9-11.8-21.9-13.5-8.9-1.6-19.2 0.2-27.4 5.6-8.3 5.3-13.9 13.6-16.5 22-2.4 8.5-2.2 17.8 2.1 25.6z"/>
					</g>
					<g id="&lt;Group&gt;">
						<path id="&lt;Path&gt;" class="s12" d="m1598.9 1465.2c-34.2-54.5-86.5-58.7-116.3-53.6-41.1 7-78 35.6-90.9 82-19.1 68.7 9.4 166.7 78.1 216.1 38.1 27.4 115.7 33.6 146.6 17.3 23.3-12.2 54.7-130.3-17.5-261.8z"/>
					</g>
					<g id="&lt;Group&gt;">
						<path id="&lt;Compound Path&gt;" fill-rule="evenodd" class="s4" d="m1568.2 1756.2c-39.1 0-83.7-10.9-110.3-30-79.2-56.9-105.8-165.8-85.8-238.1 14.1-50.6 55.1-87.6 107.1-96.5 20.6-3.6 91.4-9.5 136.9 62.7q0.3 0.6 0.6 1.1c53.2 96.9 54.5 190.1 38 244.9-7 23.3-16.7 38.3-28.9 44.7-14.5 7.6-35.1 11.2-57.6 11.2zm-65.7-326c-6.6 0-12.2 0.7-16.4 1.4-36.9 6.3-64.9 31.5-74.8 67.4-16 57.6 6.4 148.3 70.3 194.3 33.5 24.1 101.5 27.5 124.7 16.1 14.4-13.8 39.7-115.6-24.9-233.9-24-37.8-56.8-45.3-78.9-45.3z"/>
					</g>
					<g id="&lt;Group&gt;">
						<path id="&lt;Path&gt;" class="s4" d="m1970.2 1484.9c9.6 69.1 62.8 125 118.7 124.6 56-0.3 93.5-56.6 83.8-125.8-9.7-69.2-62.8-125-118.8-124.7-55.9 0.4-93.4 56.7-83.7 125.9z"/>
					</g>
					<g id="&lt;Group&gt;">
						<path id="&lt;Path&gt;" class="s0" d="m2058.6 1468.2c3.7 26.2 23.9 47.4 45.1 47.3 21.2-0.1 35.5-21.5 31.8-47.7-3.7-26.3-23.9-47.5-45.1-47.4-21.2 0.2-35.4 21.5-31.8 47.8z"/>
					</g>
					<g id="&lt;Group&gt;" style="opacity: .5">
						<g id="&lt;Group&gt;">
							<g id="&lt;Group&gt;">
								<path id="&lt;Path&gt;" class="s0" d="m2044.5 1544.7c1.5 10.9 9.9 19.8 18.8 19.7 8.8 0 14.7-8.9 13.2-19.9-1.5-10.9-9.9-19.7-18.8-19.7-8.8 0.1-14.8 9-13.2 19.9z"/>
							</g>
						</g>
					</g>
					<g id="&lt;Group&gt;">
						<path id="&lt;Path&gt;" class="s4" d="m2393.1 1386.6c8.9 63.1 57.4 114.1 108.4 113.8 51-0.3 85.3-51.7 76.4-114.8-8.8-63.1-57.3-114-108.3-113.8-51.1 0.3-85.3 51.7-76.5 114.8z"/>
					</g>
					<g id="&lt;Group&gt;">
						<path id="&lt;Path&gt;" class="s0" d="m2473.9 1371.4c3.3 24 21.7 43.3 41.1 43.2 19.3-0.1 32.3-19.6 29-43.6-3.4-23.9-21.8-43.2-41.1-43.1-19.4 0.1-32.4 19.6-29 43.5z"/>
					</g>
					<g id="&lt;Group&gt;" style="opacity: .5">
						<g id="&lt;Group&gt;">
							<g id="&lt;Group&gt;">
								<path id="&lt;Path&gt;" class="s0" d="m2460.9 1441.2c1.4 10 9.1 18.1 17.2 18 8 0 13.5-8.1 12.1-18.1-1.4-10-9.1-18.1-17.2-18-8 0-13.5 8.2-12.1 18.1z"/>
							</g>
						</g>
					</g>
					<g id="&lt;Group&gt;">
						<path id="&lt;Path&gt;" class="s13" d="m1444.4 1600.4c23.1 64.7 110.7 104.9 135 29.3l-10.5-68c-48.4-135.5-144.5-69.3-137.5-12 0 0-0.2 12.9 3 25 3.2 12.1 10 25.7 10 25.7z"/>
					</g>
					<g id="&lt;Group&gt;">
						<path id="&lt;Path&gt;" class="s4" d="m1444.4 1600.4c3.1 15.4 10.3 30.2 20.4 43 10.1 12.8 23 23.8 38.8 30.9 7.8 3.5 16.4 5.9 25.6 6.5 9.1 0.6 18.9-1 27.7-5.2 8.8-4.1 16.3-10.8 21.8-18.2 5.6-7.5 9.3-15.7 12.2-24 0.6-1.7 0.7-3.5 0.4-5.2v-0.3l-10.4-68v-0.1c-0.1-0.7-0.3-1.5-0.6-2.2-6.5-17.9-14.8-35.6-27.2-51.3-6.1-7.9-13.4-15.2-22.1-21.1-8.6-5.9-18.8-10.2-29.5-11.6-10.7-1.4-21.7 0.2-31.2 4.4-9.6 4.1-17.8 10.5-24.2 18-6.4 7.6-11.3 16.3-14 25.6-1.3 4.7-2.1 9.4-2.2 14.2-0.1 4.7 0.3 9.4 1.5 13.9 0.5-18.5 10-34.8 22.9-45.5 12.8-10.8 29.5-15.8 44-12.1 14.8 3.4 27.1 14.5 36.6 27.9 9.6 13.5 16.7 29.4 22.6 45.8l-0.6-2.2 10.6 68 0.5-5.5c-4 13-10.8 24.3-21 29.9-10.1 5.9-23.9 6-37.1 1.8-13.4-4.1-26.1-12-37.3-21.7-11.2-9.9-20.8-21.9-28.2-35.7z"/>
					</g>
					<g id="&lt;Group&gt;">
						<path id="&lt;Path&gt;" class="s12" d="m1598.4 1646.9c0 0-66.9-3.2-74.3-46.8-5.9-34.9 29.9-52.2 57.6-57"/>
					</g>
					<g id="&lt;Group&gt;">
						<path id="&lt;Path&gt;" class="s4" d="m1598.4 1646.9c-14.7-7.4-28.3-13.8-39.5-21.6-5.5-3.9-10.3-8-13.7-12.4-3.6-4.3-5.7-8.8-6.9-13.9-0.6-2.5-0.9-5.3-1-7.7 0-2.6 0.3-5 0.9-7.4 1.3-4.8 4-9.8 8.2-14.6 4.2-4.8 9.6-9.4 15.6-13.7 6-4.3 12.6-8.3 19.7-12.5-8.2-1.6-16.5-1.3-24.8 0.1-8.2 1.5-16.5 4.4-24.3 9.4-7.6 4.9-15 12.3-19.1 22-2.2 4.8-3.5 10-3.8 15.2-0.5 5.3-0.1 10.2 1 15.2 1.9 10.1 7.4 19.7 14.4 26.5 7.1 7 15.4 11.5 23.7 14.4 8.3 2.9 16.8 4.2 25.1 4.4 8.3 0.1 16.6-0.7 24.5-3.4z"/>
					</g>
					<g id="&lt;Group&gt;">
						<path id="&lt;Path&gt;" class="s4" d="m2372.4 1523.2c-8.1 5.2-15.2 10.1-22.3 13.9-3.5 1.9-7 3.5-10.4 4.5-0.9 0.4-1.7 0.6-2.5 0.8-0.9 0.2-1.7 0.4-2.7 0.6q-2.9 0.6-5.9 0.9c-7.8 1.1-15.8 0.9-24-0.2-8.3-1.2-16.7-3.2-25.6-6.2 2.6 4 6.1 7.3 9.8 10.2 3.8 3 8 5.4 12.4 7.3 8.9 4 19 5.7 29 4.9q3.8-0.3 7.4-1c1.2-0.2 2.6-0.6 3.9-1 1.3-0.3 2.6-0.7 3.8-1.3 5-2 9.3-5 13-8.4 3.6-3.4 6.7-7.3 9.1-11.5 2.3-4.2 4.3-8.6 5-13.5z"/>
					</g>
					<g id="&lt;Group&gt;">
						<path id="&lt;Path&gt;" class="s10" d="m2517.7 2012.2c0 0-384.3 119.8-889.1-32 0 0-18.2 50.9 48.1 89.8 234 137.1 664.7 108.1 797.6 39.4 63.2-32.6 43.4-97.2 43.4-97.2z"/>
					</g>
					<g id="&lt;Group&gt;">
						<path id="&lt;Path&gt;" class="s11" d="m1676.7 2070c234 137.1 664.7 108.1 797.6 39.4 35.2-18.1 44.6-46.2 46.1-67.5-5.6 4.8-12.2 9.3-20.1 13.4-142.6 73.7-605.1 104.8-856.4-42.4-6.6-3.8-12.4-7.8-17.5-11.8 1.3 18.4 10.8 45.8 50.3 68.9z"/>
					</g>
					<g id="&lt;Group&gt;">
						<path id="&lt;Compound Path&gt;" fill-rule="evenodd" class="s4" d="m2124.1 2187.1c-159.5 0-334.1-27.2-457.6-99.6-64-37.5-65.3-91-57-114.1 3.6-10.2 14.6-15.8 24.9-12.6 492.4 148 873.4 33.2 877.2 32 5.2-1.6 10.8-1.1 15.5 1.4 4.8 2.6 8.4 6.9 10 12 8.5 28 8.4 89.3-53.5 121.3-66.8 34.5-206.2 59.6-359.5 59.6zm-476.5-180.2c3 12.8 12.5 29.9 39.4 45.6 227 133 651.8 104.1 778 38.9 28.3-14.7 34.9-37.1 35.5-53.4-37.9 9.6-120.5 27.4-236.7 35.4-142.3 9.8-362.9 5.8-616.2-66.5z"/>
					</g>
					<g id="&lt;Group&gt;" style="opacity: .7">
						<g id="&lt;Group&gt;">
							<g id="&lt;Group&gt;">
								<path id="&lt;Path&gt;" class="s0" d="m1900.8 773.2c22.8-10.7 287.5-138 184.4-173.7-90.9-31.4-292.8 24.7-365.1 65.5-66.7 37.8-221.7 161.1-200.1 231.1 21.7 70 318.4-93.7 380.8-122.9z"/>
							</g>
						</g>
					</g>
					<g id="&lt;Group&gt;" style="opacity: .7">
						<g id="&lt;Group&gt;">
							<g id="&lt;Group&gt;">
								<path id="&lt;Path&gt;" class="s0" d="m1491.7 1078.1c19.8-29.8 58.1-128.7-6.4-130.7-40.7-1.2-111.8 44.6-131.5 106.3-19.4 60.6 0.2 117.5 25.2 124.1 51.4 13.6 84.4-56.8 112.7-99.7z"/>
							</g>
						</g>
					</g>
				</g>
			</g>
		</g>
	</g>
</svg>