<svg version="1.2" xmlns="http://www.w3.org/2000/svg" viewBox="0 0 3390 3390" width="3390" height="3390">
	<title>7400_7_07-ai (2)</title>
	<style>
		tspan { white-space:pre } 
		.s0 { fill: #35374d } 
		.s1 { fill: #6c6a74 } 
		.s2 { fill: #585463 } 
		.s3 { fill: #313849 } 
		.s4 { fill: #85808c } 
		.s5 { fill: #b2afb5 } 
		.s6 { fill: #9a94a2 } 
		.s7 { fill: #73707a } 
		.s8 { fill: #ffffff } 
		.s9 { fill: #4dbaeb } 
		.s10 { fill: #232323 } 
		.s11 { fill: #ffdf4f } 
	</style>
	<g id="_Artboards_">
	</g>
	<g id="Layer 1">
		<g id="&lt;Group&gt;">
			<g id="&lt;Group&gt;">
				<g id="&lt;Group&gt;">
					<g id="&lt;Group&gt;">
					</g>
				</g>
			</g>
			<g id="&lt;Group&gt;">
				<g id="&lt;Group&gt;" style="opacity: .2">
					<g id="&lt;Group&gt;">
						<g id="&lt;Group&gt;">
							<path id="&lt;Path&gt;" class="s0" d="m2835.3 3031.8c0-126.2-510.5-228.5-1140.3-228.5-629.8 0-1140.3 102.3-1140.3 228.5 0 126.2 510.5 228.5 1140.3 228.5 629.8 0 1140.3-102.3 1140.3-228.5z"/>
						</g>
					</g>
				</g>
				<g id="&lt;Group&gt;">
					<g id="&lt;Group&gt;">
						<g id="&lt;Group&gt;">
							<g id="&lt;Group&gt;">
								<g id="&lt;Group&gt;">
									<path id="&lt;Path&gt;" class="s1" d="m1818.5 2513.6c61.8 29.1 118.7 62.7 167.8 103.3 11.4 9.4 18.3 23.1 19.3 37.8l13.9 193.9 336.5-12.8-73.8-698.3z"/>
								</g>
							</g>
						</g>
						<g id="&lt;Group&gt;">
							<g id="&lt;Group&gt;">
								<g id="&lt;Group&gt;">
									<path id="&lt;Path&gt;" class="s2" d="m1818.5 2513.6c61.8 29.1 118.7 62.7 167.8 103.3 11.4 9.4 18.3 23.1 19.3 37.8l13.9 193.9 336.5-12.8-73.8-698.3z"/>
								</g>
							</g>
						</g>
						<g id="&lt;Group&gt;">
							<g id="&lt;Group&gt;">
								<g id="&lt;Group&gt;">
									<path id="&lt;Compound Path&gt;" fill-rule="evenodd" class="s3" d="m2019.4 2869.2c-10.7 0-19.7-8.4-20.5-19.2l-13.8-193.9c-0.7-9.1-5-17.6-11.9-23.3-44.8-37-98.3-69.9-163.5-100.5-6.4-3-10.8-9.1-11.7-16.2-0.8-7 2-14 7.5-18.5l463.8-376.1c5.8-4.8 13.8-5.9 20.8-3.1 7 2.9 11.8 9.4 12.6 16.9l73.8 698.4c0.6 5.6-1.2 11.3-4.9 15.6-3.7 4.3-9.1 6.9-14.8 7.1l-336.6 12.8q-0.4 0-0.8 0zm-162.8-359.9c55.4 28.1 102.3 58.3 142.9 91.7 15.5 12.9 25.2 31.9 26.7 52.2l12.4 174 294.6-11.1-67.5-638.7z"/>
								</g>
							</g>
						</g>
						<g id="&lt;Group&gt;">
							<g id="&lt;Group&gt;">
								<g id="&lt;Group&gt;">
									<g id="&lt;Group&gt;">
										<path id="&lt;Path&gt;" class="s4" d="m2066.6 2804.8c0 0-100.8 24.7-92 84.4 3.7 25.4 23.1 43.4 71.8 34.1 37.3-7.1 77.7-17.3 117.6 5.3 22.5 12.7 52.7 45.3 85 60.1 25 11.6 59.4 12.7 76.1-15.3 0 0 50.3 24.4 68.2-19.5 0 0 48.7 3 43.1-46.8-5.8-50.8-134.9-120.4-198.8-120.4-51.2 0-171 18.1-171 18.1z"/>
									</g>
								</g>
							</g>
							<g id="&lt;Group&gt;">
								<g id="&lt;Group&gt;">
									<g id="&lt;Group&gt;">
										<path id="&lt;Path&gt;" class="s4" d="m1974.6 2889.2c3.7 25.4 23.1 43.4 71.8 34.1 37.4-7.1 77.7-17.3 117.6 5.3 22.5 12.7 52.7 45.3 85 60.1 25 11.6 59.4 12.7 76-15.3 0 0 50.4 24.4 68.3-19.5 0 0 48.7 3 43.1-46.7-0.8-6.8-3.7-13.9-8.5-21.1-7.8 28.3-41.8 26.3-41.8 26.3-17.9 43.8-68.3 19.4-68.3 19.4-16.6 28-51 26.9-76.1 15.4-32.2-14.9-62.4-47.5-84.9-60.1-40-22.7-80.3-12.5-117.6-5.4-33.4 6.4-53-0.1-63.3-13-1.8 6.3-2.4 13.1-1.3 20.5z"/>
									</g>
								</g>
							</g>
							<g id="&lt;Group&gt;">
								<g id="&lt;Group&gt;">
									<g id="&lt;Group&gt;">
										<path id="&lt;Compound Path&gt;" fill-rule="evenodd" class="s3" d="m2282.1 3014.2c-14.1 0-28.3-3.4-40.7-9.1-21-9.7-40.4-25.4-57.5-39.3-10.7-8.8-20.8-17-28.8-21.5-31.4-17.8-63.5-11.5-97.5-4.8l-7.8 1.5c-29.8 5.7-53.3 2.7-69.8-9.1-12.7-9-20.7-22.9-23.3-40.1-11-75 100.9-103.4 105.6-104.5q0.8-0.2 1.7-0.4c4.9-0.7 121.6-18.2 173.6-18.2q0 0 0 0c70 0 209.4 72.2 216.7 136.4 2.9 25.5-5.9 40.7-13.8 49-11.1 11.7-25.6 15.8-35.9 17.2-6.7 10.8-15.9 18.6-27.2 22.9-16.8 6.4-34.3 3.9-46.1 0.6-13.3 13.8-31.2 19.4-49.2 19.4zm-173.1-117.5c20.7 0 42.2 3.9 63.9 16.2 10.6 6 21.8 15.2 33.8 24.9 15.4 12.6 32.9 26.8 49.8 34.6 14 6.4 41 12 53.1-8.2 4.7-8.1 14.9-11.2 23.3-7.1 5 2.4 20.6 7.7 31.7 3.4 3.3-1.3 8.2-4.1 12-13.4 2.9-7.1 10.1-11.6 17.8-11.2 3.6 0.2 14.4-0.7 20-6.7 3.7-4 5.1-10.8 4.1-20-4.2-37.1-120.8-104.4-180.9-104.4q0 0 0 0c-46.9 0-155.9 16-167.3 17.7-8 2.2-83.7 24.1-77.9 64.1 1.1 7.4 3.9 12.7 8.5 16 8.1 5.7 22.6 6.7 42.1 3l7.7-1.5c18.4-3.6 38-7.4 58.3-7.4z"/>
									</g>
								</g>
							</g>
							<g id="&lt;Group&gt;">
								<g id="&lt;Group&gt;">
									<g id="&lt;Group&gt;">
										<path id="&lt;Path&gt;" class="s0" d="m2246 2873.2c43.7 17.6 98.3 48.2 95.5 103.1-0.2 9.7-8.5 17.5-18.3 16.7-9.3-0.8-16.2-8.9-15.5-18.2 2.3-9.5 4.9-18 1.1-29.2-10-30.3-37.2-53.9-62.8-72.4z"/>
									</g>
								</g>
							</g>
							<g id="&lt;Group&gt;">
								<g id="&lt;Group&gt;">
									<g id="&lt;Group&gt;">
										<path id="&lt;Path&gt;" class="s0" d="m2308.4 2850c37.9 16.1 88.7 40.7 100.7 84.1 3.8 15.2 1.7 43.4-20.6 39.2-9.1-2.1-14.8-11.1-12.7-20.2 0.4-1.5 0.9-3 1.6-4.3 4-7.2 3.3-15.5 0.5-23.8-12.7-31.3-42.4-55.3-69.5-75z"/>
									</g>
								</g>
							</g>
						</g>
					</g>
					<g id="&lt;Group&gt;">
						<g id="&lt;Group&gt;">
							<g id="&lt;Group&gt;">
								<g id="&lt;Group&gt;">
									<path id="&lt;Path&gt;" class="s1" d="m1566 2513.6c-61.8 29.1-118.6 62.7-167.8 103.3-11.3 9.4-18.2 23.1-19.3 37.8l-13.8 193.9-336.6-12.8 73.8-698.3z"/>
								</g>
							</g>
						</g>
						<g id="&lt;Group&gt;">
							<g id="&lt;Group&gt;">
								<g id="&lt;Group&gt;">
									<path id="&lt;Path&gt;" class="s2" d="m1566 2513.6c-61.8 29.1-118.6 62.7-167.8 103.3-11.3 9.4-18.2 23.1-19.3 37.8l-13.8 193.9-336.6-12.8 73.8-698.3z"/>
								</g>
							</g>
						</g>
						<g id="&lt;Group&gt;">
							<g id="&lt;Group&gt;">
								<g id="&lt;Group&gt;">
									<path id="&lt;Compound Path&gt;" fill-rule="evenodd" class="s3" d="m1365.1 2869.2q-0.4 0-0.8 0l-336.6-12.8c-5.7-0.2-11-2.8-14.8-7.1-3.7-4.3-5.5-10-4.9-15.6l73.8-698.4c0.8-7.5 5.6-14 12.6-16.9 7-2.8 15-1.7 20.9 3.1l463.7 376.1c5.5 4.5 8.3 11.5 7.5 18.5-0.9 7.1-5.3 13.2-11.7 16.2-65.2 30.6-118.7 63.5-163.5 100.5-6.8 5.7-11.2 14.2-11.8 23.3l-13.9 193.9c-0.7 10.8-9.8 19.2-20.5 19.2zm-313.8-53.1l294.6 11.1 12.5-174c1.4-20.3 11.2-39.3 26.7-52.2 40.5-33.4 87.5-63.6 142.9-91.7l-409.2-331.9z"/>
								</g>
							</g>
						</g>
						<g id="&lt;Group&gt;">
							<g id="&lt;Group&gt;">
								<g id="&lt;Group&gt;">
									<g id="&lt;Group&gt;">
										<path id="&lt;Path&gt;" class="s4" d="m1317.9 2804.8c0 0 100.8 24.7 92.1 84.4-3.8 25.4-23.2 43.4-71.9 34.1-37.3-7.1-77.6-17.3-117.6 5.3-22.5 12.7-52.7 45.3-84.9 60.1-25.1 11.6-59.5 12.7-76.1-15.3 0 0-50.4 24.4-68.3-19.5 0 0-48.7 3-43-46.8 5.7-50.8 134.8-120.4 198.8-120.4 51.2 0 170.9 18.1 170.9 18.1z"/>
									</g>
								</g>
							</g>
							<g id="&lt;Group&gt;">
								<g id="&lt;Group&gt;">
									<g id="&lt;Group&gt;">
										<path id="&lt;Path&gt;" class="s4" d="m1410 2889.2c-3.8 25.4-23.2 43.4-71.9 34.1-37.3-7.1-77.6-17.3-117.6 5.3-22.5 12.7-52.7 45.3-84.9 60.1-25.1 11.6-59.5 12.7-76.1-15.3 0 0-50.4 24.4-68.3-19.5 0 0-48.7 3-43-46.7 0.7-6.8 3.7-13.9 8.4-21.1 7.9 28.3 41.9 26.3 41.9 26.3 17.9 43.8 68.2 19.4 68.2 19.4 16.6 28 51 26.9 76.1 15.4 32.3-14.9 62.5-47.5 85-60.1 39.9-22.7 80.2-12.5 117.6-5.4 33.3 6.4 53-0.1 63.2-13 1.8 6.3 2.5 13.1 1.4 20.5z"/>
									</g>
								</g>
							</g>
							<g id="&lt;Group&gt;">
								<g id="&lt;Group&gt;">
									<g id="&lt;Group&gt;">
										<path id="&lt;Compound Path&gt;" fill-rule="evenodd" class="s3" d="m1102.5 3014.2c-18.1 0-35.9-5.6-49.3-19.4-11.8 3.3-29.3 5.8-46-0.6-11.3-4.3-20.6-12.1-27.3-22.9-10.2-1.4-24.7-5.5-35.8-17.2-7.9-8.3-16.7-23.5-13.9-49 7.3-64.2 146.7-136.4 216.7-136.4q0.1 0 0.1 0c51.9 0 168.6 17.5 173.6 18.2q0.8 0.2 1.6 0.4c4.8 1.1 116.6 29.5 105.6 104.5-2.5 17.2-10.6 31.1-23.3 40.1-16.5 11.8-40 14.8-69.8 9.1l-7.8-1.5c-34-6.7-66.1-13-97.5 4.8-7.9 4.5-18.1 12.7-28.8 21.5-17.1 13.9-36.4 29.6-57.5 39.3-12.4 5.7-26.6 9.1-40.6 9.1zm-43.1-58.8c6.2 0 12.2 3.1 15.6 8.8 12 20.2 39 14.6 53 8.2 16.9-7.8 34.4-22 49.9-34.6 11.9-9.7 23.2-18.9 33.7-24.9 43.1-24.3 85.2-16.1 122.3-8.8l7.6 1.5c19.5 3.7 34.1 2.7 42.1-3 4.6-3.3 7.4-8.6 8.5-16 5.9-40-69.8-61.9-77.9-64.1-11.3-1.7-120.3-17.7-167.2-17.7q-0.1 0-0.1 0c-60 0-176.6 67.3-180.8 104.4-1.1 9.3 0.3 16.1 4.1 20.1 5.8 6.1 17.4 6.8 19.9 6.6 7.7-0.4 14.9 4.1 17.8 11.2 3.8 9.3 8.7 12.1 12.1 13.4 11 4.3 26.6-1 31.7-3.4 2.5-1.2 5.1-1.7 7.7-1.7z"/>
									</g>
								</g>
							</g>
							<g id="&lt;Group&gt;">
								<g id="&lt;Group&gt;">
									<g id="&lt;Group&gt;">
										<path id="&lt;Path&gt;" class="s0" d="m1138.5 2873.2c-25.6 18.4-52.7 42.1-62.8 72.4-2.8 9.1-2.4 17.7 0.2 24.8 3.1 8.8-1.4 18.5-10.2 21.6-10.7 4.1-22.6-4.3-22.6-15.7-2.8-54.9 51.8-85.5 95.4-103.1z"/>
									</g>
								</g>
							</g>
							<g id="&lt;Group&gt;">
								<g id="&lt;Group&gt;">
									<g id="&lt;Group&gt;">
										<path id="&lt;Path&gt;" class="s0" d="m1076.1 2850c-27.1 19.7-56.8 43.7-69.4 75-2.9 8.3-3.5 16.6 0.4 23.8 4.4 8.3 1.4 18.5-6.9 23-8.2 4.4-18.4 1.3-22.9-6.9-4.2-9.5-4-21.2-1.9-30.8 12.1-43.5 62.8-68 100.7-84.1z"/>
									</g>
								</g>
							</g>
						</g>
					</g>
				</g>
				<g id="&lt;Group&gt;">
					<g id="&lt;Group&gt;">
						<g id="&lt;Group&gt;">
							<g id="&lt;Group&gt;">
								<path id="&lt;Path&gt;" class="s1" d="m2388.6 1467.7c27.4 366.3-47.5 747.6-280.9 886.9-0.1 0.1-0.1 0.1-0.1 0.1-25 14.9-51.7 27-80.3 36-4.9 1.6-9.9 3.1-14.9 4.4-65.3 98.8-149.4 153.8-254.5 160.5q-0.3 0-0.6 0c-3.9 0.3-7.8 0.4-11.7 0.5q-5.3 0.2-10.7 0.2c-2.8 0-5.6-0.1-8.4-0.1-7.6-0.3-15.3-0.7-23.1-1.3-0.8 0-1.7 0.1-2.5 0.2-11.5 0.9-22.8 1.3-33.8 1.1-113.6-1.1-203.7-56.7-272.7-161.1-12.5-3.4-24.5-7.3-36.3-11.8-33.6-12.8-64.4-30.1-92.6-51.2-207-154.6-273.4-516.3-247.3-864.4"/>
							</g>
						</g>
					</g>
					<g id="&lt;Group&gt;">
						<g id="&lt;Group&gt;">
							<g id="&lt;Group&gt;">
								<path id="&lt;Path&gt;" class="s2" d="m2503.8 1691.8c0 183.5-357.6 332.3-798.7 332.3-441 0-798.6-148.8-798.6-332.3 0-183.6 357.6-332.4 798.6-332.4 441.1 0 798.7 148.8 798.7 332.4z"/>
							</g>
						</g>
					</g>
					<g id="&lt;Group&gt;">
						<g id="&lt;Group&gt;">
							<g id="&lt;Group&gt;">
								<path id="&lt;Compound Path&gt;" fill-rule="evenodd" class="s5" d="m2188.5 2270.2c-20.6 30.4-46.2 60.9-77 84.4-0.1 0.1-0.1 0.1-0.1 0.1-25 14.9-51.7 27-80.4 36-4.9 1.6-9.8 3.1-14.8 4.4-65.3 98.8-149.4 153.8-254.5 160.5q-0.3 0-0.7 0c-3.8 0.3-7.7 0.4-11.6 0.5q-5.3 0.2-10.7 0.2c-2.8 0-5.6-0.1-8.4-0.1-8.4-0.1-17-0.5-25.6-1.1-0.9-0.1-1.8-0.2-2.8-0.2q-15.7 1.2-31 1.3c-113.6-1.1-203.7-56.7-272.8-161.1-12.4-3.4-24.4-7.3-36.2-11.8-33.6-12.8-64.4-30.1-92.6-51.2-19.6-19.1-36.6-40.5-51-61.9-48.6-63-71.6-150.1-59.3-229.8 15.2-98.7 99.6-175.7 206.6-195.2 126.5-22.9 266.1 22.5 337.8 123.8 70-99 205-144.7 329-125.2 113.9 17.8 203.2 99.5 216.4 204.3 9.8 77.5-13.2 161.1-60.3 222.1zm-829.7 5.9c-0.6 1.1-1.2 2.2-1.6 3.3 0.2-0.3 0.4-0.7 0.8-1.1z"/>
							</g>
						</g>
					</g>
					<g id="&lt;Group&gt;">
						<g id="&lt;Group&gt;">
							<g id="&lt;Group&gt;">
								<path id="&lt;Compound Path&gt;" fill-rule="evenodd" class="s5" d="m2188.5 2270.2c-20.6 30.4-46.2 60.9-77 84.4-0.1 0.1-0.1 0.1-0.1 0.1-25 14.9-51.7 27-80.3 36-4.9 1.6-9.9 3.1-14.9 4.4-65.3 98.8-149.4 153.8-254.5 160.5q-0.3 0-0.6 0c-3.9 0.3-7.8 0.4-11.7 0.5q-5.3 0.2-10.7 0.2c-2.8 0-5.6-0.1-8.4-0.1-8.4-0.1-17-0.5-25.6-1.1-0.9-0.1-1.8-0.2-2.7-0.2q-15.8 1.2-31.1 1.3c-113.6-1.1-203.7-56.7-272.7-161.1-12.5-3.4-24.5-7.3-36.3-11.8-33.6-12.8-64.4-30.1-92.6-51.2-19.5-19.1-36.5-40.5-51-61.9-48.6-63-71.6-150.1-59.3-229.8 3-19.2 8.6-37.6 16.5-54.9 6.1-13.6 13.7-26.5 22.6-38.7 37.5-51.7 97.7-88.9 167.5-101.6 21.6-3.9 43.5-5.8 65.4-5.8h0.3c106.6 0 212.7 45.6 272.1 129.6 59.4-84 165.5-129.6 272.1-129.6h0.1c3.5 0 7.1 0 10.7 0.1 15.4 0.5 30.9 1.9 46.1 4.3 73.8 11.5 137.3 49.9 176.4 104 8.9 12.2 16.6 25.3 22.7 39 8.7 19.2 14.6 39.8 17.4 61.3 9.7 77.5-13.3 161.1-60.4 222.1zm-829.7 5.9c-0.6 1.1-1.1 2.2-1.6 3.3 0.2-0.3 0.5-0.7 0.8-1.1z"/>
							</g>
						</g>
					</g>
					<g id="&lt;Group&gt;">
						<g id="&lt;Group&gt;">
							<g id="&lt;Group&gt;">
								<path id="&lt;Path&gt;" class="s6" d="m1532.8 2516.8c-16-17.1-22.3-42.6-16.3-65.3 9-33.4 41.1-55.2 73-68.7 73.4-31.2 160.7-33.7 231.6 2.9 22.5 11.6 43.6 27.3 57.1 48.7 13.6 21.4 18.7 49 9.4 72.6 45.7-23.8 84.1-61.2 109.1-106.3-44.1 2.5-87.9-4.4-130-17.8-93.3-29.7-120-56.7-120-56.7-7.5-4.6-22.1-13.8-41.6-13.5-24 0.4-39.8 15-52.8 24.5-79.7 58.2-237 57-243 57-1.8 0-3.7 0.1-5.1 1.2-1.7 1.5-2 4-1.8 6.2 1 16.8 15.1 29.5 28.2 40.1q46.6 38.1 93.2 76.3-0.7 2.8-1.4 5.7"/>
							</g>
						</g>
					</g>
					<g id="&lt;Group&gt;">
						<g id="&lt;Group&gt;">
							<g id="&lt;Group&gt;">
								<path id="&lt;Compound Path&gt;" fill-rule="evenodd" class="s3" d="m1734.9 2577q-3.9 0-7.9-0.1h-0.9c-8.2-0.3-15.6-0.7-22.7-1.3q-0.6 0.1-1.3 0.1c-11.8 1-23.9 1.4-35.3 1.2-116-1.2-212-56.3-285.4-163.9-10.5-3.1-20.8-6.6-30.6-10.3-34.6-13.3-67.5-31.4-97.7-54-101.5-75.8-175.1-200.7-218.7-371.1-38-148.7-50.8-325.5-36.8-511.5 0.8-11.4 10.8-19.9 22.2-19.1 11.4 0.9 19.9 10.8 19 22.2-13.6 181.5-1.3 353.8 35.7 498.1 41.2 161.1 109.6 278.2 203.4 348.2 27.1 20.4 56.6 36.7 87.6 48.5 11 4.2 22.5 7.9 34.3 11.2 4.9 1.3 9 4.3 11.8 8.5 66.9 101.1 150.5 150.8 255.7 151.9 10.2 0.1 20.9-0.3 31.9-1.2l2.9-0.2q1.5-0.1 3.1 0c6.9 0.6 14.1 1.1 22 1.3h0.5c5.9 0.1 11.6 0.1 17.3 0 3.7-0.1 7.3-0.3 10.9-0.5q0 0 0 0 0.4 0 0.7-0.1c97.3-6.1 175.4-55.6 238.6-151.2 2.7-4.2 7-7.3 11.9-8.6 4.1-1.1 8.5-2.4 13.9-4.1 26.4-8.3 51.7-19.7 75.5-33.7q0.3-0.2 0.6-0.4c237-141.6 295.3-541 270.8-867.7-0.8-11.4 7.7-21.3 19.1-22.2 11.4-0.8 21.3 7.7 22.2 19.1 14.7 196.8-0.2 382.1-43.3 535.7-49.8 177.3-132.9 301.8-247 370.2q-0.3 0.2-0.7 0.4c-26.6 15.9-55.1 28.7-84.7 38.1-2.9 0.9-5.6 1.7-8.1 2.5-69.1 101.3-158.4 156.2-265.4 163.2q-1 0.1-1.9 0.1c-3.9 0.3-7.9 0.4-11.9 0.5q-5.6 0.2-11.3 0.2zm16.8-41.1q-0.1 0-0.1 0 0 0 0.1 0zm0-0.1q0 0 0 0 0 0 0 0zm355.9-181.1h0.1z"/>
							</g>
						</g>
					</g>
					<g id="&lt;Group&gt;">
						<g id="&lt;Group&gt;">
							<g id="&lt;Group&gt;">
								<path id="&lt;Path&gt;" class="s3" d="m1292.9 2326.4c77.3 59.4 184.7 65.8 275.6 35.8 27.8-8.2 64.9-28 91.3-40.8 12.1-5.7 21.4 11.8 9.7 18.6 0 0-44.7 24.8-44.7 24.8-108.4 59.8-251.4 67.6-356.2-4.9-22.6-16.6 1.4-49.9 24.3-33.5z"/>
							</g>
						</g>
					</g>
					<g id="&lt;Group&gt;">
						<g id="&lt;Group&gt;">
							<g id="&lt;Group&gt;">
								<path id="&lt;Path&gt;" class="s3" d="m2140.5 2359.9c-89.8 62.2-209.2 65.4-308.6 26.9-28.6-10-65.5-32.1-92.3-46.8-11.6-6.8-2.6-24.3 9.7-18.6 9.1 4.4 48.7 24.2 57 27.8 70.2 30.6 151.9 40.6 225.8 19.2 30.6-8.9 59.3-23.1 84.2-42.1 22.7-16.1 46.9 16.9 24.2 33.6z"/>
							</g>
						</g>
					</g>
					<g id="&lt;Group&gt;">
						<g id="&lt;Group&gt;">
							<g id="&lt;Group&gt;">
								<path id="&lt;Path&gt;" class="s5" d="m1392.1 2276.1l-0.7 2.2q-0.5 0.6-0.8 1.1c0.4-1.1 1-2.2 1.5-3.3z"/>
							</g>
						</g>
					</g>
					<g id="&lt;Group&gt;">
						<g id="&lt;Group&gt;">
							<g id="&lt;Group&gt;">
								<path id="&lt;Path&gt;" class="s5" d="m1392.1 2276.1l-0.7 2.2q-0.5 0.6-0.8 1.1c0.4-1.1 1-2.2 1.5-3.3z"/>
							</g>
						</g>
					</g>
					<g id="&lt;Group&gt;">
						<g id="&lt;Group&gt;">
							<g id="&lt;Group&gt;">
								<path id="&lt;Path&gt;" class="s6" d="m2208.8 1947.8c-137.4 34.9-312.7 55.7-503.7 55.7-192.5 0-369.1-21.2-507-56.7 37.5-51.7 97.7-88.9 167.5-101.6 21.6-3.9 43.5-5.8 65.4-5.8h0.3c106.6 0 212.7 45.6 272.1 129.6 59.4-84 165.5-129.6 272.1-129.6h0.1c3.5 0 7.1 0 10.7 0.1 15.4 0.5 30.9 1.9 46.1 4.3 73.8 11.5 137.3 49.9 176.4 104z"/>
							</g>
						</g>
					</g>
					<g id="&lt;Group&gt;">
						<g id="&lt;Group&gt;">
							<g id="&lt;Group&gt;">
								<path id="&lt;Path&gt;" class="s7" d="m1396 2325.6c0 9.9 32.3 18 72.1 18 39.9 0 72.2-8.1 72.2-18 0-10-32.3-18.1-72.2-18.1-39.8 0-72.1 8.1-72.1 18.1z"/>
							</g>
						</g>
					</g>
					<g id="&lt;Group&gt;">
						<g id="&lt;Group&gt;">
							<g id="&lt;Group&gt;">
								<path id="&lt;Path&gt;" class="s7" d="m1880.3 2325.6c0 9.9 32.3 18 72.2 18 39.8 0 72.1-8.1 72.1-18 0-10-32.3-18.1-72.1-18.1-39.9 0-72.2 8.1-72.2 18.1z"/>
							</g>
						</g>
					</g>
				</g>
				<g id="&lt;Group&gt;">
					<g id="&lt;Group&gt;">
						<g id="&lt;Group&gt;">
							<g id="&lt;Group&gt;">
								<path id="&lt;Path&gt;" class="s5" d="m2610.5 2962.3c-17 40.8-58.7 66-102.8 62.7-26.1-2-47.1-7.6-65.3-12.4-21.9-5.7-44.9-6.4-67.1-1.4-67.8 15.3-146 14.1-188.9-18.9-10-7.7-16.8-18.7-19.7-30.9-9.8-40.8-12.8-90.1-6.6-136.3 2.2-17.4 5.9-34.2 10.8-50l342.3-66.6 73.2-14.2-5.8 103.9c48.6 28.4 54.6 105 29.9 164.1z"/>
							</g>
						</g>
					</g>
					<g id="&lt;Group&gt;">
						<g id="&lt;Group&gt;">
							<g id="&lt;Group&gt;">
								<path id="&lt;Path&gt;" class="s6" d="m2578.3 2801.8c0 71.3-95.5 129.2-213.4 129.2-103.1 0-189.2-44.3-209.1-103.2 2.3-17.7 5.9-34.9 10.9-51.1l345.8-68.2c40.6 23.5 65.8 56.6 65.8 93.3z"/>
							</g>
						</g>
					</g>
					<g id="&lt;Group&gt;">
						<g id="&lt;Group&gt;">
							<g id="&lt;Group&gt;">
								<path id="&lt;Compound Path&gt;" fill-rule="evenodd" class="s0" d="m2515.6 3045.9q-4.7 0-9.4-0.4c-26.9-2-48.9-7.7-66.6-12.3l-2.3-0.6c-19.3-5-39.2-5.5-57.4-1.3-32 7.2-141.4 27-206.1-22.7-13.4-10.3-23.1-25.4-27.1-42.4-15.4-64-13.6-139.6 4.6-197.3 2.2-7.2 8.3-12.6 15.7-14.1l415.4-80.7c6.3-1.3 12.7 0.5 17.5 4.7 4.8 4.1 7.4 10.3 7.1 16.6l-5.2 92.3c49.2 38.8 53.5 120.7 27.7 182.6-19.3 46.1-64.3 75.6-113.9 75.6zm-110.3-58.6c14.1 0 28.3 1.8 42.3 5.4l2.4 0.6c16.9 4.4 36.1 9.4 59.3 11.1 35.6 2.7 68.5-17.4 82.2-50 20.3-48.7 18-115.5-21.3-138.5-6.7-3.9-10.6-11.2-10.2-18.9l4.3-77.4-377.1 73.3c-12.8 49.3-13.1 110.8-0.4 163.7 1.8 7.9 6.2 14.8 12.1 19.3 33 25.4 100.5 31.3 171.9 15.2 11.2-2.6 22.8-3.8 34.5-3.8z"/>
							</g>
						</g>
					</g>
					<g id="&lt;Group&gt;">
						<g id="&lt;Group&gt;">
							<g id="&lt;Group&gt;">
								<path id="&lt;Path&gt;" class="s0" d="m2592.5 2769.6l-29 105c-3 10.2-18.3 6.9-16.8-3.6 0 0 11.5-108.7 11.5-108.7 1-9.7 9.7-16.7 19.3-15.7 11.1 1 18.4 12.5 15 23z"/>
							</g>
						</g>
					</g>
					<g id="&lt;Group&gt;">
						<g id="&lt;Group&gt;">
							<g id="&lt;Group&gt;">
								<path id="&lt;Path&gt;" class="s1" d="m2687.5 1903.2c-4.4 49.9-12.7 103.8-25.2 161.4-1.5 7.1-2.9 14.4-3.9 21.6-10.5 76-12.8 150.3-5.7 222.7 17.2 150 3.9 274.4-32.7 368.1-65.5 168.1-205.9 237.1-378.9 176.7-45.4-15.9-79.2-55-87.6-102.7-27.5-155.8 65.1-382.3 116-593.3 4.6-19.1 8.5-38.4 11.6-57.8 6-37.5 9.2-75.5 9.7-113.5l1.4-121.8c7-164.9 39.4-299.6 103.9-396.4 73.9-9.9 136.4 5.3 184.5 43.5 83.2 65.8 123.8 200 106.9 391.5z"/>
							</g>
						</g>
					</g>
					<g id="&lt;Group&gt;" style="opacity: .5">
						<g id="&lt;Group&gt;">
							<g id="&lt;Group&gt;">
								<path id="&lt;Path&gt;" class="s8" d="m2580.6 1511.7c-48.1-38.2-110.6-53.4-184.5-43.5-5.1 7.6-9.9 15.6-14.6 23.7 62-5.3 115.4 9.1 158.3 41.7 83.5 63.7 127 196.8 115.4 388.6-3 50.1-9.8 104.1-20.6 162-1.3 7.2-2.5 14.5-3.2 21.7-8.4 76.3-8.7 150.6 0.2 222.8 20.9 149.5 11 274.3-22.5 368.9-2.9 8.1-6 15.9-9.2 23.6q11-20.8 20.1-44.2c36.6-93.7 49.9-218.1 32.7-368.1-7.1-72.4-4.8-146.7 5.7-222.7 1-7.2 2.4-14.5 3.9-21.6 12.5-57.6 20.8-111.5 25.2-161.4 16.9-191.5-23.7-325.7-106.9-391.5z"/>
							</g>
						</g>
					</g>
					<g id="&lt;Group&gt;" style="opacity: .5">
						<g id="&lt;Group&gt;">
							<g id="&lt;Group&gt;">
								<g id="&lt;Group&gt;">
									<path id="&lt;Path&gt;" class="s8" d="m2688.1 1861.9c-4.3 50-12.2 103.9-24.2 161.5-1.5 7.1-2.8 14.3-3.7 21.6-5 37.1-8 73.9-9 110.2 1.6-22.9 4-45.9 7.2-69 1-7.2 2.4-14.5 3.9-21.6 12.5-57.6 20.8-111.5 25.2-161.4 2.9-32.7 4-63.6 3.7-92.9q-0.9 25.1-3.1 51.6z"/>
								</g>
							</g>
						</g>
						<g id="&lt;Group&gt;">
							<g id="&lt;Group&gt;">
								<g id="&lt;Group&gt;">
									<path id="&lt;Path&gt;" class="s8" d="m2623.4 2635.8c-62.9 168.1-197.5 237.1-363.4 176.6-43.5-15.8-75.8-54.9-83.9-102.6-26.4-155.8 62.4-382.3 111.2-593.3 4.4-19.1 8.1-38.4 11.1-57.8 5.8-37.5 8.9-75.5 9.3-113.6l1.4-121.8c4.1-101.2 17.4-191 41.4-267.7-34.6 85.1-53.2 189-58.3 309l-1.4 121.8c-0.5 38-3.7 76-9.7 113.5-3.1 19.4-7 38.7-11.6 57.8-50.9 211-143.5 437.5-116 593.3 8.4 47.7 42.2 86.8 87.6 102.7 173 60.4 313.4-8.6 378.9-176.7 24.1-61.7 38.1-137 39.9-224-4.6 69.7-17.1 131-36.5 182.8z"/>
								</g>
							</g>
						</g>
					</g>
					<g id="&lt;Group&gt;">
						<g id="&lt;Group&gt;">
							<g id="&lt;Group&gt;">
								<path id="&lt;Path&gt;" class="s2" d="m2580.6 1511.7c-11.3 0.8-22.6 3.3-33.1 7.3-40.5 15.2-72 47.9-98.1 82.5-57.6 76-96.8 165.7-113.3 259.6-14.3 81-13.9 169.5-55 238.8 6-37.5 9.2-75.5 9.7-113.5l1.4-121.8c7-164.9 39.4-299.6 103.9-396.4 73.9-9.9 136.4 5.3 184.5 43.5z"/>
							</g>
						</g>
					</g>
					<g id="&lt;Group&gt;">
						<g id="&lt;Group&gt;">
							<g id="&lt;Group&gt;">
								<path id="&lt;Path&gt;" class="s2" d="m2658.4 2086.2c-10.5 76-12.8 150.3-5.7 222.7 17.2 150 3.9 274.4-32.7 368.1-3 4-6 8.1-9 12.1 20.1-106 40.2-215.9 14.8-320.7-12.8-52.6-36.9-103.7-35.1-157.8 1.2-37.3 14.8-73 28.9-107.5 27.9-68.4 59.2-138.2 58.1-212l9.8 12.1c-4.4 49.9-12.7 103.8-25.2 161.4-1.5 7.1-2.9 14.4-3.9 21.6z"/>
							</g>
						</g>
					</g>
					<g id="&lt;Group&gt;">
						<g id="&lt;Group&gt;">
							<g id="&lt;Group&gt;">
								<path id="&lt;Path&gt;" class="s3" d="m2393.3 1447.7c195.5-26.7 296.5 113 315.4 291.9 10 92.9 1.9 186.6-14.6 278.2-3.8 22.1-9.2 44.3-13 66.5-10 65.9-12.9 132.9-8.5 199.3 3.9 45.5 8.9 91.8 9.3 137.5 0.5 78-7 156.9-30.5 231.6-55.9 182.3-202 283.5-391.9 228.2-23.9-7-48.8-15.7-68.5-31.7-43.9-34.1-59.7-81.3-61.4-135 0 0-0.8-23.9-0.8-23.9 0.6-13.9 0.7-33.7 2.4-47.2 14.6-145.3 66-283.3 103.4-422.9 16-57.4 30.4-115.7 36-175.1 6.3-59.4 6.5-120.8 13.9-180.6 1.2-8.9 14.4-9.4 15.5 0.2 4.6 61.1 8.7 122.1 4.9 183.4-3.3 46.2-11.9 92.4-23.7 137.2-35.9 146.6-89.2 289.6-109 439.1-0.2 4.6-2.6 27.9-3 33-0.4 8.9-0.6 24.2-0.9 32.8 1.3 49.8 4.7 94.2 47.5 126.9 20.7 16.5 50.5 23.3 75.9 29.6 160.5 36.2 272.7-57.6 318.4-207 22-69.9 28.8-144.9 28.2-218-0.4-44.8-5.5-90.5-9.4-135-4.8-67.8-1.6-136 7.6-203.2 5.5-31.6 12.8-64 17.9-95.7 17-108.3 25-222.4-5.8-328.8-35-120.7-122.2-187.6-249.8-170.3-27 2.8-32.5-36.5-5.5-41z"/>
							</g>
						</g>
					</g>
					<g id="&lt;Group&gt;">
						<g id="&lt;Group&gt;">
							<g id="&lt;Group&gt;">
								<path id="&lt;Path&gt;" class="s2" d="m2674.1 1545.5l-1.9-0.3c0.6-0.8 1.4-1 1.9 0.3z"/>
							</g>
						</g>
					</g>
				</g>
				<g id="&lt;Group&gt;">
					<g id="&lt;Group&gt;">
						<g id="&lt;Group&gt;">
							<g id="&lt;Group&gt;">
								<path id="&lt;Path&gt;" class="s5" d="m786.6 2962.3c17 40.8 58.6 66 102.7 62.7 26.1-2 47.1-7.6 65.3-12.4 21.9-5.7 45-6.4 67.1-1.4 67.8 15.3 146 14.1 189-18.9 9.9-7.7 16.7-18.7 19.6-30.9 9.8-40.8 12.8-90.1 6.6-136.3-2.2-17.4-5.8-34.2-10.8-50l-342.3-66.6-73.1-14.2 5.7 103.9c-48.6 28.4-54.5 105-29.8 164.1z"/>
							</g>
						</g>
					</g>
					<g id="&lt;Group&gt;">
						<g id="&lt;Group&gt;">
							<g id="&lt;Group&gt;">
								<path id="&lt;Path&gt;" class="s6" d="m818.7 2801.8c0 71.3 95.6 129.2 213.4 129.2 103.1 0 189.2-44.3 209.1-103.2-2.3-17.7-5.9-34.9-10.9-51.1l-345.8-68.2c-40.5 23.5-65.8 56.6-65.8 93.3z"/>
							</g>
						</g>
					</g>
					<g id="&lt;Group&gt;">
						<g id="&lt;Group&gt;">
							<g id="&lt;Group&gt;">
								<path id="&lt;Compound Path&gt;" fill-rule="evenodd" class="s0" d="m881.4 3045.9c-49.6 0-94.6-29.5-113.9-75.6-25.8-61.9-21.5-143.8 27.7-182.6l-5.1-92.3c-0.4-6.3 2.2-12.5 7-16.6 4.8-4.2 11.2-6 17.5-4.7l415.4 80.7c7.5 1.5 13.5 6.9 15.8 14.1 18.1 57.7 19.9 133.3 4.6 197.3-4.1 17-13.8 32.1-27.2 42.4-64.7 49.7-174.1 29.9-206.1 22.7-18.2-4.2-38-3.7-57.3 1.3l-2.4 0.6c-17.7 4.6-39.7 10.3-66.6 12.3q-4.7 0.4-9.4 0.4zm-48.7-326.3l4.3 77.4c0.4 7.7-3.5 15-10.2 18.9-39.2 23-41.6 89.8-21.2 138.5 13.6 32.6 46.6 52.6 82.1 50 23.2-1.7 42.4-6.7 59.3-11.1l2.4-0.6c25.7-6.7 52.2-7.2 76.9-1.6 71.3 16.1 138.8 10.2 171.8-15.2 6-4.5 10.3-11.4 12.2-19.3 12.6-52.9 12.3-114.4-0.5-163.7z"/>
							</g>
						</g>
					</g>
					<g id="&lt;Group&gt;">
						<g id="&lt;Group&gt;">
							<g id="&lt;Group&gt;">
								<path id="&lt;Path&gt;" class="s0" d="m834.1 2763.3l16.2 107.7c1.5 10.6-13.8 13.8-16.8 3.6 0 0-33.7-104-33.7-104-3-9.3 2-19.2 11.3-22.2 10.5-3.6 21.9 3.9 23 14.9z"/>
							</g>
						</g>
					</g>
					<g id="&lt;Group&gt;">
						<g id="&lt;Group&gt;">
							<g id="&lt;Group&gt;">
								<path id="&lt;Path&gt;" class="s1" d="m709.5 1903.2c4.5 49.9 12.7 103.8 25.2 161.4 1.6 7.1 3 14.4 3.9 21.6 10.5 76 12.8 150.3 5.7 222.7-17.2 150-3.9 274.4 32.7 368.1 65.6 168.1 205.9 237.1 378.9 176.7 45.4-15.9 79.2-55 87.6-102.7 27.6-155.8-65-382.3-116-593.3-4.6-19.1-8.4-38.4-11.5-57.8-6.1-37.5-9.3-75.5-9.8-113.5l-1.4-121.8c-6.9-164.9-39.4-299.6-103.8-396.4-74-9.9-136.4 5.3-184.6 43.5-83.2 65.8-123.7 200-106.9 391.5z"/>
							</g>
						</g>
					</g>
					<g id="&lt;Group&gt;" style="opacity: .5">
						<g id="&lt;Group&gt;">
							<g id="&lt;Group&gt;">
								<path id="&lt;Path&gt;" class="s8" d="m816.4 1511.7c48.2-38.2 110.6-53.4 184.6-43.5 5 7.6 9.9 15.6 14.5 23.7-62-5.3-115.4 9.1-158.2 41.7-83.6 63.7-127 196.8-115.5 388.6 3.1 50.1 9.8 104.1 20.6 162 1.3 7.2 2.5 14.5 3.3 21.7 8.3 76.3 8.6 150.6-0.3 222.8-20.9 149.5-11 274.3 22.5 368.9 2.9 8.1 6 15.9 9.2 23.6q-11-20.8-20.1-44.2c-36.6-93.7-49.9-218.1-32.7-368.1 7.1-72.4 4.8-146.7-5.7-222.7-0.9-7.2-2.3-14.5-3.9-21.6-12.5-57.6-20.7-111.5-25.2-161.4-16.8-191.5 23.7-325.7 106.9-391.5z"/>
							</g>
						</g>
					</g>
					<g id="&lt;Group&gt;" style="opacity: .5">
						<g id="&lt;Group&gt;">
							<g id="&lt;Group&gt;">
								<g id="&lt;Group&gt;">
									<path id="&lt;Path&gt;" class="s8" d="m708.9 1861.9c4.3 50 12.3 103.9 24.2 161.5 1.5 7.1 2.8 14.3 3.8 21.6 4.9 37.1 7.9 73.9 8.9 110.2-1.6-22.9-4-45.9-7.2-69-0.9-7.2-2.3-14.5-3.9-21.6-12.5-57.6-20.7-111.5-25.2-161.4-2.9-32.7-4-63.6-3.6-92.9q0.8 25.1 3 51.6z"/>
								</g>
							</g>
						</g>
						<g id="&lt;Group&gt;">
							<g id="&lt;Group&gt;">
								<g id="&lt;Group&gt;">
									<path id="&lt;Path&gt;" class="s8" d="m773.7 2635.8c62.8 168.1 197.4 237.1 363.3 176.6 43.5-15.8 75.9-54.9 84-102.6 26.3-155.8-62.4-382.3-111.3-593.3-4.4-19.1-8.1-38.4-11.1-57.8-5.8-37.5-8.9-75.5-9.3-113.6l-1.4-121.8c-4-101.2-17.4-191-41.4-267.7 34.6 85.1 53.3 189 58.3 309l1.4 121.8c0.5 38 3.7 76 9.8 113.5 3.1 19.4 6.9 38.7 11.5 57.8 51 211 143.6 437.5 116 593.3-8.4 47.7-42.2 86.8-87.6 102.7-173 60.4-313.3-8.6-378.9-176.7-24.1-61.7-38-137-39.9-224 4.6 69.7 17.2 131 36.6 182.8z"/>
								</g>
							</g>
						</g>
					</g>
					<g id="&lt;Group&gt;">
						<g id="&lt;Group&gt;">
							<g id="&lt;Group&gt;">
								<path id="&lt;Path&gt;" class="s2" d="m816.4 1511.7c11.4 0.8 22.6 3.3 33.1 7.3 40.6 15.2 72 47.9 98.2 82.5 57.5 76 96.7 165.7 113.2 259.6 14.3 81 13.9 169.5 55.1 238.8-6.1-37.5-9.3-75.5-9.8-113.5l-1.4-121.8c-6.9-164.9-39.4-299.6-103.8-396.4-74-9.9-136.4 5.3-184.6 43.5z"/>
							</g>
						</g>
					</g>
					<g id="&lt;Group&gt;">
						<g id="&lt;Group&gt;">
							<g id="&lt;Group&gt;">
								<path id="&lt;Path&gt;" class="s2" d="m738.6 2086.2c10.5 76 12.8 150.3 5.7 222.7-17.2 150-3.9 274.4 32.7 368.1 3 4 6 8.1 9 12.1-20.1-106-40.2-215.9-14.8-320.7 12.8-52.6 36.9-103.7 35.1-157.8-1.2-37.3-14.7-73-28.9-107.5-27.9-68.4-59.2-138.2-58-212l-9.9 12.1c4.5 49.9 12.7 103.8 25.2 161.4 1.6 7.1 3 14.4 3.9 21.6z"/>
							</g>
						</g>
					</g>
					<g id="&lt;Group&gt;">
						<g id="&lt;Group&gt;">
							<g id="&lt;Group&gt;">
								<path id="&lt;Path&gt;" class="s3" d="m998.2 1488.7c-171.3-22.4-250.3 101.3-266.6 255.7-10.8 103.3 2.4 208.2 23.5 309.5 3 14.9 6 31.7 7.6 46.8 7.5 61.6 9.8 124 5.4 186-4.6 51.9-10.5 105-9.3 157.2 1.2 94.2 15.7 192.3 61.9 275.3 65.3 117.4 177.7 158.7 305.6 122.3 0 0 20.7-6.4 20.7-6.4 37.3-11.8 66.7-43.6 75.6-81.5 4.2-19.2 5.5-43.4 6.2-63.4-0.1-8-0.9-25.3-1-32.8-0.5-6.3-2.5-26.2-3-33-20.9-157-78.2-307.1-114.5-461.4-9.1-37.7-15.3-76.2-18.1-114.9-3.8-61.3 0.2-122.3 4.8-183.4 0.7-8.7 14.3-10 15.5-0.2 10.3 89.6 7.7 180.4 27.7 268.4 20.3 88.5 47.7 174.5 72.6 262.1 24.5 88 49.9 179.3 54.6 271.6 1.6 31.4 0.3 65.1-5.9 96-11.4 51.2-51.5 95-101.2 111.1 0 0-22.8 7.2-22.8 7.2-189.9 55.2-335.8-45.7-391.8-228.2-23.6-74.7-31.1-153.6-30.6-231.6 0.4-45.7 5.4-92 9.3-137.5 4.1-59.1 1.8-118.6-5.4-177.5l-1.4-11.1-0.8-5.5c-1-5.8-2.7-15-3.7-20.8-23-107.8-36.7-218.9-24.8-329.1 10.9-94.6 44.2-196.1 126.3-253 54.3-38.6 124.9-48 189.1-38.9 27 4.7 21.5 43.7-5.5 41z"/>
							</g>
						</g>
					</g>
					<g id="&lt;Group&gt;">
						<g id="&lt;Group&gt;">
							<g id="&lt;Group&gt;">
								<path id="&lt;Path&gt;" class="s2" d="m722.9 1545.5l2-0.3c-0.7-0.8-1.5-1-2 0.3z"/>
							</g>
						</g>
					</g>
				</g>
				<g id="&lt;Group&gt;">
					<g id="&lt;Group&gt;">
						<g id="&lt;Group&gt;">
							<g id="&lt;Group&gt;">
								<path id="&lt;Path&gt;" class="s8" d="m2640.5 2746.9c-1.1 3.2-2.1 6.3-3.3 9.4l-47.2-3.2-423.8-28.1c-6.6-69.7-9.3-135.8-5.3-195.2 2-28.4 23.7-51.2 51.3-53.6q40-3.4 81.1-5.1c98.3-4.4 201.5-2.3 308.4 4.9l15 1c28.7 2.1 51.4 26.2 52.3 55.9 1.9 68.7-7.7 152.2-28.5 214z"/>
							</g>
						</g>
					</g>
					<g id="&lt;Group&gt;">
						<g id="&lt;Group&gt;">
							<g id="&lt;Group&gt;">
								<path id="&lt;Compound Path&gt;" fill-rule="evenodd" class="s3" d="m2637.2 2778.7q-0.7 0-1.5 0l-471-31.3c-11-0.7-19.9-9.3-20.9-20.3-7.3-78.4-9-143.4-5.2-198.8 2.7-39.9 32.9-71.2 71.7-74.5 121.6-10.3 255.1-10 408 0.8 40.5 2.9 71.9 36.2 73.1 77.6 2.3 81.1-10.4 170-33.1 231.8-3.3 8.9-11.7 14.7-21.1 14.7zm-450.3-74.8l434.6 28.8c17.2-55.3 26.9-131.3 25-199.2-0.5-18.2-14-32.9-31.4-34.1-150.6-10.7-281.7-10.9-401-0.8-16.3 1.4-29.5 15.5-30.7 32.7-3.3 48.5-2.2 105.1 3.5 172.6z"/>
							</g>
						</g>
					</g>
					<g id="&lt;Group&gt;" style="opacity: .3">
						<g id="&lt;Group&gt;">
							<g id="&lt;Group&gt;">
								<g id="&lt;Group&gt;">
									<path id="&lt;Path&gt;" class="s0" d="m2640.5 2746.9c-16.7 2.8-33.6 4.8-50.5 6.2l-423.8-28.1c-6.6-69.7-9.3-135.8-5.3-195.2 2-28.4 23.7-51.2 51.3-53.6q40-3.4 81.1-5.1c-0.1 4.8 0 9.8 0.1 14.7 0.9 30.7 1.7 61.4 2.5 92.2 0.2 4.4 0.5 9.4 3.6 12.5 3 3.2 7.9 3.7 12.2 4 82 5.2 164.1 7.3 246.1 6.2 14.5-0.2 31.2-1.6 39.4-13.5 5.2-7.5 5.5-17.2 5.6-26.3 0.1-16.8 0.3-33.6 0.4-50.4 0.1-11.5 0.2-23.1-1.5-34.5l15 1c28.7 2.1 51.4 26.2 52.3 55.9 1.9 68.7-7.7 152.2-28.5 214z"/>
								</g>
							</g>
						</g>
					</g>
					<g id="&lt;Group&gt;">
						<g id="&lt;Group&gt;">
							<g id="&lt;Group&gt;">
								<path id="&lt;Path&gt;" class="s9" d="m2521.5 3159.6c-111.8 10.7-220.1 11.6-323.8 0-73.9-11.3-127.4-84-113.7-136.3-27.7-11.5-46.9-38.1-57.8-69.7-20.8-61-5.4-128.8 37.7-176.7 21.3-23.9 43.5-46.2 66.6-66.4 12.7-11.2 26.7-20.7 41.6-28.3 19.7-10.1 41-17 63.1-20 125.2-17.4 259.6-15.8 395.1 9.1 17.9 3.3 33.4 15 41.2 31.4 8.8 18.6 16.1 38.1 21.9 58.2 50.1 171.5-7.3 384.2-171.9 398.7z"/>
							</g>
						</g>
					</g>
					<g id="&lt;Group&gt;" style="opacity: .6">
						<g id="&lt;Group&gt;">
							<g id="&lt;Group&gt;">
								<path id="&lt;Path&gt;" class="s8" d="m2052 2813.5c21.1-23.7 43-45.9 65.9-66 12.6-11.1 26.4-20.5 41.1-28.1 19.5-10.1 40.6-16.8 62.4-19.9 123.9-17.2 256.8-15.6 390.8 9.1 17.8 3.3 33 14.9 40.8 31.2 8.7 18.5 15.9 37.8 21.6 57.8 26.6 91.5 22.5 194.6-12.1 272.9 51.6-81 62-203.2 30.9-309.6-5.8-20.1-13.1-39.6-21.9-58.2-7.8-16.4-23.3-28.1-41.2-31.4-135.5-24.9-269.9-26.5-395.1-9.1-22.1 3-43.4 9.9-63.1 20-14.9 7.6-28.9 17.1-41.6 28.3-23.1 20.2-45.3 42.5-66.6 66.4-22 24.5-36.7 54.1-43.1 85.4 7.6-17.6 18.1-34.2 31.2-48.8z"/>
							</g>
						</g>
					</g>
					<g id="&lt;Group&gt;">
						<g id="&lt;Group&gt;">
							<g id="&lt;Group&gt;">
								<path id="&lt;Compound Path&gt;" fill-rule="evenodd" class="s3" d="m2353.6 3190.7c-54.9 0-107.9-2.8-158.5-8.4q-0.4 0-0.9-0.1c-45.1-7-87.3-34.4-113-73.4-15.4-23.7-23.1-49.3-22-72.9-24.1-15.5-43.1-41.5-54.5-75-23.3-67.9-7.1-144.3 42.2-199.2 23.1-25.9 45.6-48.3 68.5-68.4 33.3-29.2 73.7-47.8 116.7-53.7 133-18.4 268.4-15.3 402.3 9.3 25.3 4.7 46.9 21.1 57.7 44.1 56.9 120.1 55.4 275.8-3.6 378.8-37.9 66.2-95 104.4-165 110.6-58.3 5.5-115.1 8.3-169.9 8.3zm-152.9-53.7c97.8 10.8 205 10.8 318.6-0.1 69.1-6.1 108.6-51.1 129.6-87.8 51.2-89.3 52-230.9 2-336.6-4.6-9.7-13.9-16.7-24.7-18.7-129.2-23.7-259.7-26.8-387.9-9-34.1 4.7-66.2 19.5-92.8 42.8-21.6 18.9-42.7 40-64.7 64.5-38.2 42.7-50.9 101.7-33 154.1 9.6 28 25.6 47.9 45 56 10.5 4.4 16.2 15.9 13.3 26.9-4.1 15.6 0.7 35.5 13.3 54.6 18.5 28.3 48.9 48.2 81.3 53.3z"/>
							</g>
						</g>
					</g>
					<g id="&lt;Group&gt;">
						<g id="&lt;Group&gt;">
							<g id="&lt;Group&gt;">
								<path id="&lt;Path&gt;" class="s3" d="m2108.1 3045.8c-17.8 0-35.2-5.1-51.7-15.3-9.3-5.8-12.1-18.1-6.3-27.4 5.8-9.3 18-12.2 27.3-6.4 21.6 13.4 44.9 12.2 69.2-3.5 35.8-23.1 55.4-65.2 54.2-74.6-1.8-10.8 5.5-21.1 16.3-22.9 10.9-1.8 21.1 5.5 22.9 16.4 5.2 31.3-28.1 85.2-69.8 113.2-20.4 13.6-41.4 20.5-62.1 20.5z"/>
							</g>
						</g>
					</g>
					<g id="&lt;Group&gt;">
						<g id="&lt;Group&gt;">
							<g id="&lt;Group&gt;">
								<path id="&lt;Path&gt;" class="s3" d="m2185.4 2878.7c31-7.8 65.7 13.8 76.2 43.3 3.8 10.7 10.3 39.3-8.2 38-2.4-0.4-4.4-1.6-5.9-3.3-11.5-11.9-18.7-23.7-29-34.9-10.1-11-21.5-17.7-35.5-25.1-7.7-3.9-6-16.3 2.4-18z"/>
							</g>
						</g>
					</g>
					<g id="&lt;Group&gt;" style="opacity: .3">
						<g id="&lt;Group&gt;">
							<g id="&lt;Group&gt;">
								<g id="&lt;Group&gt;">
									<path id="&lt;Path&gt;" class="s10" d="m2521.5 3123.5c-111.8 9.9-220.1 10.7-323.8 0-73.9-10.5-127.4-77.7-113.7-126-27.7-10.7-46.9-35.2-57.8-64.5-20.8-56.3-5.4-119 37.7-163.3 21.3-22 43.5-42.7 66.6-61.4 12.7-10.3 26.7-19.1 41.6-26.1l20.6 9.8c-27.6 21.7-55.2 43.4-82.7 65.1-27.5 21.5-56.8 46.3-61.3 79.3-2.2 16.5 2.3 33.1 7.8 48.9 3.1 9.1 6.8 18.4 13.3 26.1 15.8 18.5 46.3 22.6 69.9 13.4 23.6-9.1 40.6-29 51.1-50.6 16.8 5.4 34.1 11.1 48 21.4 14 10.2 24.2 26.3 22.1 42.6-1.9 15.8-14.7 29.1-15.6 44.9-1.1 18.2 14.3 34.3 32.5 41.4 18 7.1 38.3 7.1 57.9 6.9 29-0.1 58.1-0.4 87.2-0.5 57.9-0.4 118.8-1.5 168.6-28.6 55.3-30 87.3-87.7 98.1-146.1 6.2-33.4 6.3-67.3 3.8-101.2 50.1 158.5-7.3 355.1-171.9 368.5z"/>
								</g>
							</g>
						</g>
					</g>
				</g>
				<g id="&lt;Group&gt;">
					<g id="&lt;Group&gt;">
						<g id="&lt;Group&gt;">
							<g id="&lt;Group&gt;">
								<path id="&lt;Path&gt;" class="s8" d="m752.1 2746.9c1 3.2 2.1 6.3 3.3 9.4l47.2-3.2 423.8-28.1c6.5-69.7 9.3-135.8 5.2-195.2-2-28.4-23.7-51.2-51.2-53.6q-40-3.4-81.2-5.1c-98.2-4.4-201.4-2.3-308.3 4.9l-15 1c-28.7 2.1-51.5 26.2-52.3 55.9-1.9 68.7 7.7 152.2 28.5 214z"/>
							</g>
						</g>
					</g>
					<g id="&lt;Group&gt;">
						<g id="&lt;Group&gt;">
							<g id="&lt;Group&gt;">
								<path id="&lt;Compound Path&gt;" fill-rule="evenodd" class="s3" d="m755.3 2778.7c-9.3 0-17.8-5.8-21-14.7-22.8-61.8-35.5-150.7-33.1-231.8 1.1-41.4 32.6-74.7 73.1-77.6 152.9-10.8 286.3-11.1 408-0.8 38.8 3.3 69 34.6 71.7 74.5 3.8 55.4 2.1 120.4-5.2 198.8-1.1 11-9.9 19.6-20.9 20.3l-471.1 31.3q-0.7 0-1.5 0zm239.6-287.5c-68.1 0-140.2 2.7-217.4 8.2-17.4 1.2-30.9 15.9-31.4 34.1-2 67.9 7.7 143.9 25 199.2l434.6-28.8c5.7-67.5 6.8-124.1 3.5-172.6-1.2-17.2-14.4-31.3-30.7-32.7-58.1-4.9-119-7.4-183.6-7.4zm231.5 233.8z"/>
							</g>
						</g>
					</g>
					<g id="&lt;Group&gt;" style="opacity: .3">
						<g id="&lt;Group&gt;">
							<g id="&lt;Group&gt;">
								<g id="&lt;Group&gt;">
									<path id="&lt;Path&gt;" class="s0" d="m752.1 2746.9c16.7 2.8 33.6 4.8 50.5 6.2l423.8-28.1c6.5-69.7 9.3-135.8 5.2-195.2-2-28.4-23.7-51.2-51.2-53.6q-40-3.4-81.2-5.1c0.2 4.8 0 9.8-0.1 14.7-0.8 30.7-1.6 61.4-2.5 92.2-0.1 4.4-0.4 9.4-3.5 12.5-3.1 3.2-7.9 3.7-12.3 4-81.9 5.2-164 7.3-246.1 6.2-14.4-0.2-31.2-1.6-39.4-13.5-5.2-7.5-5.4-17.2-5.5-26.3-0.1-16.8-0.3-33.6-0.4-50.4-0.1-11.5-0.2-23.1 1.5-34.5l-15 1c-28.7 2.1-51.5 26.2-52.3 55.9-1.9 68.7 7.7 152.2 28.5 214z"/>
								</g>
							</g>
						</g>
					</g>
					<g id="&lt;Group&gt;">
						<g id="&lt;Group&gt;">
							<g id="&lt;Group&gt;">
								<path id="&lt;Path&gt;" class="s9" d="m871.1 3159.6c111.8 10.7 220 11.6 323.8 0 73.9-11.3 127.4-84 113.6-136.3 27.8-11.5 47-38.1 57.8-69.7 20.9-61 5.4-128.8-37.6-176.7-21.3-23.9-43.5-46.2-66.6-66.4-12.8-11.2-26.7-20.7-41.6-28.3-19.7-10.1-41-17-63.1-20-125.3-17.4-259.6-15.8-395.1 9.1-18 3.3-33.4 15-41.3 31.4-8.8 18.6-16 38.1-21.8 58.2-50.1 171.5 7.2 384.2 171.9 398.7z"/>
							</g>
						</g>
					</g>
					<g id="&lt;Group&gt;" style="opacity: .6">
						<g id="&lt;Group&gt;">
							<g id="&lt;Group&gt;">
								<path id="&lt;Path&gt;" class="s8" d="m1340.6 2813.5c-21.1-23.7-43-45.9-65.9-66-12.6-11.1-26.4-20.5-41.1-28.1-19.5-10.1-40.6-16.8-62.5-19.9-123.8-17.2-256.7-15.6-390.7 9.1-17.8 3.3-33.1 14.9-40.8 31.2-8.7 18.5-15.9 37.8-21.7 57.8-26.5 91.5-22.5 194.6 12.1 272.9-51.6-81-61.9-203.2-30.8-309.6 5.8-20.1 13-39.6 21.8-58.2 7.9-16.4 23.3-28.1 41.3-31.4 135.5-24.9 269.8-26.5 395.1-9.1 22.1 3 43.4 9.9 63.1 20 14.9 7.6 28.8 17.1 41.6 28.3 23.1 20.2 45.3 42.5 66.6 66.4 22 24.5 36.7 54.1 43.1 85.4-7.7-17.6-18.1-34.2-31.2-48.8z"/>
							</g>
						</g>
					</g>
					<g id="&lt;Group&gt;">
						<g id="&lt;Group&gt;">
							<g id="&lt;Group&gt;">
								<path id="&lt;Compound Path&gt;" fill-rule="evenodd" class="s3" d="m1039 3190.7c-54.9 0-111.7-2.8-170.1-8.4-69.9-6.1-126.9-44.3-164.8-110.5-59-103-60.5-258.7-3.7-378.8 10.9-23 32.5-39.4 57.8-44.1 133.9-24.6 269.3-27.7 402.3-9.3 43 5.9 83.3 24.5 116.6 53.7 23 20.1 45.4 42.5 68.6 68.4 49.3 54.9 65.4 131.3 42.2 199.2-11.4 33.5-30.5 59.5-54.5 75 1.1 23.6-6.6 49.2-22.1 72.9-25.6 39-67.8 66.4-112.9 73.4q-0.5 0.1-1 0.1c-50.5 5.6-103.5 8.4-158.4 8.4zm-272.6-496.9c-10.9 2-20.1 9-24.7 18.7-50.1 105.7-49.2 247.3 2 336.6 21 36.7 60.5 81.7 129.4 87.8 113.8 10.9 221 11 318.8 0.1 32.4-5.1 62.7-25 81.3-53.3 12.5-19.1 17.4-39 13.3-54.6-2.9-11 2.8-22.5 13.3-26.9 19.4-8.1 35.3-28 44.9-56 17.9-52.4 5.3-111.4-33-154.1-21.9-24.5-43.1-45.6-64.6-64.5-26.6-23.3-58.7-38.1-92.8-42.8-128.3-17.8-258.8-14.7-387.9 9z"/>
							</g>
						</g>
					</g>
					<g id="&lt;Group&gt;">
						<g id="&lt;Group&gt;">
							<g id="&lt;Group&gt;">
								<path id="&lt;Path&gt;" class="s3" d="m1284.4 3045.8c-20.6 0-41.7-6.9-62-20.5-41.8-27.9-75-81.9-69.8-113.2 1.8-10.9 12.1-18.2 22.9-16.4 10.8 1.8 18.1 12.1 16.3 22.9-1.2 9.4 18.3 51.5 54.2 74.6 24.3 15.7 47.6 16.9 69.1 3.5 9.4-5.8 21.6-2.9 27.4 6.4 5.8 9.3 2.9 21.6-6.4 27.4-16.4 10.2-33.9 15.3-51.7 15.3z"/>
							</g>
						</g>
					</g>
					<g id="&lt;Group&gt;">
						<g id="&lt;Group&gt;">
							<g id="&lt;Group&gt;">
								<path id="&lt;Path&gt;" class="s3" d="m1209 2896.9c-20.7 10.2-34.9 22.6-48.1 40.9-4.7 5.8-9.2 12.3-15.8 18.9-3.9 4.3-10.6 4.6-14.7 0.5-1.6-1.6-2.5-3.5-2.9-5.5-1.7-10.1-0.1-20.1 3.4-29.7 7.2-19.6 25.3-36.5 45.6-42.3 10.8-3 40.7-6.8 37.8 10.7-0.7 3-2.7 5.3-5.3 6.5z"/>
							</g>
						</g>
					</g>
					<g id="&lt;Group&gt;" style="opacity: .3">
						<g id="&lt;Group&gt;">
							<g id="&lt;Group&gt;">
								<g id="&lt;Group&gt;">
									<path id="&lt;Path&gt;" class="s10" d="m855.3 3132.2c111.8 9.8 220 10.6 323.8 0 73.9-10.5 127.4-77.8 113.7-126.1 27.7-10.6 46.9-35.2 57.7-64.4 20.9-56.4 5.4-119-37.6-163.3-21.3-22.1-43.5-42.7-66.6-61.4-12.7-10.3-26.7-19.2-41.6-26.2l-20.6 9.9c27.6 21.7 55.1 43.4 82.7 65 27.4 21.6 56.8 46.3 61.2 79.4 2.3 16.4-2.2 33-7.7 48.8-3.2 9.2-6.8 18.5-13.3 26.1-15.8 18.5-46.3 22.6-69.9 13.4-23.6-9.1-40.6-29-51.1-50.6-16.9 5.4-34.1 11.1-48 21.4-14 10.3-24.3 26.3-22.2 42.7 2 15.7 14.8 29.1 15.7 44.8 1.1 18.2-14.3 34.3-32.5 41.4-18 7.1-38.3 7.1-57.9 6.9-29-0.1-58.1-0.3-87.2-0.5-57.9-0.3-118.8-1.4-168.7-28.5-55.2-30-87.2-87.8-98-146.1-6.2-33.5-6.3-67.4-3.8-101.3-50.1 158.5 7.3 355.1 171.9 368.6z"/>
								</g>
							</g>
						</g>
					</g>
				</g>
				<g id="&lt;Group&gt;">
					<g id="&lt;Group&gt;">
						<g id="&lt;Group&gt;">
							<path id="&lt;Path&gt;" class="s5" d="m1968.1 1730c-5.4-0.4-10.8-0.8-16.3-1.1l1.1 0.1c3.5-5.1 11.7-3.5 15.2 1z"/>
						</g>
					</g>
				</g>
				<g id="&lt;Group&gt;">
					<g id="&lt;Group&gt;">
						<g id="&lt;Group&gt;">
							<path id="&lt;Path&gt;" class="s5" d="m1493.4 1728.9c-5.5 0.3-10.9 0.7-16.4 1 3.6-4.4 11.7-6 15.2-0.9z"/>
						</g>
					</g>
				</g>
				<g id="&lt;Group&gt;">
					<g id="&lt;Group&gt;">
						<g id="&lt;Group&gt;">
							<g id="&lt;Group&gt;">
								<g id="&lt;Group&gt;">
									<path id="&lt;Path&gt;" class="s5" d="m2619.8 1155.9c32.3-121.4-10.7-238.2-96.1-260.9-85.3-22.7-180.7 57.3-213 178.7-32.3 121.4 10.7 238.2 96.1 260.9 85.3 22.7 180.7-57.3 213-178.7z"/>
								</g>
							</g>
						</g>
						<g id="&lt;Group&gt;">
							<g id="&lt;Group&gt;">
								<g id="&lt;Group&gt;">
									<path id="&lt;Path&gt;" class="s6" d="m2379.8 1045.9c19.1-23.6 38.7-47.8 65-62.9 26.3-15.1 61-19.5 86.3-2.8 17.1 11.3 27.6 30.6 32.1 50.6 4.4 19.9 3.5 40.7 1.7 61-3.3 38.1-9.5 76.4-25.3 111.2-15.8 34.7-42.1 65.9-77.1 81.3-4.4 1.9-9.1 3.7-14 4-17.6 1.1-30.7-15.6-39.3-31-36.2-65.1-52-144-30.2-215.1"/>
								</g>
							</g>
						</g>
						<g id="&lt;Group&gt;">
							<g id="&lt;Group&gt;">
								<g id="&lt;Group&gt;">
									<path id="&lt;Compound Path&gt;" fill-rule="evenodd" class="s3" d="m2435.9 1357.3c-11.4 0-22.8-1.5-34-4.4-95.2-25.4-144.3-152.8-109.4-284.1 16.6-62.4 49.5-116.7 92.7-153 45.1-37.8 96-51.7 143.4-39.1 47.4 12.6 84.7 50 105 105.2 19.4 52.9 21 116.4 4.4 178.9-30.8 115.8-116.9 196.5-202.1 196.5zm58.2-447.3c-28.1 0-57.4 11.9-84.6 34.8-37.3 31.2-65.9 78.7-80.5 133.7-29.6 111.2 7.5 217.9 82.6 237.9 75.2 20 160.4-54.2 189.9-165.3 14.7-55 13.5-110.5-3.3-156.1-16-43.4-44.2-72.4-79.3-81.8-8.1-2.1-16.4-3.2-24.8-3.2z"/>
								</g>
							</g>
						</g>
						<g id="&lt;Group&gt;">
							<g id="&lt;Group&gt;">
								<g id="&lt;Group&gt;">
									<g id="&lt;Group&gt;">
										<path id="&lt;Path&gt;" class="s3" d="m2369.6 1085.6c3.3-4 6.1-6.9 8.4-11.6 2.2-4.6 5.5-8.8 8.4-13 6.1-8.6 12-17.1 18.4-25.4 12.2-15.8 27.3-29.9 44-40.8 17-11.1 36.1-18.7 56.5-13.6 9 2.3 16.7 6.2 24.7 10.8 4.2 2.5 7.2 4.8 10.4 8.4 2.7 3.2 6.1 4.9 8.7 8 1.6 1.9 5.2 0.4 5-2-0.3-3.1 0.1-6.7-0.6-9.7-0.9-3.9-3.6-7.3-5.6-10.8-4.6-8.3-10.3-14.5-17.9-20.1-15.6-11.5-35.4-14.3-54.1-10.9-20.1 3.7-38.1 15.4-53.9 27.9-14.9 11.7-27.7 26-38.5 41.5-6.1 8.6-11 18.3-14.4 28.3-1.6 4.9-2.5 10-4.1 14.8-1.9 5.8-2 9.6-1.5 15.7 0.2 2.8 3.9 5.1 6.1 2.5z"/>
									</g>
								</g>
							</g>
						</g>
						<g id="&lt;Group&gt;">
							<g id="&lt;Group&gt;">
								<g id="&lt;Group&gt;">
									<g id="&lt;Group&gt;">
										<path id="&lt;Path&gt;" class="s3" d="m2438 1296.4c6.8 1.4 14.1-2 20.1-4.7 6.1-2.7 12.1-5.7 18-8.9 11.8-6.6 23.2-14 33.3-23 9.5-8.5 17.1-18.4 22.9-29.6 2.7-5.2 5.9-10 7.9-15.6 1.9-5.7 3.1-11.6 3.4-17.6 0.1-1.8-2.5-2.5-3.4-0.9-2.4 4.9-4.9 9.7-8 14.3-3.1 4.7-5.9 10.1-9.9 14.2-8 8.2-16.9 15.9-26 22.8-9.6 7.4-19.7 14-30.3 19.9q-8 4.4-16.2 8.4c-5 2.4-13.4 5.7-15.7 11.1-1.5 3.6-0.6 8.6 3.9 9.6z"/>
									</g>
								</g>
							</g>
						</g>
						<g id="&lt;Group&gt;">
							<g id="&lt;Group&gt;">
								<g id="&lt;Group&gt;">
									<path id="&lt;Path&gt;" class="s5" d="m2398.9 1123.9c5.7-13.2 12.7-25.9 20.8-37.9 6-8.9 12.8-17.5 21.8-23.5 9.1-6 20.9-9 31.4-5.9 11.6 3.5 19.7 13.7 24.5 24.4 13.8 31 5.2 67.2-10.4 97.5-4.2 8.1-8.9 16-15.1 22.7-11.6 12.7-28.6 20.8-46.2 22.2"/>
								</g>
							</g>
						</g>
						<g id="&lt;Group&gt;">
							<g id="&lt;Group&gt;">
								<g id="&lt;Group&gt;">
									<g id="&lt;Group&gt;">
										<path id="&lt;Path&gt;" class="s3" d="m2402.4 1127.4c15-16.7 22.8-41.2 41.8-54.4 7.8-5.4 18.9-9.3 28-5.1 8.3 3.8 13.6 12.7 16.6 20.9 7.9 21.2 4.5 44.3-2.9 65.2-7 19.5-17.4 40.3-36.1 50.9-4.3 2.4-8.7 4.3-13.5 5.6-5.7 1.6-11.3 2.4-14.6 7.9-2.2 3.6-2.2 7 0.6 10.2 4.5 5.1 10.8 5.1 17 3.7 22.2-5.3 40.3-19.8 52-39.1 22.1-36.5 36.8-91.5 8.9-129-7.7-10.4-18.3-17.8-31.3-19.3-13.8-1.6-26.6 3.5-37 12.2-9.6 7.9-17.1 18.3-23.4 29-6.9 11.7-13.3 24.1-14.5 37.8-0.4 4.3 5.7 6.6 8.4 3.5z"/>
									</g>
								</g>
							</g>
						</g>
					</g>
					<g id="&lt;Group&gt;">
						<g id="&lt;Group&gt;">
							<g id="&lt;Group&gt;">
								<g id="&lt;Group&gt;">
									<path id="&lt;Path&gt;" class="s5" d="m777.3 1155.9c-32.3-121.4 10.7-238.2 96-260.9 85.3-22.7 180.7 57.3 213 178.7 32.3 121.4-10.7 238.2-96 260.9-85.4 22.7-180.7-57.3-213-178.7z"/>
								</g>
							</g>
						</g>
						<g id="&lt;Group&gt;">
							<g id="&lt;Group&gt;">
								<g id="&lt;Group&gt;">
									<path id="&lt;Path&gt;" class="s6" d="m1017.2 1045.9c-19-23.6-38.7-47.8-65-62.9-26.3-15.1-61-19.5-86.3-2.8-17.1 11.3-27.6 30.6-32 50.6-4.5 19.9-3.6 40.7-1.8 61 3.3 38.1 9.6 76.4 25.3 111.2 15.8 34.7 42.1 65.9 77.1 81.3 4.4 1.9 9.1 3.7 14 4 17.6 1.1 30.8-15.6 39.3-31 36.2-65.1 52-144 30.2-215.1"/>
								</g>
							</g>
						</g>
						<g id="&lt;Group&gt;">
							<g id="&lt;Group&gt;">
								<g id="&lt;Group&gt;">
									<path id="&lt;Compound Path&gt;" fill-rule="evenodd" class="s3" d="m961.1 1357.3c-85.2 0-171.3-80.7-202.1-196.5-16.6-62.5-15-126 4.4-178.9 20.4-55.2 57.7-92.6 105-105.2 47.4-12.6 98.3 1.3 143.4 39.1 43.2 36.3 76.1 90.6 92.7 153 35 131.3-14.1 258.7-109.4 284.1-11.2 2.9-22.6 4.4-34 4.4zm-58.2-447.3c-8.4 0-16.7 1.1-24.8 3.2-35.1 9.4-63.3 38.4-79.2 81.8-16.8 45.6-18 101.1-3.4 156.1 26.3 98.9 96.7 168.5 164.9 168.5 8.4 0 16.7-1 25-3.2 75.1-20 112.2-126.7 82.7-237.9-14.7-55-43.3-102.5-80.5-133.7-27.3-22.9-56.6-34.8-84.7-34.8z"/>
								</g>
							</g>
						</g>
						<g id="&lt;Group&gt;">
							<g id="&lt;Group&gt;">
								<g id="&lt;Group&gt;">
									<g id="&lt;Group&gt;">
										<path id="&lt;Path&gt;" class="s3" d="m1033.5 1083.1c0.4-4.6 1-8.5-0.4-13-1.4-4.3-2.4-8.6-3.7-12.9-2.8-9.3-6.8-18-11.6-26.4-9.2-16.1-22.7-31-36.7-43.1-28.6-24.6-71.3-47.4-108.1-25.9-8.7 5.1-16.4 11.7-21.7 20.4-2.4 3.8-5.2 7.9-7 12.1-1.5 3.7-1 8.1-1.4 12.1-0.2 2.4 3.4 3.9 5 2 2.7-3.1 6-4.8 8.7-8 3.2-3.6 6.3-5.9 10.5-8.4 8-4.6 15.6-8.5 24.6-10.8 20.4-5.1 39.5 2.5 56.5 13.6 16.7 10.9 31.8 25 44.1 40.8 6.3 8.3 12.3 16.8 18.3 25.4 2.9 4.2 6.2 8.4 8.4 13 2.3 4.7 5.1 7.6 8.4 11.6 2.2 2.6 5.9 0.3 6.1-2.5z"/>
									</g>
								</g>
							</g>
						</g>
						<g id="&lt;Group&gt;">
							<g id="&lt;Group&gt;">
								<g id="&lt;Group&gt;">
									<g id="&lt;Group&gt;">
										<path id="&lt;Path&gt;" class="s3" d="m962.9 1286.8c-2.2-5.2-10.1-8.4-14.9-10.7q-8.6-4.2-17-8.8c-10.6-5.9-20.6-12.5-30.3-19.9-9.1-6.9-18-14.6-26-22.8-3.8-4-6.5-9-9.5-13.6-3.1-4.8-5.8-9.8-8.4-14.9-0.8-1.6-3.5-0.9-3.4 0.9 0.3 5.7 1.5 11.4 3.2 16.8 1.8 5.7 5 10.4 7.7 15.7 6 11.5 13.6 21.6 23.3 30.3 9.9 8.8 21 16.1 32.5 22.5 5.9 3.3 11.9 6.3 18 9 6.3 2.8 13.8 6.6 20.9 5.1 4.6-1 5.4-6 3.9-9.6z"/>
									</g>
								</g>
							</g>
						</g>
						<g id="&lt;Group&gt;">
							<g id="&lt;Group&gt;">
								<g id="&lt;Group&gt;">
									<path id="&lt;Path&gt;" class="s5" d="m998.1 1123.9c-5.7-13.2-12.7-25.9-20.8-37.9-6-8.9-12.7-17.5-21.8-23.5-9.1-6-20.9-9-31.4-5.9-11.6 3.5-19.7 13.7-24.4 24.4-13.9 31-5.3 67.2 10.3 97.5 4.2 8.1 8.9 16 15.1 22.7 11.7 12.7 28.6 20.8 46.2 22.2"/>
								</g>
							</g>
						</g>
						<g id="&lt;Group&gt;">
							<g id="&lt;Group&gt;">
								<g id="&lt;Group&gt;">
									<g id="&lt;Group&gt;">
										<path id="&lt;Path&gt;" class="s3" d="m1003.1 1123.9c-1.1-11.9-6.1-22.4-11.8-32.9-5.6-10.1-12.1-20.2-20.2-28.5-15.9-16.4-41.4-24.9-61.7-10.7-18.8 13.1-26.6 37.4-27.5 59.4-1 23.3 6 46.3 15.9 67.1 9.7 20.5 23.2 38.9 44.4 48.5 9.1 4.1 23.8 10.9 32.1 2.3 3-3.1 3.5-6.5 1.3-10.2-3.3-5.9-9-6.8-14.9-8.4-21.4-6-33.8-22.1-43.1-41.3-9.6-19.6-16.1-42.2-13.4-64.2 1.3-10.6 4.9-22.4 12.2-30.5 8-9 18.4-10.1 29.2-5.4 24 10.5 32.6 40 49 58.3 2.7 3.1 8.8 0.8 8.5-3.5z"/>
									</g>
								</g>
							</g>
						</g>
					</g>
					<g id="&lt;Group&gt;">
						<g id="&lt;Group&gt;">
							<g id="&lt;Group&gt;">
								<path id="&lt;Path&gt;" class="s1" d="m2466.6 1376.2c0 255.4-341.6 462.4-763 462.4-421.5 0-763.1-207-763.1-462.4 0-33.1 5.7-65.4 16.6-96.6 36.7-104.4 54.7-214.3 48-324.3q-0.7-12.8-1.7-25.8c-3-38.7-3.1-77.7 0.2-116.4 33.3-391.9 362.8-594.3 700-597 337.1 2.7 666.6 205.1 699.9 597 3.3 38.7 3.2 77.7 0.2 116.4q-0.9 13-1.7 25.8c-6.6 110 11.4 219.9 48 324.3 10.9 31.2 16.6 63.5 16.6 96.6z"/>
							</g>
						</g>
					</g>
					<g id="&lt;Group&gt;">
						<g id="&lt;Group&gt;">
							<g id="&lt;Group&gt;">
								<g id="&lt;Group&gt;">
									<path id="&lt;Path&gt;" class="s2" d="m1703.6 1735.5c-392.7 0-716.1-179.8-758.4-410.9-3.1 16.9-4.7 34.2-4.7 51.6 0 255.4 341.6 462.4 763.1 462.4 421.4 0 763-207 763-462.4 0-17.4-1.6-34.7-4.7-51.6-42.3 231.1-365.7 410.9-758.3 410.9z"/>
								</g>
							</g>
						</g>
					</g>
					<g id="&lt;Group&gt;" style="opacity: .5">
						<g id="&lt;Group&gt;">
							<g id="&lt;Group&gt;">
								<g id="&lt;Group&gt;">
									<path id="&lt;Path&gt;" class="s8" d="m1003.6 855.3c33.3-391.9 362.8-594.3 700-597 337.1 2.7 666.6 205.1 699.9 597 1.1 12.7 1.7 25.4 2.1 38 0.8-26.7 0.2-53.5-2.1-80.2-33.3-391.9-362.8-594.3-699.9-597-337.2 2.7-666.7 205.1-700 597-2.2 26.7-2.9 53.5-2.1 80.2 0.4-12.6 1.1-25.3 2.1-38z"/>
								</g>
							</g>
						</g>
						<g id="&lt;Group&gt;">
							<g id="&lt;Group&gt;">
								<g id="&lt;Group&gt;">
									<path id="&lt;Path&gt;" class="s8" d="m2450 1321.9c8.6 24.5 13.9 49.7 15.8 75.5 0.5-7 0.8-14.1 0.8-21.2 0-33.1-5.7-65.4-16.6-96.6-29.3-83.4-46.6-170.4-49-258.1-2.9 102 15 203.5 49 300.4z"/>
								</g>
							</g>
						</g>
						<g id="&lt;Group&gt;">
							<g id="&lt;Group&gt;">
								<g id="&lt;Group&gt;">
									<path id="&lt;Path&gt;" class="s8" d="m957.1 1321.9c34-96.9 51.9-198.4 49-300.4-2.4 87.7-19.7 174.7-49 258.1-10.9 31.2-16.6 63.5-16.6 96.6 0 7.1 0.3 14.2 0.8 21.2 1.9-25.8 7.2-51 15.8-75.5z"/>
								</g>
							</g>
						</g>
					</g>
					<g id="&lt;Group&gt;">
						<g id="&lt;Group&gt;">
							<g id="&lt;Group&gt;">
								<path id="&lt;Path&gt;" class="s5" d="m2214.3 1531.5c0 38.4-16.1 75-45.2 107.9-80.5 91.2-259.9 154.7-468.3 154.7-211.7 0-393.5-65.5-472-159.1-26.7-31.8-41.5-66.8-41.5-103.5 0-48.4 25.7-93.8 70.4-132.7-33.3-36.3-62.6-79.1-86-127.4-101.7-209.8-52.4-443.8 110.2-522.7 117.5-56.9 261.9-17.3 371.4 88.1 21.8 21.1 56.5 21.1 78.4 0.1 109.4-104.9 253.4-144.3 370.7-87.4 162.6 78.8 211.9 312.8 110.2 522.7-21.5 44.4-48.1 84.2-78.2 118.5 50.6 40.7 79.9 89 79.9 140.8z"/>
							</g>
						</g>
					</g>
					<g id="&lt;Group&gt;" style="opacity: .5">
						<g id="&lt;Group&gt;">
							<g id="&lt;Group&gt;">
								<g id="&lt;Group&gt;">
									<path id="&lt;Path&gt;" class="s8" d="m1281.9 786.3c117.5-57 261.9-17.4 371.4 88.1 21.9 21 56.5 21.1 78.4 0 109.4-104.9 253.4-144.3 370.7-87.4 100.3 48.6 157.4 156.4 162.7 281 5.6-140.2-52.5-265.1-162.7-318.5-117.3-56.9-261.3-17.6-370.7 87.4-21.9 21-56.5 21-78.4-0.1-109.5-105.4-253.9-145-371.4-88.1-110.3 53.5-168.4 178.4-162.7 318.6 5.2-124.7 62.4-232.4 162.7-281z"/>
								</g>
							</g>
						</g>
					</g>
					<g id="&lt;Group&gt;">
						<g id="&lt;Group&gt;">
							<g id="&lt;Group&gt;">
								<g id="&lt;Group&gt;">
									<path id="&lt;Path&gt;" class="s3" d="m1807.1 1291.4c16.1-13.3 29.7-32.2 29.2-53.2-0.2-30.1-30.5-51.4-59.1-46.5-30.7 4.6-53.9 28.2-74.8 49.9-3.3 4-7.7 5.5-12.6 5-4.1 0-7.7-2-10.2-5-19.4-23.1-43.9-46.1-74.8-50.1-42.9-5.9-73.6 37.4-51 75.5 5 9.3 12.5 17.5 20.8 25 1.4 1.2 1.5 3.4 0.2 4.7-1.1 1.2-2.8 1.5-4.2 0.7-10.3-5.8-19.8-13.5-27.6-23.3-27-32.9-14.2-83.2 24.6-100.7 24.4-11.7 53.8-8.4 77 3.7 22.6 11.1 40.5 29.1 55.4 48.7l-10.2-5 2.3-0.1-10.2 5c13.7-20.4 32.5-38.6 55.1-49.4 50.7-26.4 118.5-0.3 115.6 62.5-0.9 13.2-6.4 25.4-13.9 35.2-7.5 9.9-17 17.7-27.1 23.9-1.8 1.1-4.3 0.5-5.4-1.3-1-1.8-0.6-4 0.9-5.2z"/>
								</g>
							</g>
						</g>
						<g id="&lt;Group&gt;">
							<g id="&lt;Group&gt;">
								<g id="&lt;Group&gt;">
									<path id="&lt;Path&gt;" class="s3" d="m1783.9 1259c-1.8-5-7.3-5.7-9.7-2.6-14.7 16.2-32.7 29.3-51.4 40.6-8.5 5.3-19.8 10.8-30.6 10.4-10.9 0.3-22.1-5.3-30.6-10.7-18.6-11.3-36.3-24.6-51.1-40.7-2.8-3.2-8.6-2.2-10.1 3-0.5 2.1-3.7 2-4 0-2.7-11 12.4-18.5 21-11.7 0 0 5.9 4.5 5.9 4.5 14.5 11.8 29.7 22.7 46 31.7 7.8 4.3 14.2 8.1 22.9 7.8 8.6 0.1 14.9-3.6 22.7-8.1 7.9-4.7 15.9-9.5 23.5-14.8 7.6-5.3 14.8-11.2 22.2-17l6-4.6c3.2-2.2 7.3-3 10.8-2.4 6.8 0.9 12.7 8.2 10.6 14.6-0.5 2-3.5 2-4.1 0z"/>
								</g>
							</g>
						</g>
						<g id="&lt;Group&gt;">
							<g id="&lt;Group&gt;">
								<g id="&lt;Group&gt;">
									<path id="&lt;Path&gt;" class="s3" d="m1578.3 1174c15.2-26.8 45.3-45.3 75.8-45.4 2.5-0.2 4.6 1.6 4.7 4.1 0.1 2.2-1.5 4.1-3.6 4.5-27 3.8-49.4 21-60 45.8-6 12-23.6 2.6-16.9-9z"/>
								</g>
							</g>
						</g>
						<g id="&lt;Group&gt;">
							<g id="&lt;Group&gt;">
								<g id="&lt;Group&gt;">
									<path id="&lt;Path&gt;" class="s3" d="m1784.9 1184.6c-9.1-24.8-29.9-42.3-56.3-47.5-2.3-0.5-3.8-2.8-3.3-5.1 0.5-2.2 2.5-3.6 4.6-3.5 14.5 1.3 29.3 5.6 42 14 13 8.4 23.1 20.6 30.4 34 6.1 12-12 20.5-17.4 8.1z"/>
								</g>
							</g>
						</g>
					</g>
					<g id="&lt;Group&gt;">
						<g id="&lt;Group&gt;">
							<g id="&lt;Group&gt;">
								<g id="&lt;Group&gt;">
									<path id="&lt;Path&gt;" class="s6" d="m2169.1 1639.4c-80.5 91.2-259.9 154.7-468.3 154.7-211.7 0-393.5-65.5-472-159.1 130.3 62.9 295.2 100.5 474.8 100.5 175.3 0 336.7-35.8 465.5-96.1z"/>
								</g>
							</g>
						</g>
					</g>
					<g id="&lt;Group&gt;">
						<g id="&lt;Group&gt;">
							<g id="&lt;Group&gt;">
								<path id="&lt;Compound Path&gt;" fill-rule="evenodd" class="s3" d="m1700.8 1808.2c-139.3 0-270.5-27.9-369.5-78.5-101.9-52.1-158-122.5-158-198.2 0-47.2 22.3-93.2 64.6-133.7-31-35.8-57.5-76.1-78.9-120.2-104.9-216.5-52.5-459.4 116.8-541.5 118.4-57.5 270.4-21.9 387.2 90.6 16.5 15.9 42.4 15.9 59 0.1 116.6-112 268.3-147.3 386.5-90 169.3 82.1 221.7 325 116.8 541.5-19.5 40.1-43.3 77.3-71 110.8 48.6 42.7 74.1 91.7 74.1 142.4 0 75.7-56.1 146.1-158 198.2-99 50.6-230.2 78.5-369.6 78.5zm-304.2-1071.1c-38 0-74.8 8-108.5 24.3-155.4 75.3-201.9 301.4-103.8 503.9 22.4 46 50.5 87.7 83.7 124 2.6 2.7 3.9 6.5 3.7 10.2-0.2 3.8-1.9 7.4-4.8 9.9-42.8 37.3-65.5 79.5-65.5 122.1 0 64.6 50.7 126.1 142.7 173.1 95.1 48.7 221.8 75.4 356.7 75.4 135 0 261.7-26.7 356.7-75.4 92.1-47 142.8-108.5 142.8-173.1 0-45.6-25.8-90.5-74.7-129.8-3-2.4-4.8-5.9-5.2-9.7-0.3-3.8 0.9-7.6 3.4-10.5 30.1-34.3 55.7-73.2 76.2-115.4 98.1-202.6 51.6-428.7-103.8-504-107.4-52.1-246.7-18.7-354.8 85-27.4 26.3-70.5 26.3-97.9-0.1-74.3-71.6-163.4-109.9-246.9-109.9z"/>
							</g>
						</g>
					</g>
					<g id="&lt;Group&gt;">
						<g id="&lt;Group&gt;">
							<g id="&lt;Group&gt;">
								<path id="&lt;Compound Path&gt;" fill-rule="evenodd" class="s3" d="m1703.6 1857.4c-207.3 0-402.3-49.1-549.4-138.2-149.9-90.8-232.5-212.7-232.5-343 0-34.6 6-69.2 17.7-102.8 37.5-106.6 53.3-213.3 47-317q-0.8-12.7-1.7-25.4c-3.1-40.8-3-81 0.2-119.5 16-188.3 100.1-346.6 243.3-457.7 128.1-99.5 296.9-155 475.2-156.4 178.7 1.4 347.5 56.9 475.6 156.4 143.1 111.1 227.2 269.4 243.2 457.7 3.2 38.5 3.3 78.7 0.2 119.5q-0.9 12.7-1.7 25.4c-6.2 103.7 9.6 210.4 47 317 11.7 33.6 17.7 68.2 17.7 102.8 0 130.3-82.6 252.2-232.5 343-147 89.1-342.1 138.2-549.3 138.2zm-0.2-1622.5c-304.3 2.4-647.5 184.8-681.1 579.8-3.1 36.5-3.2 74.7-0.2 113.4q1 13.1 1.8 26.1c6.5 108.6-10 220.2-49.1 331.7-10.3 29.5-15.6 59.9-15.6 90.3 0 244.6 333.9 443.7 744.4 443.7 410.4 0 744.3-199.1 744.3-443.7 0-30.4-5.3-60.8-15.6-90.3-39.1-111.5-55.6-223.1-49-331.7q0.7-13 1.7-26.1c3-38.7 2.9-76.9-0.2-113.4-33.6-395-376.7-577.4-681.4-579.8z"/>
							</g>
						</g>
					</g>
					<g id="&lt;Group&gt;">
						<g id="&lt;Group&gt;">
							<g id="&lt;Group&gt;">
								<path id="&lt;Path&gt;" class="s1" d="m1908.5 319.2c13.8-35.5 38.2-65.7 70.1-92.2 6.9-5.7 6.4-16.9-1-21.7-67.5-43.5-145.8-29.1-228.3 10.8 44.7-43.1 55.8-90.2 26.4-144.9-3.9-7.2-13.3-8.9-19-3.2-67.5 66.9-263.3 140.4-406 251.4z"/>
							</g>
						</g>
					</g>
					<g id="&lt;Group&gt;" style="opacity: .5">
						<g id="&lt;Group&gt;">
							<g id="&lt;Group&gt;">
								<g id="&lt;Group&gt;">
									<path id="&lt;Path&gt;" class="s8" d="m1763.7 242c74.5-33.4 145.2-44.2 207.1-8.2 2.6-2.2 5.2-4.5 7.8-6.8 6.9-5.7 6.4-16.9-1-21.7-58-37.4-123.9-32-193.7-4.5-34.5 2-57.3 13.1-58.1 24.6-0.2 3.6 1.7 7.1 4.5 10.2 8.4 9.2 22 11.5 33.4 6.4z"/>
								</g>
							</g>
						</g>
						<g id="&lt;Group&gt;">
							<g id="&lt;Group&gt;">
								<g id="&lt;Group&gt;">
									<path id="&lt;Path&gt;" class="s8" d="m1756.7 100.7c5.7-5.7 15.1-4.1 19 3.2 7.8 14.5 12.7 28.5 14.9 42 4-23.4-0.6-48.1-14.9-74.7-3.9-7.2-13.3-8.9-19-3.2-67.5 66.9-263.3 140.4-406 251.4h44.9c136.2-93.2 300.4-158.6 361.1-218.7z"/>
								</g>
							</g>
						</g>
					</g>
					<g id="&lt;Group&gt;">
						<g id="&lt;Group&gt;">
							<g id="&lt;Group&gt;">
								<path id="&lt;Path&gt;" class="s3" d="m1301.6 304.3c93.6-68.1 197.9-118.1 299.8-170.6 43-22.9 86.7-44.1 123.9-75.3 0 0 3.8-3.1 3.8-3.1 13.6-14.1 38.5-11.9 49.1 4.5 25.8 41.4 29.2 93.4 0.8 134.4-9 13.6-19.8 25.3-31.2 35.7l-20.4-30.9c80.2-37.5 183.8-59 261.4-3.5 13.4 11.4 11.7 34.1-2.9 43.7-30.6 22.5-55.1 50.5-75.9 82.6-2 3.1-6.1 4-9.2 2-2.3-1.6-3.4-4.4-2.8-7.1 3.8-17 11.5-33.2 21.3-47.7 13.9-20.4 31.5-37.5 50.3-53.1 0-0.1-0.1-0.1-0.1-0.1q-0.1 0.1-0.2 0.2c-0.7 0.4-0.3 1.5 0.1 2 0.2 0.1-0.6-0.4-0.6-0.3-41.2-23.6-90.3-26.3-136-15.9-30.9 6.8-60.8 18.3-89.8 31.3-9.5 4.2-20.6-0.1-24.8-9.6-3.3-7.5-1.3-16 4.4-21.3 28.9-26 46.9-58.1 35.9-94.9-2.7-9.3-6.8-18.1-11.5-26.5 0 0-0.1-0.3-0.1-0.3l0.1 0.1c1.7 3.1 6.2 3.7 8.9 1.2-18.7 16.6-39.8 30.9-61.2 43.5-74.2 43.7-152.9 79.1-227.6 120.4-49.7 27.2-98.3 56-143.4 88.9-20.1 13.9-42-14.9-22.1-30.3z"/>
							</g>
						</g>
					</g>
					<g id="&lt;Group&gt;">
						<g id="&lt;Group&gt;">
							<g id="&lt;Group&gt;">
								<g id="&lt;Group&gt;">
									<g id="&lt;Group&gt;">
										<g id="&lt;Group&gt;">
											<path id="&lt;Path&gt;" class="s3" d="m1351.9 942.2c41.9 14.7 91.1 39.6 135.4 65.1 6.5 3.8 12.7 7 18.4 9.7 1 12 0.7 24.5-1.2 37.2-10.4 68.5-62.1 117.5-115.6 109.4-53.4-8.1-88.3-70.2-77.9-138.7 5.1-33.9 20.4-62.9 40.9-82.7z"/>
										</g>
									</g>
								</g>
							</g>
						</g>
						<g id="&lt;Group&gt;">
							<g id="&lt;Group&gt;">
								<g id="&lt;Group&gt;">
									<g id="&lt;Group&gt;">
										<path id="&lt;Path&gt;" class="s3" d="m1496.5 991.3c53.8 31 66.3 19.5 87 0.5l2.9-2.7c0 0 0.2 62.2-44.8 57.9-17-1.6-37.5-8.7-63.6-23.7-82.5-47.5-150.4-75.3-186.3-76.2 0 0 39.6-34.3 105-6.9 37.3 16.3 74 36.3 99.8 51.1z"/>
									</g>
								</g>
							</g>
						</g>
						<g id="&lt;Group&gt;">
							<g id="&lt;Group&gt;">
								<g id="&lt;Group&gt;">
									<g id="&lt;Group&gt;">
										<path id="&lt;Path&gt;" class="s11" d="m1449.3 998.4c17.1 2.6 28.3 22.5 25 44.5-3.3 22-19.9 37.7-37.1 35.1-17.1-2.6-28.3-22.5-25-44.5 3.3-22 19.9-37.7 37.1-35.1z"/>
									</g>
								</g>
							</g>
						</g>
						<g id="&lt;Group&gt;" style="opacity: .3">
							<g id="&lt;Group&gt;">
								<g id="&lt;Group&gt;">
									<g id="&lt;Group&gt;">
										<path id="&lt;Path&gt;" class="s8" d="m1361.1 1063.4c12.8-3.6 27.5 8.4 32.9 26.7 5.3 18.3-0.7 36.1-13.5 39.7-12.8 3.5-27.6-8.4-32.9-26.8-5.4-18.3 0.7-36 13.5-39.6z"/>
									</g>
								</g>
							</g>
						</g>
					</g>
					<g id="&lt;Group&gt;">
						<g id="&lt;Group&gt;">
							<g id="&lt;Group&gt;">
								<g id="&lt;Group&gt;">
									<g id="&lt;Group&gt;">
										<g id="&lt;Group&gt;">
											<path id="&lt;Path&gt;" class="s3" d="m2032.3 942.2c-41.8 14.7-91 39.6-135.3 65.1-6.6 3.8-12.7 7-18.4 9.7-1.1 12-0.7 24.5 1.2 37.2 10.4 68.5 62.1 117.5 115.5 109.4 53.5-8.1 88.4-70.2 78-138.7-5.2-33.9-20.4-62.9-41-82.7z"/>
										</g>
									</g>
								</g>
							</g>
						</g>
						<g id="&lt;Group&gt;">
							<g id="&lt;Group&gt;">
								<g id="&lt;Group&gt;">
									<g id="&lt;Group&gt;">
										<path id="&lt;Path&gt;" class="s3" d="m1887.8 991.3c-53.8 31-66.3 19.5-87 0.5l-2.9-2.7c0 0-0.2 62.2 44.8 57.9 17-1.6 37.5-8.7 63.5-23.7 82.6-47.5 150.5-75.3 186.4-76.2 0 0-39.6-34.3-105-6.9-37.4 16.3-74 36.3-99.8 51.1z"/>
									</g>
								</g>
							</g>
						</g>
						<g id="&lt;Group&gt;">
							<g id="&lt;Group&gt;">
								<g id="&lt;Group&gt;">
									<g id="&lt;Group&gt;">
										<path id="&lt;Path&gt;" class="s11" d="m1935 998.4c-17.2 2.6-28.4 22.5-25 44.5 3.3 22 19.9 37.7 37.1 35.1 17.1-2.6 28.3-22.5 25-44.5-3.4-22-20-37.7-37.1-35.1z"/>
									</g>
								</g>
							</g>
						</g>
						<g id="&lt;Group&gt;" style="opacity: .3">
							<g id="&lt;Group&gt;">
								<g id="&lt;Group&gt;">
									<g id="&lt;Group&gt;">
										<path id="&lt;Path&gt;" class="s8" d="m2023.2 1063.4c-12.8-3.6-27.6 8.4-32.9 26.7-5.4 18.3 0.7 36.1 13.5 39.7 12.8 3.5 27.5-8.4 32.9-26.8 5.4-18.3-0.7-36-13.5-39.6z"/>
									</g>
								</g>
							</g>
						</g>
					</g>
					<g id="&lt;Group&gt;">
						<g id="&lt;Group&gt;">
							<g id="&lt;Group&gt;">
								<path id="&lt;Path&gt;" class="s3" d="m1520.7 1475.5c6.7-19.2 25.7-30.6 44.1-36.5 51.1-14.8 117.5 5 146.2 51 4.6 7.5-5 15.7-11.7 10-11.4-9.8-24.9-17.4-39.2-23.2-36.4-14.2-98.7-23.3-128.1 7.5-4.8 5.9-14.5 0.4-12-6.7 0 0 0.7-2.1 0.7-2.1z"/>
							</g>
						</g>
					</g>
					<g id="&lt;Group&gt;" style="opacity: .5">
						<g id="&lt;Group&gt;">
							<g id="&lt;Group&gt;">
								<path id="&lt;Path&gt;" class="s8" d="m1639.1 1490.8c-0.6 5.2-14.9 7.7-31.9 5.6-16.9-2.2-30.2-8.2-29.5-13.4 0.7-5.2 15-7.7 31.9-5.5 17 2.1 30.2 8.1 29.5 13.3z"/>
							</g>
						</g>
					</g>
				</g>
				<g id="&lt;Group&gt;">
					<g id="&lt;Group&gt;">
						<g id="&lt;Group&gt;">
							<g id="&lt;Group&gt;">
								<g id="&lt;Group&gt;">
									<path id="&lt;Path&gt;" class="s8" d="m1278.4 546.9c1.6-2.2 5.9-9.9-0.2-14.2-6-4.4-12 2-13.6 4.3-93.5 129.7-89.8 139.2-89.8 139.2 0 0 9.8 0.9 103.6-129.3z"/>
								</g>
							</g>
						</g>
					</g>
					<g id="&lt;Group&gt;">
						<g id="&lt;Group&gt;">
							<g id="&lt;Group&gt;">
								<g id="&lt;Group&gt;">
									<path id="&lt;Path&gt;" class="s8" d="m1202.4 543.4c1.7-2.2 5.9-9.9-0.2-14.3-6-4.3-12 2.1-13.6 4.4-93.5 129.7-89.8 139.1-89.8 139.1 0 0 9.9 0.9 103.6-129.2z"/>
								</g>
							</g>
						</g>
					</g>
					<g id="&lt;Group&gt;">
						<g id="&lt;Group&gt;">
							<g id="&lt;Group&gt;">
								<g id="&lt;Group&gt;">
									<path id="&lt;Path&gt;" class="s8" d="m1221.6 663.6c2.5 1.8 10.8 6.6 15.3 0.6 4.4-6-2.7-12.5-5.2-14.3-142.2-105.1-152.1-101.8-152.1-101.8 0 0-0.6 10.1 142 115.5z"/>
								</g>
							</g>
						</g>
					</g>
					<g id="&lt;Group&gt;">
						<g id="&lt;Group&gt;">
							<g id="&lt;Group&gt;">
								<g id="&lt;Group&gt;">
									<path id="&lt;Path&gt;" class="s8" d="m1281.6 620.4c2.4 1.8 10.8 6.7 15.2 0.7 4.5-6-2.7-12.6-5.1-14.4-142.2-105-152.2-101.8-152.2-101.8 0 0-0.5 10.2 142.1 115.5z"/>
								</g>
							</g>
						</g>
					</g>
				</g>
			</g>
		</g>
	</g>
</svg>
